BasicallyASansSerif-Thin.ufo
<glyph name="exclamation" format="2">
  <advance width="346.9090909090909"/>
  <unicode hex="0021"/>
  <outline>
    <contour>
      <point x="157.09091" y="259.90909" type="line"/>
      <point x="189.81818" y="259.90909" type="line"/>
      <point x="189.81818" y="1080.0" type="line"/>
      <point x="157.09091" y="1080.0" type="line"/>
    </contour>
    <contour>
      <point x="229.09091" y="40.63636" type="curve" smooth="yes"/>
      <point x="229.09091" y="71.34291"/>
      <point x="204.16109" y="96.27273"/>
      <point x="173.45455" y="96.27273" type="curve" smooth="yes"/>
      <point x="142.748" y="96.27273"/>
      <point x="117.81818" y="71.34291"/>
      <point x="117.81818" y="40.63636" type="curve" smooth="yes"/>
      <point x="117.81818" y="9.92982"/>
      <point x="142.748" y="-15.0"/>
      <point x="173.45455" y="-15.0" type="curve" smooth="yes"/>
      <point x="204.16109" y="-15.0"/>
      <point x="229.09091" y="9.92982"/>
    </contour>
  </outline>
</glyph>
<glyph name="quote_dbl" format="2">
  <advance width="427.09090909090907"/>
  <unicode hex="0022"/>
  <outline>
    <contour>
      <point x="274.90909" y="814.60227" type="line"/>
      <point x="307.63636" y="814.60227" type="line"/>
      <point x="307.63636" y="1073.86364" type="line"/>
      <point x="274.90909" y="1073.86364" type="line"/>
    </contour>
    <contour>
      <point x="119.45455" y="814.60227" type="line"/>
      <point x="152.18182" y="814.60227" type="line"/>
      <point x="152.18182" y="1073.86364" type="line"/>
      <point x="119.45455" y="1073.86364" type="line"/>
    </contour>
  </outline>
</glyph>
<glyph name="quotedbl" format="2">
  <advance width="431.99999999999994"/>
  <unicode hex="0022"/>
  <outline>
    <contour>
      <point x="281.45454545454544" y="777.2727272727273" type="line"/>
      <point x="314.18181818181813" y="777.2727272727273" type="line"/>
      <point x="314.18181818181813" y="1055.4545454545453" type="line"/>
      <point x="281.45454545454544" y="1055.4545454545453" type="line"/>
    </contour>
    <contour>
      <point x="117.81818181818181" y="777.2727272727273" type="line"/>
      <point x="150.54545454545453" y="777.2727272727273" type="line"/>
      <point x="150.54545454545453" y="1055.4545454545453" type="line"/>
      <point x="117.81818181818181" y="1055.4545454545453" type="line"/>
    </contour>
  </outline>
</glyph>
<glyph name="numbersign" format="2">
  <advance width="929.5519692074445"/>
  <unicode hex="0023"/>
  <outline>
    <contour>
      <point x="179.50434112548828" y="0" type="line"/>
      <point x="212.8441619873047" y="0" type="line"/>
      <point x="278.5800552368164" y="338.18182373046875" type="line"/>
      <point x="572.5129623413086" y="338.18182373046875" type="line"/>
      <point x="506.7770690917969" y="0" type="line"/>
      <point x="540.1168899536133" y="0" type="line"/>
      <point x="605.8527755737305" y="338.18182373046875" type="line"/>
      <point x="837.8181762695312" y="338.18182373046875" type="line"/>
      <point x="837.8181762695312" y="370.9090881347656" type="line"/>
      <point x="612.2143096923828" y="370.9090881347656" type="line"/>
      <point x="677.9502029418945" y="709.0909118652344" type="line"/>
      <point x="909.9156112670898" y="709.0909118652344" type="line"/>
      <point x="909.9156112670898" y="741.8181762695312" type="line"/>
      <point x="684.3117370605469" y="741.8181762695312" type="line"/>
      <point x="750.0476226806641" y="1080" type="line"/>
      <point x="716.7078094482422" y="1080" type="line"/>
      <point x="650.9719161987305" y="741.8181762695312" type="line"/>
      <point x="357.0390090942383" y="741.8181762695312" type="line"/>
      <point x="422.77490234375" y="1080" type="line"/>
      <point x="389.4350814819336" y="1080" type="line"/>
      <point x="323.6991882324219" y="741.8181762695312" type="line"/>
      <point x="91.7337875366211" y="741.8181762695312" type="line"/>
      <point x="91.7337875366211" y="709.0909118652344" type="line"/>
      <point x="317.33765411376953" y="709.0909118652344" type="line"/>
      <point x="251.60176849365234" y="370.9090881347656" type="line"/>
      <point x="19.63636016845703" y="370.9090881347656" type="line"/>
      <point x="19.63636016845703" y="338.18182373046875" type="line"/>
      <point x="245.240234375" y="338.18182373046875" type="line"/>
    </contour>
    <contour>
      <point x="284.94158935546875" y="370.9090881347656" type="line"/>
      <point x="350.67747497558594" y="709.0909118652344" type="line"/>
      <point x="644.6103820800781" y="709.0909118652344" type="line"/>
      <point x="578.8744964599609" y="370.9090881347656" type="line"/>
    </contour>
  </outline>
</glyph>
<glyph name="dollar" format="2">
  <advance width="917.4545454545453"/>
  <unicode hex="0024"/>
  <outline>
    <contour>
      <point x="381.2824020385742" y="588.0690460205078" type="line"/>
      <point x="242.53980048250304" y="614.1754840256862"/>
      <point x="139.6363636363635" y="708.8974390475222"/>
      <point x="139.6363636363635" y="821.590909090909" type="curve"/>
      <point x="139.63636363636363" y="950.4956736511612"/>
      <point x="274.27873870896383" y="1055.867657323275"/>
      <point x="443.1818161010742" y="1061.9844818115234" type="curve"/>
      <point x="443.1818161010742" y="576.4217681884766" type="line"/>
    </contour>
    <contour>
      <point x="74.18181610107422" y="274.7727279663086" type="line"/>
      <point x="74.18181818181817" y="118.76620751592415"/>
      <point x="238.14038849872463" y="-8.611285534347743"/>
      <point x="443.1818161010742" y="-14.762435913085938" type="curve"/>
      <point x="443.1818161010742" y="-130.90908813476562" type="line"/>
      <point x="474.2727279663086" y="-130.90908813476562" type="line"/>
      <point x="474.2727279663086" y="-14.757522583007812" type="line"/>
      <point x="679.3141569558206" y="-8.611285534347797"/>
      <point x="843.2727272727271" y="118.76620751592398"/>
      <point x="843.2727272727271" y="274.7727272727272" type="curve"/>
      <point x="843.2727272727271" y="410.42848449707043"/>
      <point x="719.305544206113" y="524.4650789902241"/>
      <point x="552.1446033824571" y="555.9188398881391" type="curve"/>
      <point x="474.2727279663086" y="570.5715637207031" type="line"/>
      <point x="474.2727279663086" y="1061.9800415039062" type="line"/>
      <point x="643.1758067455814" y="1055.867657323275"/>
      <point x="777.8181818181818" y="950.4956736511612"/>
      <point x="777.8181818181819" y="821.5909090909091" type="curve"/>
      <point x="810.5454559326172" y="821.5909118652344" type="line"/>
      <point x="810.5454545454544" y="968.44148755709"/>
      <point x="661.2455048911256" y="1088.4066372436012"/>
      <point x="474.2727279663086" y="1094.7269897460938" type="curve"/>
      <point x="474.2727279663086" y="1210.9090881347656" type="line"/>
      <point x="443.1818161010742" y="1210.9090881347656" type="line"/>
      <point x="443.1818161010742" y="1094.726791381836" type="line"/>
      <point x="256.20904056341976" y="1088.4066372436012"/>
      <point x="106.90909090909085" y="968.4414875570901"/>
      <point x="106.9090909090908" y="821.5909090909091" type="curve"/>
      <point x="106.90909090909076" y="692.9036913688675"/>
      <point x="221.56023010790608" y="584.8613959441221"/>
      <point x="375.744132302024" y="555.8568503639914" type="curve"/>
      <point x="443.1818161010742" y="543.1707077026367" type="line"/>
      <point x="443.1818161010742" y="17.98443603515625" type="line"/>
      <point x="256.20904056341976" y="23.92602025635594"/>
      <point x="106.9090909090909" y="136.71121085938506"/>
      <point x="106.9090909090908" y="274.77272727272725" type="curve"/>
    </contour>
    <contour>
      <point x="546.6728286743164" y="523.7023315429688" type="line"/>
      <point x="698.3523132264089" y="495.1689085296761"/>
      <point x="810.5454545454543" y="394.4563348838064"/>
      <point x="810.5454545454543" y="274.77272727272725" type="curve"/>
      <point x="810.5454545454544" y="136.71121085938495"/>
      <point x="661.2455048911255" y="23.926020256355855"/>
      <point x="474.2727279663086" y="17.9820556640625" type="curve"/>
      <point x="474.2727279663086" y="537.3219909667969" type="line"/>
    </contour>
  </outline>
</glyph>
<glyph name="percent" format="2">
  <advance width="1202.6493506493503"/>
  <unicode hex="0025"/>
  <outline>
    <contour>
      <point x="517.55844" y="862.4026" type="curve" smooth="yes"/>
      <point x="517.55844" y="990.7766"/>
      <point x="413.33504" y="1095.0"/>
      <point x="284.96104" y="1095.0" type="curve" smooth="yes"/>
      <point x="156.58704" y="1095.0"/>
      <point x="52.36364" y="990.7766"/>
      <point x="52.36364" y="862.4026" type="curve" smooth="yes"/>
      <point x="52.36364" y="734.0286"/>
      <point x="156.58704" y="629.80519"/>
      <point x="284.96104" y="629.80519" type="curve" smooth="yes"/>
      <point x="413.33504" y="629.80519"/>
      <point x="517.55844" y="734.0286"/>
    </contour>
    <contour>
      <point x="174.94047" y="0.0" type="line"/>
      <point x="213.87051" y="0.0" type="line"/>
      <point x="1027.70888" y="1080.0" type="line"/>
      <point x="988.77884" y="1080.0" type="line"/>
    </contour>
    <contour>
      <point x="484.83117" y="862.4026" type="curve" smooth="yes"/>
      <point x="484.83117" y="752.09127"/>
      <point x="395.27237" y="662.53247"/>
      <point x="284.96104" y="662.53247" type="curve" smooth="yes"/>
      <point x="174.64971" y="662.53247"/>
      <point x="85.09091" y="752.09127"/>
      <point x="85.09091" y="862.4026" type="curve" smooth="yes"/>
      <point x="85.09091" y="972.71392"/>
      <point x="174.64971" y="1062.27273"/>
      <point x="284.96104" y="1062.27273" type="curve" smooth="yes"/>
      <point x="395.27237" y="1062.27273"/>
      <point x="484.83117" y="972.71392"/>
    </contour>
    <contour>
      <point x="1150.28571" y="217.5974" type="curve" smooth="yes"/>
      <point x="1150.28571" y="345.9714"/>
      <point x="1046.06231" y="450.19481"/>
      <point x="917.68831" y="450.19481" type="curve" smooth="yes"/>
      <point x="789.31431" y="450.19481"/>
      <point x="685.09091" y="345.9714"/>
      <point x="685.09091" y="217.5974" type="curve" smooth="yes"/>
      <point x="685.09091" y="89.2234"/>
      <point x="789.31431" y="-15.0"/>
      <point x="917.68831" y="-15.0" type="curve" smooth="yes"/>
      <point x="1046.06231" y="-15.0"/>
      <point x="1150.28571" y="89.2234"/>
    </contour>
    <contour>
      <point x="1117.55844" y="217.5974" type="curve" smooth="yes"/>
      <point x="1117.55844" y="107.28608"/>
      <point x="1027.99964" y="17.72727"/>
      <point x="917.68831" y="17.72727" type="curve" smooth="yes"/>
      <point x="807.37698" y="17.72727"/>
      <point x="717.81818" y="107.28608"/>
      <point x="717.81818" y="217.5974" type="curve" smooth="yes"/>
      <point x="717.81818" y="327.90873"/>
      <point x="807.37698" y="417.46753"/>
      <point x="917.68831" y="417.46753" type="curve" smooth="yes"/>
      <point x="1027.99964" y="417.46753"/>
      <point x="1117.55844" y="327.90873"/>
    </contour>
  </outline>
</glyph>
<glyph name="ampersand" format="2">
  <advance width="1007.8688090434008"/>
  <unicode hex="0026"/>
  <outline>
    <contour>
      <point x="310.3200548909684" y="715.8526840039368" type="line"/>
      <point x="285.12679860762177" y="742.2435711398896"/>
      <point x="242.18182" y="790.1244578242237"/>
      <point x="242.18182" y="865.90909" type="curve"/>
      <point x="242.18182" y="974.28513"/>
      <point x="330.16940999999997" y="1062.27273"/>
      <point x="438.54545" y="1062.27273" type="curve" smooth="yes"/>
      <point x="546.9214900000001" y="1062.27273"/>
      <point x="634.90909" y="974.28513"/>
      <point x="634.90909" y="865.90909" type="curve"/>
      <point x="634.90909" y="757.1920837139398"/>
      <point x="542.0251387732218" y="689.7197519368582"/>
      <point x="459.2673026580111" y="654.5911380732211" type="curve"/>
      <point x="394.88855743408203" y="627.2639846801758" type="line"/>
    </contour>
    <contour>
      <point x="368.5702770974161" y="580.5389208931199" type="curve"/>
      <point x="386.84336853027344" y="588.2953872680664" type="line"/>
      <point x="745.8178863525391" y="212.2560272216797" type="line"/>
      <point x="666.7191216455308" y="92.9461244569302"/>
      <point x="550.9155286744601" y="17.727269999999976"/>
      <point x="422.18181999999996" y="17.727269999999947" type="curve"/>
      <point x="245.0150199999999" y="17.72726999999997"/>
      <point x="101.45455000000001" y="140.06198999999995"/>
      <point x="101.45455" y="290.45455" type="curve"/>
      <point x="101.45455000000001" y="432.30717993021875"/>
      <point x="245.32859452297868" y="528.2259354088139"/>
    </contour>
    <contour>
      <point x="68.72727" y="290.45455" type="curve"/>
      <point x="68.72727000000002" y="122.00039999999993"/>
      <point x="226.95354999999992" y="-14.999999999999977"/>
      <point x="422.18182" y="-15.0" type="curve"/>
      <point x="559.812345375" y="-15.0"/>
      <point x="683.695341383305" y="63.50902680994727"/>
      <point x="768.7506408691406" y="188.23310089111328" type="curve"/>
      <point x="948.4416275024414" y="0" type="line"/>
      <point x="993.6869888305664" y="0" type="line"/>
      <point x="786.9367828369141" y="216.57865142822266" type="line"/>
      <point x="849.0123665042184" y="319.5473492026332"/>
      <point x="886.09091" y="449.447305553"/>
      <point x="886.09091" y="590.7142899999999" type="curve"/>
      <point x="853.363639831543" y="590.7142868041992" type="line"/>
      <point x="853.36364" y="458.97473672544004"/>
      <point x="819.8735530393161" y="337.6934581500816"/>
      <point x="763.6531448364258" y="240.9691390991211" type="curve"/>
      <point x="419.04161834716797" y="601.9627380371094" type="line"/>
      <point x="472.05487617668587" y="624.4655292779308" type="line"/>
      <point x="505.6741020362706" y="638.736042960171"/>
      <point x="667.63636" y="709.6694627024558"/>
      <point x="667.63636" y="865.90909" type="curve"/>
      <point x="667.63636" y="992.3478000000001"/>
      <point x="564.9841700000001" y="1095.0"/>
      <point x="438.54545" y="1095.0" type="curve" smooth="yes"/>
      <point x="312.10673999999995" y="1095.0"/>
      <point x="209.45455" y="992.34781"/>
      <point x="209.45455" y="865.90909" type="curve"/>
      <point x="209.45455" y="777.6289891749911"/>
      <point x="258.9912557124114" y="722.2253093590706"/>
      <point x="286.64747541756327" y="693.2543741452507" type="curve"/>
      <point x="362.6903076171875" y="613.5966339111328" type="line"/>
      <point x="350.0999601528413" y="608.2523476110165" type="line"/>
      <point x="142.46463197943615" y="520.1163654294548"/>
      <point x="68.72727" y="394.2040084246027"/>
    </contour>
  </outline>
</glyph>
<glyph name="quote" format="2">
  <advance width="268.3636363636364"/>
  <unicode hex="0027"/>
  <outline>
    <contour>
      <point x="117.81818" y="801.81818" type="line"/>
      <point x="150.54545" y="801.81818" type="line"/>
      <point x="150.54545" y="1080.0" type="line"/>
      <point x="117.81818" y="1080.0" type="line"/>
    </contour>
  </outline>
</glyph>
<glyph name="quotesingle" format="2">
  <advance width="268.3636363636364"/>
  <unicode hex="0027"/>
  <outline>
    <contour>
      <point x="117.81818181818181" y="777.2727272727273" type="line"/>
      <point x="150.54545454545453" y="777.2727272727273" type="line"/>
      <point x="150.54545454545453" y="1055.4545454545453" type="line"/>
      <point x="117.81818181818181" y="1055.4545454545453" type="line"/>
    </contour>
  </outline>
</glyph>
<glyph name="parenleft" format="2">
  <advance width="366.40971558149255"/>
  <unicode hex="0028"/>
  <outline>
    <contour>
      <point x="324.95517" y="-16.36364" type="line"/>
      <point x="143.31797" y="355.36174"/>
      <point x="143.31797" y="790.09281"/>
      <point x="324.95517" y="1161.81818" type="curve"/>
      <point x="288.63538" y="1161.81818" type="line"/>
      <point x="111.78802" y="789.02743"/>
      <point x="111.78821" y="356.42575"/>
      <point x="288.63593" y="-16.36364" type="curve"/>
    </contour>
  </outline>
</glyph>
<glyph name="parenright" format="2">
  <advance width="374.5440189943177"/>
  <unicode hex="0029"/>
  <outline>
    <contour>
      <point x="41.454547003905724" y="-32.72727272727273" type="curve"/>
      <point x="78.01491632208754" y="-32.72727272727273" type="line"/>
      <point x="265.38720303184" y="349.1325661019618"/>
      <point x="265.3870532182746" y="796.3229412998061"/>
      <point x="78.01446688139151" y="1178.181818181818" type="curve"/>
      <point x="41.45454545454545" y="1178.1818181818178" type="line"/>
      <point x="233.9374798712114" y="797.4928915081882"/>
      <point x="233.9374798712114" y="347.9616539463568"/>
    </contour>
  </outline>
</glyph>
<glyph name="asterisk" format="2">
  <advance width="725.055796535051"/>
  <unicode hex="002A"/>
  <outline>
    <contour>
      <point x="346.1642608642578" y="458.18182373046875" type="line"/>
      <point x="378.8915328979492" y="458.18182373046875" type="line"/>
      <point x="378.8915328979492" y="740.7482604980469" type="line"/>
      <point x="623.6012496948242" y="599.4650421142578" type="line"/>
      <point x="639.9648895263672" y="627.8076934814453" type="line"/>
      <point x="395.2551803588867" y="769.0909118652344" type="line"/>
      <point x="639.9648895263672" y="910.3741302490234" type="line"/>
      <point x="623.6012496948242" y="938.7167816162109" type="line"/>
      <point x="378.8915328979492" y="797.4335632324219" type="line"/>
      <point x="378.8915328979492" y="1080" type="line"/>
      <point x="346.1642608642578" y="1080" type="line"/>
      <point x="346.1642608642578" y="797.4335632324219" type="line"/>
      <point x="101.45455169677734" y="938.7167816162109" type="line"/>
      <point x="85.09091186523438" y="910.3741302490234" type="line"/>
      <point x="329.80062103271484" y="769.0909118652344" type="line"/>
      <point x="85.09091186523438" y="627.8076934814453" type="line"/>
      <point x="101.45455169677734" y="599.4650421142578" type="line"/>
      <point x="346.1642608642578" y="740.7482604980469" type="line"/>
    </contour>
  </outline>
</glyph>
<glyph name="plus" format="2">
  <advance width="991.6363636363635"/>
  <unicode hex="002B"/>
  <outline>
    <contour>
      <point x="119.45455169677734" y="469.0909118652344" type="line"/>
      <point x="479.45455169677734" y="469.0909118652344" type="line"/>
      <point x="479.45455169677734" y="109.09091186523438" type="line"/>
      <point x="512.1818237304688" y="109.09091186523438" type="line"/>
      <point x="512.1818237304688" y="469.0909118652344" type="line"/>
      <point x="872.1818237304688" y="469.0909118652344" type="line"/>
      <point x="872.1818237304688" y="501.81817626953125" type="line"/>
      <point x="512.1818237304688" y="501.81817626953125" type="line"/>
      <point x="512.1818237304688" y="861.8181762695312" type="line"/>
      <point x="479.45455169677734" y="861.8181762695312" type="line"/>
      <point x="479.45455169677734" y="501.81817626953125" type="line"/>
      <point x="119.45455169677734" y="501.81817626953125" type="line"/>
    </contour>
  </outline>
</glyph>
<glyph name="comma" format="2">
  <advance width="325.4424377436213"/>
  <unicode hex="002C"/>
  <outline>
    <contour>
      <point x="107.97901153564453" y="-225" type="line"/>
      <point x="172.30262984483113" y="-113.58824078986794"/>
      <point x="185.80607138659323" y="-6.36696220454489"/>
      <point x="185.80606961387804" y="85.45455" type="curve"/>
      <point x="185.80606842041016" y="147.2727279663086" type="line"/>
      <point x="153.07879638671875" y="147.2727279663086" type="line"/>
      <point x="153.07879638671875" y="85.45455169677734" type="line"/>
      <point x="153.07879638671875" y="-2.3296314106276412"/>
      <point x="140.41408645059903" y="-103.36627233617577"/>
      <point x="79.63636" y="-208.63636" type="curve"/>
    </contour>
  </outline>
</glyph>
<glyph name="hyphen" format="2">
  <advance width="677.6590909090908"/>
  <unicode hex="002D"/>
  <outline>
    <contour>
      <point x="119.45455" y="469.09091" type="line"/>
      <point x="558.20455" y="469.09091" type="line"/>
      <point x="558.20455" y="501.81818" type="line"/>
      <point x="119.45455" y="501.81818" type="line"/>
    </contour>
  </outline>
</glyph>
<glyph name="period" format="2">
  <advance width="314.1818181818182"/>
  <unicode hex="002E"/>
  <outline>
    <contour>
      <point x="212.72727" y="40.63636" type="curve" smooth="yes"/>
      <point x="212.72727" y="71.34291"/>
      <point x="187.79745" y="96.27273"/>
      <point x="157.09091" y="96.27273" type="curve" smooth="yes"/>
      <point x="126.38436" y="96.27273"/>
      <point x="101.45455" y="71.34291"/>
      <point x="101.45455" y="40.63636" type="curve" smooth="yes"/>
      <point x="101.45455" y="9.92982"/>
      <point x="126.38436" y="-15.0"/>
      <point x="157.09091" y="-15.0" type="curve" smooth="yes"/>
      <point x="187.79745" y="-15.0"/>
      <point x="212.72727" y="9.92982"/>
    </contour>
  </outline>
</glyph>
<glyph name="slash" format="2">
  <advance width="684.7372823238975"/>
  <unicode hex="002F"/>
  <outline>
    <contour>
      <point x="119.45455" y="-65.45455" type="line"/>
      <point x="154.28218" y="-65.45455" type="line"/>
      <point x="614.37365" y="1198.63636" type="line"/>
      <point x="579.54601" y="1198.63636" type="line"/>
    </contour>
  </outline>
</glyph>
<glyph name="zero" format="2">
  <advance width="906.5454545454546"/>
  <unicode hex="0030"/>
  <outline>
    <contour>
      <point x="772.3636398481249" y="376.81817626953125" type="line"/>
      <point x="772.3636397320971" y="96.92798069917973"/>
      <point x="581.0480006075741" y="17.72727"/>
      <point x="453.27273" y="17.72727" type="curve" smooth="yes"/>
      <point x="325.4974593924259" y="17.727270000000015"/>
      <point x="134.18181779777814" y="96.92798442964846"/>
      <point x="134.18182036720495" y="376.81818" type="curve"/>
      <point x="134.1818233632638" y="703.1818237304688" type="line"/>
      <point x="134.18182593269057" y="983.0720193008203"/>
      <point x="325.4974593924259" y="1062.27273"/>
      <point x="453.27273" y="1062.27273" type="curve" smooth="yes"/>
      <point x="581.0480006075741" y="1062.27273"/>
      <point x="772.3636400994459" y="983.0720155703516"/>
      <point x="772.3636399834181" y="703.18182" type="curve"/>
    </contour>
    <contour>
      <point x="101.45455152975676" y="376.81817626953125" type="line"/>
      <point x="101.45455278143073" y="77.0529787080115"/>
      <point x="309.3799173275626" y="-14.999999999999982"/>
      <point x="453.27273" y="-15.0" type="curve" smooth="yes"/>
      <point x="597.1655426724374" y="-15.0"/>
      <point x="805.0909088076617" y="77.05298243848023"/>
      <point x="805.0909101836025" y="376.81818" type="curve"/>
      <point x="805.090911681632" y="703.1818237304688" type="line"/>
      <point x="805.0909130575727" y="1002.9470212919884"/>
      <point x="597.1655426724374" y="1095.0"/>
      <point x="453.27273" y="1095.0" type="curve" smooth="yes"/>
      <point x="309.3799173275626" y="1095.0"/>
      <point x="101.45454891534665" y="1002.9470175615197"/>
      <point x="101.45455016702059" y="703.18182" type="curve"/>
    </contour>
  </outline>
</glyph>
<glyph name="one" format="2">
  <advance width="524.7272727272727"/>
  <unicode hex="0031"/>
  <outline>
    <contour>
      <point x="308.7272720336914" y="0" type="line"/>
      <point x="341.4545440673828" y="0" type="line"/>
      <point x="341.4545440673828" y="1080" type="line"/>
      <point x="308.7272720336914" y="1080" type="line"/>
      <point x="112.36363983154297" y="966.6294021606445" type="line"/>
      <point x="112.36363983154297" y="928.8392028808594" type="line"/>
      <point x="308.7272720336914" y="1042.2098007202148" type="line"/>
    </contour>
  </outline>
</glyph>
<glyph name="two" format="2">
  <advance width="890.1818181818181"/>
  <unicode hex="0032"/>
  <outline>
    <contour>
      <point x="112.36363983154297" y="0" type="line"/>
      <point x="783.2727279663086" y="0" type="line"/>
      <point x="783.2727279663086" y="32.727272033691406" type="line"/>
      <point x="160.34716796875" y="32.727272033691406" type="line"/>
      <point x="647.3635176583505" y="486.94425786701487" type="line"/>
      <point x="714.6835796515081" y="549.730477804258"/>
      <point x="783.27273" y="630.5714513010005"/>
      <point x="783.27273" y="759.54545" type="curve"/>
      <point x="783.27273" y="944.6878600000001"/>
      <point x="632.96058" y="1095.0"/>
      <point x="447.81818" y="1095.0" type="curve" smooth="yes"/>
      <point x="262.67578" y="1095.0"/>
      <point x="112.36364" y="944.68786"/>
      <point x="112.36364" y="759.54545" type="curve"/>
      <point x="145.09091186523438" y="759.5454483032227" type="line"/>
      <point x="145.09091" y="926.62518"/>
      <point x="280.73845" y="1062.27273"/>
      <point x="447.81818" y="1062.27273" type="curve" smooth="yes"/>
      <point x="614.8979100000001" y="1062.27273"/>
      <point x="750.54545" y="926.6251800000001"/>
      <point x="750.54545" y="759.54545" type="curve"/>
      <point x="750.54545" y="643.919931294015"/>
      <point x="689.6126308913344" y="571.0999646849805"/>
      <point x="625.041806387741" y="510.8778262436632" type="curve"/>
      <point x="112.36363983154297" y="32.727272033691406" type="line"/>
    </contour>
  </outline>
</glyph>
<glyph name="three" format="2">
  <advance width="901.0909090909091"/>
  <unicode hex="0033"/>
  <outline>
    <contour>
      <point x="101.45455169677734" y="279.7345275878906" type="line"/>
      <point x="101.45455" y="116.89677"/>
      <point x="258.73098" y="-15.0"/>
      <point x="453.27273" y="-15.0" type="curve" smooth="yes"/>
      <point x="647.81448" y="-15.0"/>
      <point x="805.09091" y="116.89677"/>
      <point x="805.09091" y="279.73453" type="curve"/>
      <point x="805.09091" y="409.15521340608"/>
      <point x="705.7425320099031" y="519.0310917202095"/>
      <point x="567.2971343994141" y="558.6698379516602" type="curve"/>
      <point x="693.4599891143595" y="597.5341453769861"/>
      <point x="783.27273" y="699.09993375608"/>
      <point x="783.2727299999999" y="818.3708900000001" type="curve"/>
      <point x="783.27273" y="971.22516"/>
      <point x="635.76199" y="1095.0"/>
      <point x="453.27273" y="1095.0" type="curve" smooth="yes"/>
      <point x="270.78347" y="1095.0"/>
      <point x="123.27273" y="971.22516"/>
      <point x="123.27273" y="818.37089" type="curve"/>
      <point x="156" y="818.3708877563477" type="line"/>
      <point x="156.0" y="952.84189"/>
      <point x="289.03015" y="1062.27273"/>
      <point x="453.27273" y="1062.27273" type="curve" smooth="yes"/>
      <point x="617.51531" y="1062.27273"/>
      <point x="750.54545" y="952.84189"/>
      <point x="750.54545" y="818.37089" type="curve"/>
      <point x="750.54545" y="683.8999"/>
      <point x="617.51531" y="574.46906"/>
      <point x="453.27273" y="574.46906" type="curve"/>
      <point x="387.81817626953125" y="574.4690628051758" type="line"/>
      <point x="387.81817626953125" y="541.7417907714844" type="line"/>
      <point x="453.2727279663086" y="541.7417907714844" type="line"/>
      <point x="629.56829" y="541.74179"/>
      <point x="772.36364" y="424.18883"/>
      <point x="772.36364" y="279.73453" type="curve"/>
      <point x="772.36364" y="135.28023"/>
      <point x="629.56829" y="17.72727"/>
      <point x="453.27273" y="17.72727" type="curve" smooth="yes"/>
      <point x="276.97717" y="17.72727"/>
      <point x="134.18182" y="135.28023"/>
      <point x="134.18182" y="279.73453" type="curve"/>
    </contour>
  </outline>
</glyph>
<glyph name="four" format="2">
  <advance width="953.4545454545454"/>
  <unicode hex="0034"/>
  <outline>
    <contour>
      <point x="138.53462982177734" y="323.18182373046875" type="line"/>
      <point x="660.233772277832" y="1019.2924880981445" type="line"/>
      <point x="660.233772277832" y="323.18182373046875" type="line"/>
    </contour>
    <contour>
      <point x="97.63636016845703" y="290.45455169677734" type="line"/>
      <point x="660.233772277832" y="290.45455169677734" type="line"/>
      <point x="660.233772277832" y="0" type="line"/>
      <point x="692.9610366821289" y="0" type="line"/>
      <point x="692.9610366821289" y="290.45455169677734" type="line"/>
      <point x="888.5454483032227" y="290.45455169677734" type="line"/>
      <point x="888.5454483032227" y="323.18182373046875" type="line"/>
      <point x="692.9610366821289" y="323.18182373046875" type="line"/>
      <point x="692.9610366821289" y="1073.863639831543" type="line"/>
      <point x="660.233772277832" y="1073.863639831543" type="line"/>
      <point x="97.63636016845703" y="323.18182373046875" type="line"/>
    </contour>
  </outline>
</glyph>
<glyph name="five" format="2">
  <advance width="881.258114901456"/>
  <unicode hex="0035"/>
  <outline>
    <contour>
      <point x="114.78092193603516" y="467" type="line"/>
      <point x="151.93592071533203" y="467" type="line"/>
      <point x="201.76538" y="576.36091"/>
      <point x="312.05919" y="652.45455"/>
      <point x="439.98539" y="652.45455" type="curve" smooth="yes"/>
      <point x="614.59123" y="652.45455"/>
      <point x="756.34902" y="510.69676000000004"/>
      <point x="756.34902" y="336.09091" type="curve"/>
      <point x="756.34902" y="157.87252999999993"/>
      <point x="611.6583100000001" y="19.72727"/>
      <point x="433.43993" y="19.72727" type="curve"/>
      <point x="302.25053" y="19.72727"/>
      <point x="189.22866" y="94.5836"/>
      <point x="138.71476" y="205.18182" type="curve"/>
      <point x="103.09091186523438" y="205.18182373046875" type="line"/>
      <point x="155.51764" y="75.88796"/>
      <point x="283.73912" y="-13.0"/>
      <point x="433.43993" y="-13.0" type="curve"/>
      <point x="629.72098" y="-13.0"/>
      <point x="789.0763" y="139.8098599999999"/>
      <point x="789.0763" y="336.09091" type="curve"/>
      <point x="789.0763" y="528.7594300000001"/>
      <point x="632.6539000000001" y="685.18182"/>
      <point x="439.98539" y="685.18182" type="curve" smooth="yes"/>
      <point x="325.5653859708" y="685.18182"/>
      <point x="223.92871021723857" y="630.0145690976419"/>
      <point x="160.24585723876953" y="544.8467102050781" type="curve"/>
      <point x="238.85040283203125" y="1041.136360168457" type="line"/>
      <point x="745.8086166381836" y="1041.136360168457" type="line"/>
      <point x="745.8086166381836" y="1073.863639831543" type="line"/>
      <point x="210.898681640625" y="1073.863639831543" type="line"/>
    </contour>
  </outline>
</glyph>
<glyph name="six" format="2">
  <advance width="882.5454545454545"/>
  <unicode hex="0036"/>
  <outline>
    <contour>
      <point x="801.27273" y="347.0" type="curve" smooth="yes"/>
      <point x="801.27273" y="545.68941"/>
      <point x="639.96213" y="707.0"/>
      <point x="441.27273" y="707.0" type="curve" smooth="yes"/>
      <point x="375.99292696568" y="707.0"/>
      <point x="314.7480336109838" y="689.5870998330919"/>
      <point x="261.9333801269531" y="659.1557693481445" type="curve"/>
      <point x="557.7416229248047" y="1073.863639831543" type="line"/>
      <point x="517.5418319702148" y="1073.863639831543" type="line"/>
      <point x="159.8218283565478" y="572.3235127435833" type="line"/>
      <point x="127.39740322190013" y="526.8629566144713"/>
      <point x="81.27272999999998" y="453.96884500298063"/>
      <point x="81.27273" y="347.0000000000001" type="curve" smooth="yes"/>
      <point x="81.27273000000001" y="148.31060000000002"/>
      <point x="242.58332999999993" y="-12.999999999999975"/>
      <point x="441.27273" y="-13.0" type="curve" smooth="yes"/>
      <point x="639.96213" y="-13.0"/>
      <point x="801.27273" y="148.31059"/>
    </contour>
    <contour>
      <point x="768.54545" y="347.0" type="curve" smooth="yes"/>
      <point x="768.54545" y="166.37327"/>
      <point x="621.89946" y="19.72727"/>
      <point x="441.27273" y="19.72727" type="curve" smooth="yes"/>
      <point x="260.64599" y="19.72727"/>
      <point x="114.0" y="166.37327"/>
      <point x="114.0" y="347.0" type="curve" smooth="yes"/>
      <point x="114.0" y="527.62673"/>
      <point x="260.64599" y="674.27273"/>
      <point x="441.27273" y="674.27273" type="curve" smooth="yes"/>
      <point x="621.89946" y="674.27273"/>
      <point x="768.54545" y="527.62673"/>
    </contour>
  </outline>
</glyph>
<glyph name="seven" format="2">
  <advance width="819.2727272727271"/>
  <unicode hex="0037"/>
  <outline>
    <contour>
      <point x="276" y="0" type="line"/>
      <point x="311.4222412109375" y="0" type="line"/>
      <point x="745.0909118652344" y="1047.2727279663086" type="line"/>
      <point x="745.0909118652344" y="1080" type="line"/>
      <point x="74.18182373046875" y="1080" type="line"/>
      <point x="74.18182373046875" y="1047.2727279663086" type="line"/>
      <point x="709.6686706542969" y="1047.2727279663086" type="line"/>
    </contour>
  </outline>
</glyph>
<glyph name="eight" format="2">
  <advance width="915.2727272727273"/>
  <unicode hex="0038"/>
  <outline>
    <contour>
      <point x="817.63636" y="283.48693" type="curve" smooth="yes"/>
      <point x="817.63636" y="414.11839126056"/>
      <point x="715.3809131984675" y="524.8992864111724"/>
      <point x="573.027946472168" y="564.4485626220703" type="curve"/>
      <point x="696.9519516098677" y="602.8527397787784"/>
      <point x="784.90909" y="701.38578059992"/>
      <point x="784.90909" y="817.05511" type="curve" smooth="yes"/>
      <point x="784.90909" y="966.2056"/>
      <point x="638.6631" y="1086.86364"/>
      <point x="457.63636" y="1086.86364" type="curve" smooth="yes"/>
      <point x="276.60962" y="1086.86364"/>
      <point x="130.36364" y="966.2056"/>
      <point x="130.36364" y="817.05511" type="curve" smooth="yes"/>
      <point x="130.36364" y="701.38413994464"/>
      <point x="218.32326756373024" y="602.8499445943482"/>
      <point x="342.25028228759766" y="564.4515075683594" type="curve"/>
      <point x="199.8946286799662" y="524.9023435361033"/>
      <point x="97.63636000000005" y="414.12019372474"/>
      <point x="97.63636000000011" y="283.48693000000003" type="curve" smooth="yes"/>
      <point x="97.63636" y="119.62656"/>
      <point x="258.52997" y="-13.0"/>
      <point x="457.63636" y="-13.0" type="curve" smooth="yes"/>
      <point x="656.74275" y="-13.0"/>
      <point x="817.63636" y="119.62656"/>
    </contour>
    <contour>
      <point x="752.18182" y="817.05511" type="curve" smooth="yes"/>
      <point x="752.18182" y="686.35722"/>
      <point x="620.38442" y="579.97386"/>
      <point x="457.63636" y="579.97386" type="curve" smooth="yes"/>
      <point x="294.88831" y="579.97386"/>
      <point x="163.09091" y="686.35722"/>
      <point x="163.09091" y="817.05511" type="curve" smooth="yes"/>
      <point x="163.09091" y="947.75301"/>
      <point x="294.88831" y="1054.13636"/>
      <point x="457.63636" y="1054.13636" type="curve" smooth="yes"/>
      <point x="620.38442" y="1054.13636"/>
      <point x="752.18182" y="947.75301"/>
    </contour>
    <contour>
      <point x="784.90909" y="283.48693" type="curve" smooth="yes"/>
      <point x="784.90909" y="138.08066"/>
      <point x="638.44371" y="19.72727"/>
      <point x="457.63636" y="19.72727" type="curve" smooth="yes"/>
      <point x="276.82902" y="19.72727"/>
      <point x="130.36364" y="138.08066"/>
      <point x="130.36364" y="283.48693" type="curve" smooth="yes"/>
      <point x="130.36364" y="428.89321"/>
      <point x="276.82902" y="547.24659"/>
      <point x="457.63636" y="547.24659" type="curve" smooth="yes"/>
      <point x="638.44371" y="547.24659"/>
      <point x="784.90909" y="428.89321"/>
    </contour>
  </outline>
</glyph>
<glyph name="nine" format="2">
  <advance width="882.5454545454545"/>
  <unicode hex="0039"/>
  <outline>
    <contour>
      <point x="801.2727299999999" y="726.86364" type="curve" smooth="yes"/>
      <point x="801.27273" y="925.5530400000001"/>
      <point x="639.9621300000001" y="1086.86364"/>
      <point x="441.27273" y="1086.86364" type="curve" smooth="yes"/>
      <point x="242.58332" y="1086.86364"/>
      <point x="81.27273" y="925.55304"/>
      <point x="81.27273" y="726.86364" type="curve" smooth="yes"/>
      <point x="81.27273" y="528.17423"/>
      <point x="242.58332" y="366.86364"/>
      <point x="441.27273" y="366.86364" type="curve" smooth="yes"/>
      <point x="506.5525297488" y="366.86364"/>
      <point x="567.7974219769045" y="384.2765401669081"/>
      <point x="620.6120758056641" y="414.70787048339844" type="curve"/>
      <point x="324.8038330078125" y="0" type="line"/>
      <point x="365.0036163330078" y="0" type="line"/>
      <point x="722.7236198332612" y="501.5401195394567" type="line"/>
      <point x="755.1480452845547" y="547.0006754427231"/>
      <point x="801.27273" y="619.8947949970195"/>
    </contour>
    <contour>
      <point x="768.54545" y="726.86364" type="curve" smooth="yes"/>
      <point x="768.54545" y="546.2369"/>
      <point x="621.89946" y="399.59091"/>
      <point x="441.27273" y="399.59091" type="curve" smooth="yes"/>
      <point x="260.64599" y="399.59091"/>
      <point x="114.0" y="546.2369"/>
      <point x="114.0" y="726.86364" type="curve" smooth="yes"/>
      <point x="114.0" y="907.49037"/>
      <point x="260.64599" y="1054.13636"/>
      <point x="441.27273" y="1054.13636" type="curve" smooth="yes"/>
      <point x="621.89946" y="1054.13636"/>
      <point x="768.54545" y="907.49037"/>
    </contour>
  </outline>
</glyph>
<glyph name="colon" format="2">
  <advance width="314.1818181818182"/>
  <unicode hex="003A"/>
  <outline>
    <contour>
      <point x="212.72727" y="712.09091" type="curve" smooth="yes"/>
      <point x="212.72727" y="742.79745"/>
      <point x="187.79745" y="767.72727"/>
      <point x="157.09091" y="767.72727" type="curve" smooth="yes"/>
      <point x="126.38436" y="767.72727"/>
      <point x="101.45455" y="742.79745"/>
      <point x="101.45455" y="712.09091" type="curve" smooth="yes"/>
      <point x="101.45455" y="681.38436"/>
      <point x="126.38436" y="656.45455"/>
      <point x="157.09091" y="656.45455" type="curve" smooth="yes"/>
      <point x="187.79745" y="656.45455"/>
      <point x="212.72727" y="681.38436"/>
    </contour>
    <contour>
      <point x="212.72727" y="40.63636" type="curve" smooth="yes"/>
      <point x="212.72727" y="71.34291"/>
      <point x="187.79745" y="96.27273"/>
      <point x="157.09091" y="96.27273" type="curve" smooth="yes"/>
      <point x="126.38436" y="96.27273"/>
      <point x="101.45455" y="71.34291"/>
      <point x="101.45455" y="40.63636" type="curve" smooth="yes"/>
      <point x="101.45455" y="9.92982"/>
      <point x="126.38436" y="-15.0"/>
      <point x="157.09091" y="-15.0" type="curve" smooth="yes"/>
      <point x="187.79745" y="-15.0"/>
      <point x="212.72727" y="9.92982"/>
    </contour>
  </outline>
</glyph>
<glyph name="semicolon" format="2">
  <advance width="329.82181419618513"/>
  <unicode hex="003B"/>
  <outline>
    <contour>
      <point x="228.36726874163966" y="712.090909090909" type="curve" smooth="yes"/>
      <point x="228.36726874163966" y="742.7974538399999"/>
      <point x="203.43744985436695" y="767.7272727272726"/>
      <point x="172.730905105276" y="767.7272727272726" type="curve" smooth="yes"/>
      <point x="142.0243603561851" y="767.7272727272726"/>
      <point x="117.09454146891238" y="742.7974538399999"/>
      <point x="117.09454146891238" y="712.090909090909" type="curve" smooth="yes"/>
      <point x="117.09454146891238" y="681.3843643418181"/>
      <point x="142.0243603561851" y="656.4545454545454"/>
      <point x="172.730905105276" y="656.4545454545454" type="curve" smooth="yes"/>
      <point x="203.43744985436692" y="656.4545454545454"/>
      <point x="228.36726874163966" y="681.3843643418181"/>
    </contour>
    <contour>
      <point x="107.97901153564453" y="-237.2727279663086" type="line"/>
      <point x="161.118748604585" y="-145.23200567679027"/>
      <point x="189.09454146891238" y="-40.82492532509769"/>
      <point x="189.09454146891238" y="65.45454545454545" type="curve"/>
      <point x="189.09454345703125" y="147.2727279663086" type="line"/>
      <point x="156.36727142333984" y="147.2727279663086" type="line"/>
      <point x="156.36727142333984" y="65.45454406738281" type="line"/>
      <point x="156.36726874163963" y="-35.08008906673865"/>
      <point x="129.90368089700564" y="-133.8435434534748"/>
      <point x="79.63636363636363" y="-220.90909090909082" type="curve"/>
    </contour>
  </outline>
</glyph>
<glyph name="less" format="2">
  <advance width="988.3636363636363"/>
  <unicode hex="003C"/>
  <outline>
    <contour>
      <point x="117.81817626953125" y="503.57688903808594" type="line"/>
      <point x="117.81817626953125" y="467.3321990966797" type="line"/>
      <point x="870.5454483032227" y="109.09091186523438" type="line"/>
      <point x="870.5454483032227" y="145.33558654785156" type="line"/>
      <point x="155.89637756347656" y="485.4545440673828" type="line"/>
      <point x="870.5454483032227" y="825.5735015869141" type="line"/>
      <point x="870.5454483032227" y="861.8181762695312" type="line"/>
    </contour>
  </outline>
</glyph>
<glyph name="equal" format="2">
  <advance width="988.3636363636363"/>
  <unicode hex="003D"/>
  <outline>
    <contour>
      <point x="117.81818181818181" y="583.6363636363636" type="line"/>
      <point x="870.5454545454545" y="583.6363636363636" type="line"/>
      <point x="870.5454545454545" y="616.3636363636364" type="line"/>
      <point x="117.81818181818181" y="616.3636363636364" type="line"/>
    </contour>
    <contour>
      <point x="117.81818181818181" y="354.5454545454545" type="line"/>
      <point x="870.5454545454545" y="354.5454545454545" type="line"/>
      <point x="870.5454545454545" y="387.27272727272725" type="line"/>
      <point x="117.81818181818181" y="387.27272727272725" type="line"/>
    </contour>
  </outline>
</glyph>
<glyph name="greater" format="2">
  <advance width="930.2088068181818"/>
  <unicode hex="003E"/>
  <outline>
    <contour>
      <point x="119.45455169677734" y="109.09091186523438" type="line"/>
      <point x="810.7542572021484" y="469.0909118652344" type="line"/>
      <point x="810.7542572021484" y="501.81817626953125" type="line"/>
      <point x="119.45455169677734" y="861.8181762695312" type="line"/>
      <point x="119.45455169677734" y="824.9641723632812" type="line"/>
      <point x="771.4070587158203" y="485.45455169677734" type="line"/>
      <point x="119.45455169677734" y="145.9449234008789" type="line"/>
    </contour>
  </outline>
</glyph>
<glyph name="question" format="2">
  <advance width="792.0"/>
  <unicode hex="003F"/>
  <outline>
    <contour>
      <point x="379.63636016845703" y="259.9090881347656" type="line"/>
      <point x="412.36363983154297" y="259.9090881347656" type="line"/>
      <point x="412.36363983154297" y="473.60848236083984" type="line"/>
      <point x="576.3653100362874" y="482.1273020391203"/>
      <point x="706.9090909090909" y="617.9843339315463"/>
      <point x="706.9090909090909" y="784.090909090909" type="curve"/>
      <point x="706.9090909090909" y="955.6863062181818"/>
      <point x="567.5953971272727" y="1095.0"/>
      <point x="395.99999999999994" y="1095.0" type="curve" smooth="yes"/>
      <point x="224.40460287272725" y="1095.0"/>
      <point x="85.09090909090908" y="955.6863062181818"/>
      <point x="85.09090909090908" y="784.090909090909" type="curve"/>
      <point x="117.81818389892578" y="784.0909118652344" type="line"/>
      <point x="117.81818181818181" y="937.6236328363635"/>
      <point x="242.46727625454542" y="1062.2727272727273"/>
      <point x="395.99999999999994" y="1062.2727272727273" type="curve" smooth="yes"/>
      <point x="549.5327237454545" y="1062.2727272727273"/>
      <point x="674.1818181818181" y="937.6236328363635"/>
      <point x="674.1818181818181" y="784.090909090909" type="curve"/>
      <point x="674.1818181818181" y="630.5581853454545"/>
      <point x="549.5327237454545" y="505.9090909090909"/>
      <point x="395.99999999999994" y="505.9090909090909" type="curve"/>
      <point x="379.63636016845703" y="505.9090881347656" type="line"/>
    </contour>
    <contour>
      <point x="451.63636363636357" y="40.63636363636363" type="curve" smooth="yes"/>
      <point x="451.63636363636357" y="71.34290838545455"/>
      <point x="426.7065447490908" y="96.27272727272727"/>
      <point x="395.99999999999994" y="96.27272727272727" type="curve" smooth="yes"/>
      <point x="365.29345525090906" y="96.27272727272727"/>
      <point x="340.3636363636363" y="71.34290838545455"/>
      <point x="340.3636363636363" y="40.63636363636363" type="curve" smooth="yes"/>
      <point x="340.3636363636363" y="9.92981888727273"/>
      <point x="365.293455250909" y="-14.999999999999998"/>
      <point x="395.99999999999994" y="-14.999999999999998" type="curve" smooth="yes"/>
      <point x="426.7065447490908" y="-15.000000000000007"/>
      <point x="451.63636363636357" y="9.929818887272711"/>
    </contour>
  </outline>
</glyph>
<glyph name="at" format="2">
  <advance width="1412.3181818181818"/>
  <unicode hex="0040"/>
  <outline>
    <contour>
      <point x="1004.391227722168" y="303.0145835876465" type="line"/>
      <point x="1004.391227722168" y="198.0166516229345"/>
      <point x="1076.1886615750177" y="138.65422"/>
      <point x="1148.76745" y="138.65422" type="curve"/>
      <point x="1246.04631" y="138.65422"/>
      <point x="1325.59091" y="285.3926399999999"/>
      <point x="1325.59091" y="467.43182" type="curve"/>
      <point x="1325.59091" y="809.3055400000001"/>
      <point x="1048.0328200000001" y="1086.86364"/>
      <point x="706.15909" y="1086.86364" type="curve" smooth="yes"/>
      <point x="364.28537" y="1086.86364"/>
      <point x="86.72727" y="809.30554"/>
      <point x="86.72727" y="467.43182" type="curve" smooth="yes"/>
      <point x="86.72727" y="125.55809"/>
      <point x="364.28537" y="-152.0"/>
      <point x="706.15909" y="-152.0" type="curve" smooth="yes"/>
      <point x="881.78065" y="-152.0"/>
      <point x="1040.42991" y="-78.75498"/>
      <point x="1153.19926" y="38.83604" type="curve"/>
      <point x="1106.6491394042969" y="38.836036682128906" type="line"/>
      <point x="1001.76782" y="-59.2211"/>
      <point x="860.92102" y="-119.27273"/>
      <point x="706.15909" y="-119.27273" type="curve" smooth="yes"/>
      <point x="382.34804" y="-119.27273"/>
      <point x="119.45455" y="143.62077"/>
      <point x="119.45455" y="467.43182" type="curve" smooth="yes"/>
      <point x="119.45455" y="791.24287"/>
      <point x="382.34804" y="1054.13636"/>
      <point x="706.15909" y="1054.13636" type="curve" smooth="yes"/>
      <point x="1029.9701400000001" y="1054.13636"/>
      <point x="1292.86364" y="791.2428700000003"/>
      <point x="1292.86364" y="467.43182" type="curve" smooth="yes"/>
      <point x="1292.86364" y="322.9895199125761"/>
      <point x="1236.8527902810356" y="171.38149"/>
      <point x="1148.76745" y="171.38149" type="curve"/>
      <point x="1111.744111932584" y="171.38149"/>
      <point x="1037.1185105398536" y="194.05203015143067"/>
      <point x="1037.118509906406" y="313.0127424696241" type="curve"/>
      <point x="1037.118507385254" y="786.4821395874023" type="line"/>
      <point x="1004.391227722168" y="786.4821395874023" type="line"/>
      <point x="1004.391227722168" y="606.1922836303711" type="line"/>
      <point x="949.966524382759" y="720.4465456032697"/>
      <point x="833.40166921404" y="799.4821400000001"/>
      <point x="698.5227299999999" y="799.48214" type="curve" smooth="yes"/>
      <point x="511.64663" y="799.48214"/>
      <point x="359.92695" y="647.76246"/>
      <point x="359.92695" y="460.88636" type="curve" smooth="yes"/>
      <point x="359.92695" y="274.01027"/>
      <point x="511.64663" y="122.29058"/>
      <point x="698.52273" y="122.29058" type="curve" smooth="yes"/>
      <point x="833.40166921404" y="122.29058"/>
      <point x="949.966524382759" y="201.32617960604762"/>
      <point x="1004.391227722168" y="315.5932846069336" type="curve"/>
    </contour>
    <contour>
      <point x="1004.39123" y="460.88636" type="curve" smooth="yes"/>
      <point x="1004.39123" y="292.07294"/>
      <point x="867.33615" y="155.01786"/>
      <point x="698.52273" y="155.01786" type="curve" smooth="yes"/>
      <point x="529.7093" y="155.01786"/>
      <point x="392.65422" y="292.07294"/>
      <point x="392.65422" y="460.88636" type="curve" smooth="yes"/>
      <point x="392.65422" y="629.69979"/>
      <point x="529.7093" y="766.75487"/>
      <point x="698.52273" y="766.75487" type="curve" smooth="yes"/>
      <point x="867.33615" y="766.75487"/>
      <point x="1004.39123" y="629.69979"/>
    </contour>
  </outline>
</glyph>
<glyph name="A" format="2">
  <advance width="1021.0909090910177"/>
  <unicode hex="0041"/>
  <anchor x="510.5454545454545" y="1210.9090909090908" name="above" identifier="above"/>
  <anchor x="510.5454545454545" y="-130.9090909090909" name="below" identifier="below"/>
  <anchor x="1001.4545454545454" y="0" name="ogonek" identifier="ogonek"/>
  <outline>
    <contour>
      <point x="19.63636016845703" y="0" type="line"/>
      <point x="55.36531066894531" y="0" type="line"/>
      <point x="221.23809814453125" y="378.70130157470703" type="line"/>
      <point x="799.8528060913086" y="378.70130157470703" type="line"/>
      <point x="965.7256011962891" y="0" type="line"/>
      <point x="1001.4545516967773" y="0" type="line"/>
      <point x="528.4099273681641" y="1080" type="line"/>
      <point x="492.6809768676758" y="1080" type="line"/>
    </contour>
    <contour>
      <point x="235.57278442382812" y="411.42857360839844" type="line"/>
      <point x="510.5454559326172" y="1039.2139282226562" type="line"/>
      <point x="785.5181274414062" y="411.42857360839844" type="line"/>
    </contour>
  </outline>
</glyph>
<glyph name="B" format="2">
  <advance width="972.0"/>
  <unicode hex="0042"/>
  <outline>
    <contour>
      <point x="117.81818389892578" y="0" type="line"/>
      <point x="625.0909118652344" y="0" type="line"/>
      <point x="778.6236328363636" y="0.0"/>
      <point x="903.2727272727273" y="124.64909443636364"/>
      <point x="903.2727272727273" y="278.1818181818182" type="curve" smooth="yes"/>
      <point x="903.2727272727273" y="409.0067450198725"/>
      <point x="812.7686344262852" y="518.8601061955166"/>
      <point x="691.0090179443359" y="548.4853744506836" type="curve"/>
      <point x="787.2229353479809" y="592.2779194311872"/>
      <point x="854.1818181818181" y="689.2902102670445"/>
      <point x="854.181818181818" y="801.8181818181818" type="curve" smooth="yes"/>
      <point x="854.181818181818" y="955.3509055636363"/>
      <point x="729.5327237454544" y="1080.0"/>
      <point x="576.0" y="1080.0" type="curve"/>
      <point x="117.81818389892578" y="1080" type="line"/>
    </contour>
    <contour>
      <point x="576" y="1047.2727279663086" type="line"/>
      <point x="711.4700503636363" y="1047.2727272727273"/>
      <point x="821.4545454545455" y="937.2882321818181"/>
      <point x="821.4545454545455" y="801.8181818181818" type="curve" smooth="yes"/>
      <point x="821.4545454545455" y="666.3481314545454"/>
      <point x="711.4700503636363" y="556.3636363636364"/>
      <point x="576.0" y="556.3636363636364" type="curve"/>
      <point x="150.5454559326172" y="556.363639831543" type="line"/>
      <point x="150.5454559326172" y="1047.2727279663086" type="line"/>
    </contour>
    <contour>
      <point x="625.0909118652344" y="523.636360168457" type="line"/>
      <point x="760.5609594545454" y="523.6363636363636"/>
      <point x="870.5454545454545" y="413.65186854545453"/>
      <point x="870.5454545454545" y="278.1818181818182" type="curve" smooth="yes"/>
      <point x="870.5454545454545" y="142.7117678181818"/>
      <point x="760.5609594545454" y="32.72727272727273"/>
      <point x="625.090909090909" y="32.72727272727273" type="curve"/>
      <point x="150.5454559326172" y="32.727272033691406" type="line"/>
      <point x="150.5454559326172" y="523.636360168457" type="line"/>
    </contour>
  </outline>
</glyph>
<glyph name="C" format="2">
  <advance width="1199.1882019042966"/>
  <unicode hex="0043"/>
  <anchor x="631.2045454545454" y="1204.7727272727273" name="above" identifier="above"/>
  <anchor x="631.2045454545454" y="-130.9090909090909" name="below" identifier="below"/>
  <anchor x="631.2045454545454" y="0" name="cedilla" identifier="cedilla"/>
  <outline>
    <contour>
      <point x="631.20455" y="19.72727" type="curve" smooth="yes"/>
      <point x="345.75159" y="19.72727"/>
      <point x="114.0" y="251.47886"/>
      <point x="114.0" y="536.93182" type="curve" smooth="yes"/>
      <point x="114.0" y="822.38478"/>
      <point x="345.75159" y="1054.13636"/>
      <point x="631.20455" y="1054.13636" type="curve" smooth="yes"/>
      <point x="827.84966" y="1054.13636"/>
      <point x="999.0099" y="944.15478"/>
      <point x="1086.47662" y="782.38636" type="curve"/>
      <point x="1123.36554" y="782.38636" type="line"/>
      <point x="1033.1131" y="962.84461"/>
      <point x="846.52764" y="1086.86364"/>
      <point x="631.20455" y="1086.86364" type="curve" smooth="yes"/>
      <point x="327.68892" y="1086.86364"/>
      <point x="81.27273" y="840.44745"/>
      <point x="81.27273" y="536.93182" type="curve" smooth="yes"/>
      <point x="81.27273" y="233.41619"/>
      <point x="327.68892" y="-13.0"/>
      <point x="631.20455" y="-13.0" type="curve" smooth="yes"/>
      <point x="846.53128" y="-13.0"/>
      <point x="1033.11941" y="111.02323"/>
      <point x="1123.37002" y="291.47727" type="curve"/>
      <point x="1086.47615" y="291.47727" type="line"/>
      <point x="999.0094" y="129.70853"/>
      <point x="827.84938" y="19.72727"/>
    </contour>
  </outline>
</glyph>
<glyph name="D" format="2">
  <advance width="1113.8181818181815"/>
  <unicode hex="0044"/>
  <outline>
    <contour>
      <point x="117.81817626953125" y="0" type="line"/>
      <point x="494.18182373046875" y="0" type="line"/>
      <point x="792.21593" y="0.0"/>
      <point x="1034.18182" y="241.96589"/>
      <point x="1034.18182" y="540.0" type="curve" smooth="yes"/>
      <point x="1034.18182" y="838.03411"/>
      <point x="792.21593" y="1080.0"/>
      <point x="494.18182" y="1080.0" type="curve"/>
      <point x="117.81817626953125" y="1080" type="line"/>
    </contour>
    <contour>
      <point x="494.18182373046875" y="1047.2727279663086" type="line"/>
      <point x="774.15326" y="1047.27273"/>
      <point x="1001.45455" y="819.97144"/>
      <point x="1001.45455" y="540.0" type="curve" smooth="yes"/>
      <point x="1001.45455" y="260.02856"/>
      <point x="774.15326" y="32.72727"/>
      <point x="494.18182" y="32.72727" type="curve"/>
      <point x="150.54544830322266" y="32.727272033691406" type="line"/>
      <point x="150.54544830322266" y="1047.2727279663086" type="line"/>
    </contour>
  </outline>
</glyph>
<glyph name="E" format="2">
  <advance width="939.2727272727273"/>
  <unicode hex="0045"/>
  <anchor x="477.8181818181818" y="1210.9090909090908" name="above" identifier="above"/>
  <anchor x="477.8181818181818" y="-130.9090909090909" name="below" identifier="below"/>
  <anchor x="477.8181818181818" y="0" name="cedilla" identifier="cedilla"/>
  <anchor x="837.8181818181818" y="0" name="ogonek" identifier="ogonek"/>
  <outline>
    <contour>
      <point x="117.81817626953125" y="0" type="line"/>
      <point x="837.8181762695312" y="0" type="line"/>
      <point x="837.8181762695312" y="32.727272033691406" type="line"/>
      <point x="150.54544830322266" y="32.727272033691406" type="line"/>
      <point x="150.54544830322266" y="523.636360168457" type="line"/>
      <point x="772.363639831543" y="523.636360168457" type="line"/>
      <point x="772.363639831543" y="556.363639831543" type="line"/>
      <point x="150.54544830322266" y="556.363639831543" type="line"/>
      <point x="150.54544830322266" y="1047.2727279663086" type="line"/>
      <point x="837.8181762695312" y="1047.2727279663086" type="line"/>
      <point x="837.8181762695312" y="1080" type="line"/>
      <point x="117.81817626953125" y="1080" type="line"/>
    </contour>
  </outline>
</glyph>
<glyph name="F" format="2">
  <advance width="909.8181818181818"/>
  <unicode hex="0046"/>
  <anchor x="471.27272727272725" y="1204.7727272727273" name="above" identifier="above"/>
  <anchor x="119.45454545454544" y="0" name="hookleft" identifier="hookleft"/>
  <outline>
    <contour>
      <point x="119.45455169677734" y="0" type="line"/>
      <point x="152.18182373046875" y="0" type="line"/>
      <point x="152.18182373046875" y="515.113639831543" type="line"/>
      <point x="724.9090881347656" y="515.113639831543" type="line"/>
      <point x="724.9090881347656" y="547.8409118652344" type="line"/>
      <point x="152.18182373046875" y="547.8409118652344" type="line"/>
      <point x="152.18182373046875" y="1041.136360168457" type="line"/>
      <point x="823.0909118652344" y="1041.136360168457" type="line"/>
      <point x="823.0909118652344" y="1073.863639831543" type="line"/>
      <point x="119.45455169677734" y="1073.863639831543" type="line"/>
    </contour>
  </outline>
</glyph>
<glyph name="G" format="2">
  <advance width="1268.3160927512426"/>
  <unicode hex="0047"/>
  <outline>
    <contour>
      <point x="634.6363636363632" y="17.727272727272776" type="curve" smooth="yes"/>
      <point x="346.3862009181817" y="17.727272727272787"/>
      <point x="112.36363636363629" y="251.7498372818182"/>
      <point x="112.36363636363635" y="540.0" type="curve" smooth="yes"/>
      <point x="112.36363636363635" y="828.2501627181819"/>
      <point x="346.3862009181818" y="1062.2727272727273"/>
      <point x="634.6363636363636" y="1062.2727272727273" type="curve" smooth="yes"/>
      <point x="827.5013767593091" y="1062.2727272727273"/>
      <point x="996.0897738601581" y="957.5054845294052"/>
      <point x="1086.546211936257" y="801.8181818181818" type="curve"/>
      <point x="1124.0252304077148" y="801.8181838989258" type="line"/>
      <point x="1030.427950905305" y="976.2679456498406"/>
      <point x="846.2884250578724" y="1095.0"/>
      <point x="634.6363636363637" y="1095.0" type="curve" smooth="yes"/>
      <point x="328.3235275363637" y="1095.0"/>
      <point x="79.63636363636363" y="846.3128360999999"/>
      <point x="79.63636363636363" y="540.0" type="curve" smooth="yes"/>
      <point x="79.63636363636357" y="233.68716390000006"/>
      <point x="328.32352753636354" y="-14.99999999999994"/>
      <point x="634.6363636363635" y="-15.0" type="curve" smooth="yes"/>
      <point x="929.9295954576659" y="-15.00000000000006"/>
      <point x="1171.6687430127813" y="216.11597354034373"/>
      <point x="1188.6797291148791" y="507.27272727272725" type="curve"/>
      <point x="634.636360168457" y="507.2727279663086" type="line"/>
      <point x="634.636360168457" y="474.5454559326172" type="line"/>
      <point x="1152.8238983154297" y="474.5454559326172" type="line"/>
      <point x="1120.5266656492693" y="217.07844510982153"/>
      <point x="900.6782944127241" y="17.72727272727269"/>
    </contour>
  </outline>
</glyph>
<glyph name="H" format="2">
  <advance width="1048.9090909090908"/>
  <unicode hex="0048"/>
  <anchor x="524.4545454545454" y="1204.7727272727273" name="above" identifier="above"/>
  <anchor x="524.4545454545454" y="-130.9090909090909" name="below" identifier="below"/>
  <anchor x="135.8181818181818" y="0" name="cedilla" identifier="cedilla"/>
  <anchor x="524.4545454545454" y="813.5795454545454" name="stroke" identifier="stroke"/>
  <outline>
    <contour>
      <point x="119.45455169677734" y="0" type="line"/>
      <point x="152.18182373046875" y="0" type="line"/>
      <point x="152.18182373046875" y="520.5681762695312" type="line"/>
      <point x="896.7272720336914" y="520.5681762695312" type="line"/>
      <point x="896.7272720336914" y="0" type="line"/>
      <point x="929.4545516967773" y="0" type="line"/>
      <point x="929.4545516967773" y="1073.863639831543" type="line"/>
      <point x="896.7272720336914" y="1073.863639831543" type="line"/>
      <point x="896.7272720336914" y="553.2954483032227" type="line"/>
      <point x="152.18182373046875" y="553.2954483032227" type="line"/>
      <point x="152.18182373046875" y="1073.863639831543" type="line"/>
      <point x="119.45455169677734" y="1073.863639831543" type="line"/>
    </contour>
  </outline>
</glyph>
<glyph name="I" format="2">
  <advance width="271.6363636363636"/>
  <unicode hex="0049"/>
  <anchor x="135.8181818181818" y="1204.7727272727273" name="above" identifier="above"/>
  <anchor x="135.8181818181818" y="-130.9090909090909" name="below" identifier="below"/>
  <anchor x="152.18181818181816" y="0" name="ogonek" identifier="ogonek"/>
  <anchor x="135.8181818181818" y="536.9318181818181" name="stroke" identifier="stroke"/>
  <outline>
    <contour>
      <point x="119.45455" y="0.0" type="line"/>
      <point x="152.18182" y="0.0" type="line"/>
      <point x="152.18182" y="1073.86364" type="line"/>
      <point x="119.45455" y="1073.86364" type="line"/>
    </contour>
  </outline>
</glyph>
<glyph name="J" format="2">
  <advance width="857.4545454545455"/>
  <unicode hex="004A"/>
  <anchor x="739.6363636363636" y="1210.9090909090908" name="above" identifier="above"/>
  <outline>
    <contour>
      <point x="68.7272720336914" y="328.63636016845703" type="line"/>
      <point x="68.72727" y="138.97828999999987"/>
      <point x="222.7055699999999" y="-14.999999999999977"/>
      <point x="412.36364" y="-15.0" type="curve" smooth="yes"/>
      <point x="577.1267946220862" y="-15.0"/>
      <point x="756.0" y="106.41038199006235"/>
      <point x="756.0" y="348.63636" type="curve"/>
      <point x="756" y="1080" type="line"/>
      <point x="723.2727279663086" y="1080" type="line"/>
      <point x="723.2727279663086" y="348.63636016845703" type="line"/>
      <point x="723.2727279663086" y="125.34044406774288"/>
      <point x="559.9878715244936" y="17.72727"/>
      <point x="412.36364" y="17.72727" type="curve" smooth="yes"/>
      <point x="240.7682399999999" y="17.727270000000022"/>
      <point x="101.45455000000001" y="157.0409699999999"/>
      <point x="101.45455" y="328.63636" type="curve"/>
    </contour>
  </outline>
</glyph>
<glyph name="K" format="2">
  <advance width="937.0909090909012"/>
  <unicode hex="004B"/>
  <outline>
    <contour>
      <point x="117.81817626953125" y="0" type="line"/>
      <point x="150.54544830322266" y="0" type="line"/>
      <point x="150.54544830322266" y="525.8181915283203" type="line"/>
      <point x="833.2735824584961" y="0" type="line"/>
      <point x="886.9090881347656" y="0" type="line"/>
      <point x="182.93424224853516" y="542.1818237304688" type="line"/>
      <point x="881.2433013916016" y="1080" type="line"/>
      <point x="827.6077880859375" y="1080" type="line"/>
      <point x="150.54544830322266" y="558.5454559326172" type="line"/>
      <point x="150.54544830322266" y="1080" type="line"/>
      <point x="117.81817626953125" y="1080" type="line"/>
    </contour>
  </outline>
</glyph>
<glyph name="L" format="2">
  <advance width="857.4545454545454"/>
  <unicode hex="004C"/>
  <outline>
    <contour>
      <point x="117.81818389892578" y="0" type="line"/>
      <point x="805.0909118652344" y="0" type="line"/>
      <point x="805.0909118652344" y="32.727272033691406" type="line"/>
      <point x="150.5454559326172" y="32.727272033691406" type="line"/>
      <point x="150.5454559326172" y="1080" type="line"/>
      <point x="117.81818389892578" y="1080" type="line"/>
    </contour>
  </outline>
</glyph>
<glyph name="M" format="2">
  <advance width="1203.8181818181818"/>
  <unicode hex="004D"/>
  <outline>
    <contour>
      <point x="117.81817626953125" y="0" type="line"/>
      <point x="150.54544830322266" y="0" type="line"/>
      <point x="150.54544830322266" y="1026.513198852539" type="line"/>
      <point x="585.5454483032227" y="315.58441162109375" type="line"/>
      <point x="618.2727279663086" y="315.58441162109375" type="line"/>
      <point x="1053.2727279663086" y="1026.513198852539" type="line"/>
      <point x="1053.2727279663086" y="0" type="line"/>
      <point x="1086" y="0" type="line"/>
      <point x="1086" y="1080" type="line"/>
      <point x="1047.6323623657227" y="1080" type="line"/>
      <point x="601.9090881347656" y="351.5459671020508" type="line"/>
      <point x="156.18582153320312" y="1080" type="line"/>
      <point x="117.81817626953125" y="1080" type="line"/>
    </contour>
  </outline>
</glyph>
<glyph name="N" format="2">
  <advance width="1070.181818181818"/>
  <unicode hex="004E"/>
  <outline>
    <contour>
      <point x="117.81818389892578" y="0" type="line"/>
      <point x="150.5454559326172" y="0" type="line"/>
      <point x="150.5454559326172" y="1025.4545440673828" type="line"/>
      <point x="919.636360168457" y="0" type="line"/>
      <point x="952.363639831543" y="0" type="line"/>
      <point x="952.363639831543" y="1080" type="line"/>
      <point x="919.636360168457" y="1080" type="line"/>
      <point x="919.636360168457" y="54.54545593261719" type="line"/>
      <point x="150.5454559326172" y="1080" type="line"/>
      <point x="117.81818389892578" y="1080" type="line"/>
    </contour>
  </outline>
</glyph>
<glyph name="O" format="2">
  <advance width="1262.4090909090908"/>
  <unicode hex="004F"/>
  <anchor x="631.2045454545454" y="1204.7727272727273" name="above" identifier="above"/>
  <anchor x="631.2045454545454" y="-130.9090909090909" name="below" identifier="below"/>
  <anchor x="631.2045454545454" y="0" name="ogonek" identifier="ogonek"/>
  <anchor x="631.2045454545454" y="536.9318181818181" name="stroke" identifier="stroke"/>
  <anchor x="631.2045454545454" y="1086.8636363636363" name="horn" identifier="horn"/>
  <outline>
    <contour>
      <point x="1181.13636" y="536.93182" type="curve" smooth="yes"/>
      <point x="1181.13636" y="840.44745"/>
      <point x="934.72018" y="1086.86364"/>
      <point x="631.20455" y="1086.86364" type="curve" smooth="yes"/>
      <point x="327.68892" y="1086.86364"/>
      <point x="81.27273" y="840.44745"/>
      <point x="81.27273" y="536.93182" type="curve" smooth="yes"/>
      <point x="81.27273" y="233.41619"/>
      <point x="327.68892" y="-13.0"/>
      <point x="631.20455" y="-13.0" type="curve" smooth="yes"/>
      <point x="934.72018" y="-13.0"/>
      <point x="1181.13636" y="233.41619"/>
    </contour>
    <contour>
      <point x="1148.40909" y="536.93182" type="curve" smooth="yes"/>
      <point x="1148.40909" y="251.47886"/>
      <point x="916.6575" y="19.72727"/>
      <point x="631.20455" y="19.72727" type="curve" smooth="yes"/>
      <point x="345.75159" y="19.72727"/>
      <point x="114.0" y="251.47886"/>
      <point x="114.0" y="536.93182" type="curve" smooth="yes"/>
      <point x="114.0" y="822.38478"/>
      <point x="345.75159" y="1054.13636"/>
      <point x="631.20455" y="1054.13636" type="curve" smooth="yes"/>
      <point x="916.6575" y="1054.13636"/>
      <point x="1148.40909" y="822.38478"/>
    </contour>
  </outline>
</glyph>
<glyph name="P" format="2">
  <advance width="971.9999999999999"/>
  <unicode hex="0050"/>
  <outline>
    <contour>
      <point x="117.81818389892578" y="0" type="line"/>
      <point x="150.5454559326172" y="0" type="line"/>
      <point x="150.5454559326172" y="420.7792205810547" type="line"/>
      <point x="557.298698425293" y="420.7792205810547" type="line"/>
      <point x="739.2156260727272" y="420.77922077922074"/>
      <point x="886.9090909090908" y="568.4726856155844"/>
      <point x="886.9090909090908" y="750.3896103896104" type="curve" smooth="yes"/>
      <point x="886.9090909090908" y="932.3065351636363"/>
      <point x="739.2156260727272" y="1080.0"/>
      <point x="557.2987012987012" y="1080.0" type="curve"/>
      <point x="117.81818389892578" y="1080" type="line"/>
    </contour>
    <contour>
      <point x="557.298698425293" y="1047.2727279663086" type="line"/>
      <point x="721.1529526909092" y="1047.2727272727273"/>
      <point x="854.181818181818" y="914.2438617818182"/>
      <point x="854.181818181818" y="750.3896103896104" type="curve" smooth="yes"/>
      <point x="854.181818181818" y="586.5353589974026"/>
      <point x="721.1529526909092" y="453.5064935064935"/>
      <point x="557.2987012987012" y="453.5064935064935" type="curve"/>
      <point x="150.5454559326172" y="453.5064926147461" type="line"/>
      <point x="150.5454559326172" y="1047.2727279663086" type="line"/>
    </contour>
  </outline>
</glyph>
<glyph name="Q" format="2">
  <advance width="1278.772727272727"/>
  <unicode hex="0051"/>
  <anchor x="631.2045454545454" y="1204.7727272727273" name="above" identifier="above"/>
  <anchor x="631.2045454545454" y="-130.9090909090909" name="below" identifier="below"/>
  <anchor x="631.2045454545454" y="0" name="ogonek" identifier="ogonek"/>
  <anchor x="631.2045454545454" y="536.9318181818181" name="stroke" identifier="stroke"/>
  <anchor x="631.2045454545454" y="1086.8636363636363" name="horn" identifier="horn"/>
  <outline>
    <contour>
      <point x="1148.3848190307617" y="0" type="line"/>
      <point x="1017.3477630615234" y="145.5313949584961" type="line"/>
      <point x="1118.4415730861842" y="245.2686094345418"/>
      <point x="1181.1363600000002" y="383.83641161859003"/>
      <point x="1181.13636" y="536.93182" type="curve" smooth="yes"/>
      <point x="1181.13636" y="840.44745"/>
      <point x="934.72018" y="1086.86364"/>
      <point x="631.20455" y="1086.86364" type="curve" smooth="yes"/>
      <point x="327.68892" y="1086.86364"/>
      <point x="81.27273" y="840.44745"/>
      <point x="81.27273" y="536.93182" type="curve" smooth="yes"/>
      <point x="81.27273" y="233.41619"/>
      <point x="327.68892" y="-13.0"/>
      <point x="631.20455" y="-13.0" type="curve" smooth="yes"/>
      <point x="769.86293392483" y="-13.0"/>
      <point x="896.6044514077495" y="38.42797041572976"/>
      <point x="993.37890625" y="123.24136352539062" type="curve"/>
      <point x="1104.345932006836" y="0" type="line"/>
    </contour>
    <contour>
      <point x="1148.40909" y="536.93182" type="curve" smooth="yes"/>
      <point x="1148.40909" y="393.48514218191997"/>
      <point x="1089.8850080169632" y="263.59963725797803"/>
      <point x="995.4316482543945" y="169.8717041015625" type="curve"/>
      <point x="796.57470703125" y="390.7247085571289" type="line"/>
      <point x="752.5358200073242" y="390.7247085571289" type="line"/>
      <point x="971.4824066162109" y="147.55989837646484" type="line"/>
      <point x="880.5110678595877" y="67.97342906018764"/>
      <point x="761.4475965905999" y="19.727269999999976"/>
      <point x="631.2045499999999" y="19.72726999999996" type="curve" smooth="yes"/>
      <point x="345.75159" y="19.72727"/>
      <point x="114.0" y="251.47886"/>
      <point x="114.0" y="536.93182" type="curve" smooth="yes"/>
      <point x="114.0" y="822.38478"/>
      <point x="345.75159" y="1054.13636"/>
      <point x="631.20455" y="1054.13636" type="curve" smooth="yes"/>
      <point x="916.6575" y="1054.13636"/>
      <point x="1148.40909" y="822.38478"/>
    </contour>
  </outline>
</glyph>
<glyph name="R" format="2">
  <advance width="976.5937887807722"/>
  <unicode hex="0052"/>
  <outline>
    <contour>
      <point x="117.81818389892578" y="0" type="line"/>
      <point x="150.5454559326172" y="0" type="line"/>
      <point x="150.5454559326172" y="420.7792205810547" type="line"/>
      <point x="549.531364440918" y="420.7792205810547" type="line"/>
      <point x="892.8982467651367" y="0" type="line"/>
      <point x="935.1392440795898" y="0" type="line"/>
      <point x="590.4279098510742" y="422.42677307128906" type="line"/>
      <point x="756.8130512745909" y="439.0638736149305"/>
      <point x="886.9090909090908" y="579.6538455629703"/>
      <point x="886.9090909090908" y="750.3896103896104" type="curve" smooth="yes"/>
      <point x="886.9090909090908" y="932.3065351636363"/>
      <point x="739.2156260727272" y="1080.0"/>
      <point x="557.2987012987012" y="1080.0" type="curve"/>
      <point x="117.81818389892578" y="1080" type="line"/>
    </contour>
    <contour>
      <point x="557.298698425293" y="1047.2727279663086" type="line"/>
      <point x="721.1529526909092" y="1047.2727272727273"/>
      <point x="854.181818181818" y="914.2438617818182"/>
      <point x="854.181818181818" y="750.3896103896104" type="curve" smooth="yes"/>
      <point x="854.181818181818" y="586.5353589974026"/>
      <point x="721.1529526909092" y="453.5064935064935"/>
      <point x="557.2987012987012" y="453.5064935064935" type="curve"/>
      <point x="150.5454559326172" y="453.5064926147461" type="line"/>
      <point x="150.5454559326172" y="1047.2727279663086" type="line"/>
    </contour>
  </outline>
</glyph>
<glyph name="S" format="2">
  <advance width="969.8181818181816"/>
  <unicode hex="0053"/>
  <anchor x="484.9090909090909" y="1204.7727272727273" name="above" identifier="above"/>
  <anchor x="484.9090909090909" y="-130.9090909090909" name="below" identifier="below"/>
  <anchor x="484.9090909090909" y="0" name="cedilla" identifier="cedilla"/>
  <outline>
    <contour>
      <point x="850.363639831543" y="783.261360168457" type="line"/>
      <point x="883.0909118652344" y="783.261360168457" type="line"/>
      <point x="883.0909118652344" y="802.125" type="line"/>
      <point x="883.0909118652344" y="990.9322766581919"/>
      <point x="680.7693211610382" y="1086.86364"/>
      <point x="484.90909" y="1086.86364" type="curve" smooth="yes"/>
      <point x="264.65829999999994" y="1086.86364"/>
      <point x="86.72727000000002" y="968.7133200000001"/>
      <point x="86.72727" y="815.98864" type="curve"/>
      <point x="119.45455169677734" y="815.988639831543" type="line"/>
      <point x="119.45454999999998" y="947.13012"/>
      <point x="282.7549699999999" y="1054.13636"/>
      <point x="484.90909" y="1054.13636" type="curve" smooth="yes"/>
      <point x="658.455676001383" y="1054.13636"/>
      <point x="850.3636407984126" y="971.1015792863903"/>
      <point x="850.3636399286397" y="802.1250000842285" type="curve"/>
    </contour>
    <contour>
      <point x="64.90908813476562" y="288.1022758483887" type="line"/>
      <point x="64.90908813476564" y="88.96727918049632"/>
      <point x="278.93363398441124" y="-12.999999999999975"/>
      <point x="484.90909" y="-13.0" type="curve" smooth="yes"/>
      <point x="717.1183400000001" y="-13.0"/>
      <point x="904.90909" y="112.3450399999999"/>
      <point x="904.90909" y="274.23864" type="curve"/>
      <point x="904.90909" y="384.6712440161927"/>
      <point x="817.0717975082796" y="502.94269810108744"/>
      <point x="597.2017548230261" y="547.565338433118" type="curve"/>
      <point x="384.9343116137414" y="590.6450306769894" type="line"/>
      <point x="280.25091561365264" y="611.8905331174217"/>
      <point x="119.45455000000001" y="678.6352231321894"/>
      <point x="119.45455" y="815.98863" type="curve"/>
      <point x="86.7272720336914" y="815.988639831543" type="line"/>
      <point x="86.7272693945702" y="657.7335056719742"/>
      <point x="264.7012271822587" y="581.5244323100248"/>
      <point x="378.36913597349076" y="558.4538877713079" type="curve"/>
      <point x="590.6068619513139" y="515.3771745455866" type="line"/>
      <point x="795.0409819197746" y="473.88431591801975"/>
      <point x="872.18182" y="368.593055710042"/>
      <point x="872.18182" y="274.23864" type="curve"/>
      <point x="872.18182" y="134.08039999999994"/>
      <point x="699.2089300000001" y="19.72727"/>
      <point x="484.90909" y="19.72727" type="curve" smooth="yes"/>
      <point x="300.5736380480321" y="19.727270000000022"/>
      <point x="97.63635915054186" y="109.20874626028848"/>
      <point x="97.63636007136027" y="288.1022759326172" type="curve"/>
      <point x="97.63636016845703" y="306.9659118652344" type="line"/>
      <point x="64.90908813476562" y="306.9659118652344" type="line"/>
    </contour>
  </outline>
</glyph>
<glyph name="T" format="2">
  <advance width="955.6363636363636"/>
  <unicode hex="0054"/>
  <outline>
    <contour>
      <point x="461.4545440673828" y="0" type="line"/>
      <point x="494.1818161010742" y="0" type="line"/>
      <point x="494.1818161010742" y="1047.2727279663086" type="line"/>
      <point x="886.9090881347656" y="1047.2727279663086" type="line"/>
      <point x="886.9090881347656" y="1080" type="line"/>
      <point x="68.7272720336914" y="1080" type="line"/>
      <point x="68.7272720336914" y="1047.2727279663086" type="line"/>
      <point x="461.4545440673828" y="1047.2727279663086" type="line"/>
    </contour>
  </outline>
</glyph>
<glyph name="U" format="2">
  <advance width="1046.181818181818"/>
  <unicode hex="0055"/>
  <anchor x="523.090909090909" y="1204.7727272727273" name="above" identifier="above"/>
  <anchor x="523.090909090909" y="-130.9090909090909" name="below" identifier="below"/>
  <anchor x="523.090909090909" y="0" name="ogonek" identifier="ogonek"/>
  <anchor x="943.090909090909" y="1073.8636363636363" name="horn" identifier="horn"/>
  <outline>
    <contour>
      <point x="103.09091186523438" y="427.0" type="line"/>
      <point x="103.09091186523439" y="140.4005788125168"/>
      <point x="318.6123203230468" y="-12.999999999999975"/>
      <point x="523.09091" y="-13.0" type="curve" smooth="yes"/>
      <point x="727.5694946769531" y="-13.0"/>
      <point x="943.0909092543147" y="140.4005788125168"/>
      <point x="943.0909100559405" y="427.0" type="curve"/>
      <point x="943.0909118652344" y="1073.863639831543" type="line"/>
      <point x="910.363639831543" y="1073.863639831543" type="line"/>
      <point x="910.363639831543" y="427.0" type="line"/>
      <point x="910.363639831543" y="159.45599869052518"/>
      <point x="710.5990160117543" y="19.72727"/>
      <point x="523.09091" y="19.72727" type="curve" smooth="yes"/>
      <point x="335.5827989882457" y="19.727270000000022"/>
      <point x="135.81818138477362" y="159.45599869052518"/>
      <point x="135.818179888119" y="427.0" type="curve"/>
      <point x="135.81817626953125" y="1073.863639831543" type="line"/>
      <point x="103.09091186523438" y="1073.863639831543" type="line"/>
    </contour>
  </outline>
</glyph>
<glyph name="V" format="2">
  <advance width="999.2727272726343"/>
  <unicode hex="0056"/>
  <anchor x="499.63636363636357" y="1210.9090909090908" name="above" identifier="above"/>
  <anchor x="499.63636363636357" y="-130.9090909090909" name="below" identifier="below"/>
  <outline>
    <contour>
      <point x="481.8693389892578" y="0" type="line"/>
      <point x="517.4033889770508" y="0" type="line"/>
      <point x="974.1818237304688" y="1080" type="line"/>
      <point x="938.6477584838867" y="1080" type="line"/>
      <point x="499.63636016845703" y="42.008087158203125" type="line"/>
      <point x="60.624961853027344" y="1080" type="line"/>
      <point x="25.090911865234375" y="1080" type="line"/>
    </contour>
  </outline>
</glyph>
<glyph name="X" format="2">
  <advance width="931.6363636363636"/>
  <unicode hex="0058"/>
  <anchor x="465.8181818181818" y="1204.7727272727273" name="above" identifier="above"/>
  <outline>
    <contour>
      <point x="32.18182373046875" y="0" type="line"/>
      <point x="73.47039794921875" y="0" type="line"/>
      <point x="465.8181838989258" y="510.0921401977539" type="line"/>
      <point x="858.1659698486328" y="0" type="line"/>
      <point x="899.4545516967773" y="0" type="line"/>
      <point x="486.4624786376953" y="536.9318237304688" type="line"/>
      <point x="899.4545516967773" y="1073.863639831543" type="line"/>
      <point x="858.1659698486328" y="1073.863639831543" type="line"/>
      <point x="465.8181838989258" y="563.7714996337891" type="line"/>
      <point x="73.47039794921875" y="1073.863639831543" type="line"/>
      <point x="32.18182373046875" y="1073.863639831543" type="line"/>
      <point x="445.1738967895508" y="536.9318237304688" type="line"/>
    </contour>
  </outline>
</glyph>
<glyph name="Y" format="2">
  <advance width="939.2727272727273"/>
  <unicode hex="0059"/>
  <anchor x="469.6363636363636" y="1210.9090909090908" name="above" identifier="above"/>
  <anchor x="469.6363636363636" y="-130.9090909090909" name="below" identifier="below"/>
  <outline>
    <contour>
      <point x="453.2727279663086" y="0" type="line"/>
      <point x="486" y="0" type="line"/>
      <point x="486" y="411.42857360839844" type="line"/>
      <point x="903.2727279663086" y="1080" type="line"/>
      <point x="864.6943206787109" y="1080" type="line"/>
      <point x="469.63636016845703" y="447.02198791503906" type="line"/>
      <point x="74.57840728759766" y="1080" type="line"/>
      <point x="36" y="1080" type="line"/>
      <point x="453.2727279663086" y="411.42857360839844" type="line"/>
    </contour>
  </outline>
</glyph>
<glyph name="Z" format="2">
  <advance width="922.9090909091697"/>
  <unicode hex="005A"/>
  <anchor x="461.4545454545454" y="1210.9090909090908" name="above" identifier="above"/>
  <anchor x="461.4545454545454" y="-130.9090909090909" name="below" identifier="below"/>
  <anchor x="461.4545454545454" y="547.5" name="stroke" identifier="stroke"/>
  <outline>
    <contour>
      <point x="85.09091186523438" y="0" type="line"/>
      <point x="837.8181762695312" y="0" type="line"/>
      <point x="837.8181762695312" y="32.727272033691406" type="line"/>
      <point x="125.08686065673828" y="32.727272033691406" type="line"/>
      <point x="837.8181762695312" y="1047.2727279663086" type="line"/>
      <point x="837.8181762695312" y="1080" type="line"/>
      <point x="85.09091186523438" y="1080" type="line"/>
      <point x="85.09091186523438" y="1047.2727279663086" type="line"/>
      <point x="797.8222274780273" y="1047.2727279663086" type="line"/>
      <point x="85.09091186523438" y="32.727272033691406" type="line"/>
    </contour>
  </outline>
</glyph>
<glyph name="bracketleft" format="2">
  <advance width="464.7272727272727"/>
  <unicode hex="005B"/>
  <outline>
    <contour>
      <point x="183.2727279663086" y="-16.36363983154297" type="line"/>
      <point x="412.36363983154297" y="-16.36363983154297" type="line"/>
      <point x="412.36363983154297" y="16.36363983154297" type="line"/>
      <point x="216" y="16.36363983154297" type="line"/>
      <point x="216" y="1129.0909118652344" type="line"/>
      <point x="412.36363983154297" y="1129.0909118652344" type="line"/>
      <point x="412.36363983154297" y="1161.8181762695312" type="line"/>
      <point x="183.2727279663086" y="1161.8181762695312" type="line"/>
    </contour>
  </outline>
</glyph>
<glyph name="backslash" format="2">
  <advance width="674.0197093502707"/>
  <unicode hex="005C"/>
  <outline>
    <contour>
      <point x="556.20153" y="-65.45455" type="line"/>
      <point x="103.55491" y="1178.18182" type="line"/>
      <point x="68.72727" y="1178.18182" type="line"/>
      <point x="521.37389" y="-65.45455" type="line"/>
    </contour>
  </outline>
</glyph>
<glyph name="bracketright" format="2">
  <advance width="464.7272727272727"/>
  <unicode hex="005D"/>
  <outline>
    <contour>
      <point x="281.45455169677734" y="-16.36363983154297" type="line"/>
      <point x="281.45455169677734" y="1161.8181762695312" type="line"/>
      <point x="52.36363983154297" y="1161.8181762695312" type="line"/>
      <point x="52.36363983154297" y="1129.0909118652344" type="line"/>
      <point x="248.7272720336914" y="1129.0909118652344" type="line"/>
      <point x="248.7272720336914" y="16.36363983154297" type="line"/>
      <point x="52.36363983154297" y="16.36363983154297" type="line"/>
      <point x="52.36363983154297" y="-16.36363983154297" type="line"/>
    </contour>
  </outline>
</glyph>
<glyph name="asciicircum" format="2">
  <advance width="707.2447552446755"/>
  <unicode hex="005E"/>
  <outline>
    <contour>
      <point x="74.18182373046875" y="654.5454483032227" type="line"/>
      <point x="112.54676055908203" y="654.5454483032227" type="line"/>
      <point x="353.62237548828125" y="1048.6416320800781" type="line"/>
      <point x="594.6979904174805" y="654.5454483032227" type="line"/>
      <point x="633.0629425048828" y="654.5454483032227" type="line"/>
      <point x="372.80484771728516" y="1080" type="line"/>
      <point x="334.4399108886719" y="1080" type="line"/>
    </contour>
  </outline>
</glyph>
<glyph name="power" format="2">
  <advance width="710.517482517565"/>
  <unicode hex="005E"/>
  <outline>
    <contour>
      <point x="75.81817626953125" y="625.4370574951172" type="line"/>
      <point x="113.66751098632812" y="625.4370574951172" type="line"/>
      <point x="355.2587432861328" y="1041.28857421875" type="line"/>
      <point x="596.849967956543" y="625.4370574951172" type="line"/>
      <point x="634.6993026733398" y="625.4370574951172" type="line"/>
      <point x="374.18341064453125" y="1073.863639831543" type="line"/>
      <point x="336.3340835571289" y="1073.863639831543" type="line"/>
    </contour>
  </outline>
</glyph>
<glyph name="underscore" format="2">
  <advance width="752.7272727272726"/>
  <unicode hex="005F"/>
  <outline>
    <contour>
      <point x="0.0" y="-145.63636363636363" type="line"/>
      <point x="752.7272727272726" y="-145.63636363636363" type="line"/>
      <point x="752.7272727272726" y="-114.54545454545453" type="line"/>
      <point x="0.0" y="-114.54545454545453" type="line"/>
    </contour>
  </outline>
</glyph>
<glyph name="grave" format="2">
  <advance width="455.0430513648611"/>
  <unicode hex="0060"/>
  <outline>
    <contour>
      <point x="335.58851" y="1204.77273" type="line"/>
      <point x="158.47734" y="1477.5" type="line"/>
      <point x="119.45455" y="1477.5" type="line"/>
      <point x="296.56571" y="1204.77273" type="line"/>
    </contour>
  </outline>
</glyph>
<glyph name="a" format="2">
  <advance width="980.181818181818"/>
  <unicode hex="0061"/>
  <outline>
    <contour>
      <point x="829.636360168457" y="0" type="line"/>
      <point x="862.363639831543" y="0" type="line"/>
      <point x="862.363639831543" y="752.7272720336914" type="line"/>
      <point x="829.636360168457" y="752.7272720336914" type="line"/>
      <point x="829.636360168457" y="533.1620254516602" type="line"/>
      <point x="769.1370531728028" y="671.2017558183882"/>
      <point x="631.2519501879581" y="767.7272727272725"/>
      <point x="471.0" y="767.7272727272726" type="curve" smooth="yes"/>
      <point x="255.00053080909092" y="767.7272727272726"/>
      <point x="79.63636363636363" y="592.3631055545454"/>
      <point x="79.63636363636363" y="376.3636363636363" type="curve" smooth="yes"/>
      <point x="79.63636363636363" y="160.36416717272732"/>
      <point x="255.00053080909083" y="-14.999999999999998"/>
      <point x="470.9999999999999" y="-14.999999999999998" type="curve" smooth="yes"/>
      <point x="631.2519501879581" y="-15.000000000000044"/>
      <point x="769.1370531728028" y="81.52551690888437"/>
      <point x="829.636360168457" y="219.56023406982422" type="curve"/>
    </contour>
    <contour>
      <point x="829.6363636363636" y="376.3636363636363" type="curve" smooth="yes"/>
      <point x="829.6363636363636" y="178.42684055454535"/>
      <point x="668.9367958090909" y="17.727272727272663"/>
      <point x="470.9999999999999" y="17.727272727272727" type="curve" smooth="yes"/>
      <point x="273.063204190909" y="17.727272727272727"/>
      <point x="112.36363636363635" y="178.42684055454544"/>
      <point x="112.36363636363635" y="376.3636363636363" type="curve" smooth="yes"/>
      <point x="112.36363636363635" y="574.3004321727273"/>
      <point x="273.06320419090906" y="735.0"/>
      <point x="470.99999999999994" y="735.0" type="curve" smooth="yes"/>
      <point x="668.9367958090909" y="735.0"/>
      <point x="829.6363636363636" y="574.3004321727273"/>
    </contour>
  </outline>
</glyph>
<glyph name="b" format="2">
  <advance width="980.1818181818181"/>
  <unicode hex="0062"/>
  <anchor x="509.18181818181813" y="883.6363636363636" name="above" identifier="above"/>
  <anchor x="509.18181818181813" y="-130.9090909090909" name="below" identifier="below"/>
  <outline>
    <contour>
      <point x="117.81817626953125" y="0" type="line"/>
      <point x="150.54544830322266" y="0" type="line"/>
      <point x="150.54544830322266" y="219.56527709960938" type="line"/>
      <point x="211.0447645157877" y="81.52551846509724"/>
      <point x="348.92986921177" y="-14.999999999999957"/>
      <point x="509.18181999999996" y="-14.999999999999943" type="curve" smooth="yes"/>
      <point x="725.18129" y="-15.0"/>
      <point x="900.54545" y="160.36417"/>
      <point x="900.54545" y="376.36364" type="curve" smooth="yes"/>
      <point x="900.54545" y="592.36311"/>
      <point x="725.18129" y="767.72727"/>
      <point x="509.18182" y="767.72727" type="curve" smooth="yes"/>
      <point x="348.92986921177" y="767.72727"/>
      <point x="211.0447645157877" y="671.2017570391924"/>
      <point x="150.54544830322266" y="533.1670303344727" type="curve"/>
      <point x="150.54544830322266" y="1145.4545516967773" type="line"/>
      <point x="117.81817626953125" y="1145.4545516967773" type="line"/>
    </contour>
    <contour>
      <point x="867.81818" y="376.36364" type="curve" smooth="yes"/>
      <point x="867.81818" y="178.42684"/>
      <point x="707.11861" y="17.72727"/>
      <point x="509.18182" y="17.72727" type="curve" smooth="yes"/>
      <point x="311.24502" y="17.72727"/>
      <point x="150.54545" y="178.42684"/>
      <point x="150.54545" y="376.36364" type="curve" smooth="yes"/>
      <point x="150.54545" y="574.30043"/>
      <point x="311.24502" y="735.0"/>
      <point x="509.18182" y="735.0" type="curve" smooth="yes"/>
      <point x="707.11861" y="735.0"/>
      <point x="867.81818" y="574.30043"/>
    </contour>
  </outline>
</glyph>
<glyph name="c" format="2">
  <advance width="928.0454739657314"/>
  <unicode hex="0063"/>
  <anchor x="486.0511363636363" y="920.965909090909" name="above" identifier="above"/>
  <anchor x="486.0511363636363" y="-130.9090909090909" name="below" identifier="below"/>
  <anchor x="489.3011363636363" y="0" name="cedilla" identifier="cedilla"/>
  <outline>
    <contour>
      <point x="489.30114" y="19.72727" type="curve" smooth="yes"/>
      <point x="282.1668" y="19.72727"/>
      <point x="114.0" y="187.89407"/>
      <point x="114.0" y="395.02841" type="curve" smooth="yes"/>
      <point x="114.0" y="602.16274"/>
      <point x="282.1668" y="770.32955"/>
      <point x="489.30114" y="770.32955" type="curve" smooth="yes"/>
      <point x="637.78787" y="770.32955"/>
      <point x="766.24953" y="683.91012"/>
      <point x="827.09059" y="558.66477" type="curve"/>
      <point x="863.13091" y="558.66477" type="line"/>
      <point x="800.01505" y="702.50385"/>
      <point x="656.30814" y="803.05682"/>
      <point x="489.30114" y="803.05682" type="curve" smooth="yes"/>
      <point x="264.10413" y="803.05682"/>
      <point x="81.27273" y="620.22542"/>
      <point x="81.27273" y="395.02841" type="curve" smooth="yes"/>
      <point x="81.27273" y="169.8314"/>
      <point x="264.10413" y="-13.0"/>
      <point x="489.30114" y="-13.0" type="curve" smooth="yes"/>
      <point x="656.31309" y="-13.0"/>
      <point x="800.02358" y="87.55894"/>
      <point x="863.13638" y="231.39205" type="curve"/>
      <point x="827.08503" y="231.39205" type="line"/>
      <point x="766.24165" y="106.1414"/>
      <point x="637.78331" y="19.72727"/>
    </contour>
  </outline>
</glyph>
<glyph name="e" format="2">
  <advance width="978.6022727272726"/>
  <unicode hex="0065"/>
  <anchor x="489.3011363636363" y="920.965909090909" name="above" identifier="above"/>
  <anchor x="489.3011363636363" y="-130.9090909090909" name="below" identifier="below"/>
  <anchor x="489.3011363636363" y="0" name="cedilla" identifier="cedilla"/>
  <anchor x="489.3011363636363" y="0" name="ogonek" identifier="ogonek"/>
  <outline>
    <contour>
      <point x="862.49526" y="229.93967" type="curve"/>
      <point x="826.3768768310547" y="229.93966674804688" type="line"/>
      <point x="765.24894" y="105.47509"/>
      <point x="637.20976" y="19.72727"/>
      <point x="489.30114" y="19.72727" type="curve" smooth="yes"/>
      <point x="287.1856650582" y="19.72727"/>
      <point x="122.17224069406447" y="179.84343640629575"/>
      <point x="114.29435729980469" y="380.30113983154297" type="curve"/>
      <point x="864.3062362670898" y="380.3011360168457" type="line"/>
      <point x="897.0585403442383" y="380.30113220214844" type="line"/>
      <point x="897.23869" y="385.00928"/>
      <point x="897.32955" y="390.00832"/>
      <point x="897.32955" y="395.02841" type="curve" smooth="yes"/>
      <point x="897.32955" y="620.22542"/>
      <point x="714.49814" y="803.05682"/>
      <point x="489.30114" y="803.05682" type="curve" smooth="yes"/>
      <point x="264.10413" y="803.05682"/>
      <point x="81.27273" y="620.22542"/>
      <point x="81.27273" y="395.02841" type="curve" smooth="yes"/>
      <point x="81.27273" y="169.8314"/>
      <point x="264.10413" y="-13.0"/>
      <point x="489.30114" y="-13.0" type="curve" smooth="yes"/>
      <point x="655.74987" y="-13.0"/>
      <point x="799.05404" y="86.88185"/>
    </contour>
    <contour>
      <point x="489.30114" y="770.3295500000002" type="curve" smooth="yes"/>
      <point x="690.37161248925" y="770.32955"/>
      <point x="854.7227076882469" y="611.8647834600555"/>
      <point x="864.1731491088867" y="413.0284118652344" type="curve"/>
      <point x="114.43225860595703" y="413.0284118652344" type="line"/>
      <point x="123.91579458745555" y="611.899715692214"/>
      <point x="288.25282117788004" y="770.32955"/>
    </contour>
  </outline>
</glyph>
<glyph name="f" format="2">
  <advance width="478.3636363636364"/>
  <unicode hex="0066"/>
  <outline>
    <contour>
      <point x="170.02597045898438" y="0" type="line"/>
      <point x="202.7532501220703" y="0" type="line"/>
      <point x="202.7532501220703" y="720" type="line"/>
      <point x="409.63636016845703" y="720" type="line"/>
      <point x="409.63636016845703" y="752.7272720336914" type="line"/>
      <point x="202.7532501220703" y="752.7272720336914" type="line"/>
      <point x="202.7532501220703" y="924.9772026934394" type="line"/>
      <point x="202.7532501220703" y="994.1524194358917"/>
      <point x="209.93022209101434" y="1112.7272649423458"/>
      <point x="392.3636399999999" y="1112.7272714203561" type="curve"/>
      <point x="409.63636016845703" y="1112.7272720336914" type="line"/>
      <point x="409.63636016845703" y="1145.4545516967773" type="line"/>
      <point x="392.36363983154297" y="1145.4545516967773" type="line"/>
      <point x="179.56619293112752" y="1145.4545516967773"/>
      <point x="170.0259699127894" y="1003.0925419471928"/>
      <point x="170.0259700872637" y="923.11688" type="curve"/>
      <point x="170.02597045898438" y="752.7272720336914" type="line"/>
      <point x="57.81817626953125" y="752.7272720336914" type="line"/>
      <point x="57.81817626953125" y="720" type="line"/>
      <point x="170.02597045898438" y="720" type="line"/>
    </contour>
  </outline>
</glyph>
<glyph name="g" format="2">
  <advance width="980.181818181818"/>
  <unicode hex="0067"/>
  <outline>
    <contour>
      <point x="90.54545593261719" y="-38.18181610107422" type="line"/>
      <point x="90.54545454545453" y="-251.17084180909086"/>
      <point x="263.4655218272726" y="-424.09090909090907"/>
      <point x="476.4545454545453" y="-424.09090909090907" type="curve" smooth="yes"/>
      <point x="689.443569081818" y="-424.09090909090907"/>
      <point x="862.3636363636363" y="-251.170841809091"/>
      <point x="862.3636363636363" y="-38.18181818181825" type="curve"/>
      <point x="862.363639831543" y="752.7272720336914" type="line"/>
      <point x="829.636360168457" y="752.7272720336914" type="line"/>
      <point x="829.636360168457" y="533.1620254516602" type="line"/>
      <point x="769.1370531728028" y="671.2017558183882"/>
      <point x="631.2519501879581" y="767.7272727272725"/>
      <point x="471.0" y="767.7272727272726" type="curve" smooth="yes"/>
      <point x="255.00053080909092" y="767.7272727272726"/>
      <point x="79.63636363636363" y="592.3631055545454"/>
      <point x="79.63636363636363" y="376.3636363636363" type="curve" smooth="yes"/>
      <point x="79.63636363636363" y="160.36416717272732"/>
      <point x="255.00053080909083" y="-14.999999999999998"/>
      <point x="470.9999999999999" y="-14.999999999999998" type="curve" smooth="yes"/>
      <point x="631.2519501879581" y="-15.000000000000044"/>
      <point x="769.1370531728028" y="81.52551690888437"/>
      <point x="829.636360168457" y="219.56023406982422" type="curve"/>
      <point x="829.636360168457" y="-38.18181610107422" type="line"/>
      <point x="829.6363636363636" y="-233.1081684272728"/>
      <point x="671.3808956999999" y="-391.3636363636363"/>
      <point x="476.4545454545453" y="-391.3636363636363" type="curve" smooth="yes"/>
      <point x="281.5281952090908" y="-391.3636363636363"/>
      <point x="123.27272727272725" y="-233.1081684272727"/>
      <point x="123.27272727272725" y="-38.18181818181813" type="curve"/>
    </contour>
    <contour>
      <point x="829.6363636363636" y="376.3636363636363" type="curve" smooth="yes"/>
      <point x="829.6363636363636" y="178.42684055454535"/>
      <point x="668.9367958090909" y="17.727272727272663"/>
      <point x="470.9999999999999" y="17.727272727272727" type="curve" smooth="yes"/>
      <point x="273.063204190909" y="17.727272727272727"/>
      <point x="112.36363636363635" y="178.42684055454544"/>
      <point x="112.36363636363635" y="376.3636363636363" type="curve" smooth="yes"/>
      <point x="112.36363636363635" y="574.3004321727273"/>
      <point x="273.06320419090906" y="735.0"/>
      <point x="470.99999999999994" y="735.0" type="curve" smooth="yes"/>
      <point x="668.9367958090909" y="735.0"/>
      <point x="829.6363636363636" y="574.3004321727273"/>
    </contour>
  </outline>
</glyph>
<glyph name="h" format="2">
  <advance width="882.0"/>
  <unicode hex="0068"/>
  <outline>
    <contour>
      <point x="117.81818389892578" y="0" type="line"/>
      <point x="150.5454559326172" y="0" type="line"/>
      <point x="150.5454559326172" y="436.36363983154297" type="line"/>
      <point x="150.54545454545453" y="601.1855309727273"/>
      <point x="284.35992357272727" y="735.0"/>
      <point x="449.18181818181813" y="735.0" type="curve" smooth="yes"/>
      <point x="614.003712790909" y="735.0"/>
      <point x="747.8181818181818" y="601.1855309727273"/>
      <point x="747.8181818181818" y="436.3636363636363" type="curve"/>
      <point x="747.8181838989258" y="0" type="line"/>
      <point x="780.5454559326172" y="0" type="line"/>
      <point x="780.5454559326172" y="436.36363983154297" type="line"/>
      <point x="780.5454545454545" y="619.2482043545455"/>
      <point x="632.0663861727273" y="767.7272727272726"/>
      <point x="449.18181818181813" y="767.7272727272726" type="curve" smooth="yes"/>
      <point x="317.758407239599" y="767.7272727272726"/>
      <point x="204.10220551991455" y="691.0517789189755"/>
      <point x="150.5454559326172" y="580.0089797973633" type="curve"/>
      <point x="150.5454559326172" y="1145.4545440673828" type="line"/>
      <point x="117.81818389892578" y="1145.4545440673828" type="line"/>
    </contour>
  </outline>
</glyph>
<glyph name="i" format="2">
  <advance width="271.6363636363636"/>
  <unicode hex="0069"/>
  <outline>
    <contour>
      <point x="179.76623" y="1010.31656" type="curve" smooth="yes"/>
      <point x="179.76623" y="1034.57215"/>
      <point x="160.07377" y="1054.26461"/>
      <point x="135.81818" y="1054.26461" type="curve" smooth="yes"/>
      <point x="111.56259" y="1054.26461"/>
      <point x="91.87013" y="1034.57215"/>
      <point x="91.87013" y="1010.31656" type="curve" smooth="yes"/>
      <point x="91.87013" y="986.06097"/>
      <point x="111.56259" y="966.36851"/>
      <point x="135.81818" y="966.36851" type="curve" smooth="yes"/>
      <point x="160.07377" y="966.36851"/>
      <point x="179.76623" y="986.06097"/>
    </contour>
    <contour>
      <point x="119.45455" y="0.0" type="line"/>
      <point x="152.18182" y="0.0" type="line"/>
      <point x="152.18182" y="790.05682" type="line"/>
      <point x="119.45455" y="790.05682" type="line"/>
    </contour>
  </outline>
</glyph>
<glyph name="j" format="2">
  <advance width="259.94805194805195"/>
  <unicode hex="006A"/>
  <outline>
    <contour>
      <point x="168.07792" y="1010.31656" type="curve" smooth="yes"/>
      <point x="168.07792" y="1034.57215"/>
      <point x="148.38546" y="1054.26461"/>
      <point x="124.12987" y="1054.26461" type="curve" smooth="yes"/>
      <point x="99.87428" y="1054.26461"/>
      <point x="80.18182" y="1034.57215"/>
      <point x="80.18182" y="1010.31656" type="curve" smooth="yes"/>
      <point x="80.18182" y="986.06097"/>
      <point x="99.87428" y="966.36851"/>
      <point x="124.12987" y="966.36851" type="curve" smooth="yes"/>
      <point x="148.38546" y="966.36851"/>
      <point x="168.07792" y="986.06097"/>
    </contour>
    <contour>
      <point x="-60.545448303222656" y="-307.8409118652344" type="line"/>
      <point x="-30.82236349583436" y="-307.8409118652344" type="line"/>
      <point x="139.11581529280804" y="-307.8409118652344"/>
      <point x="140.49351002848755" y="-166.198950492399"/>
      <point x="140.493509944717" y="-135.89286" type="curve"/>
      <point x="140.4935073852539" y="790.0568237304688" type="line"/>
      <point x="107.76622772216797" y="790.0568237304688" type="line"/>
      <point x="107.76622772216797" y="-140.69658037032968" type="line"/>
      <point x="107.76622772216797" y="-167.56154819573726"/>
      <point x="106.68363850449062" y="-275.11364040539496"/>
      <point x="-31.454549999999998" y="-275.11363993136933" type="curve"/>
      <point x="-60.545448303222656" y="-275.11363983154297" type="line"/>
    </contour>
  </outline>
</glyph>
<glyph name="k" format="2">
  <advance width="750.5454545455223"/>
  <unicode hex="006B"/>
  <anchor x="348.46753246753246" y="1276.3636363636363" name="above" identifier="above"/>
  <anchor x="348.46753246753246" y="-130.9090909090909" name="below" identifier="below"/>
  <anchor x="134.1818181818182" y="1276.3636363636363" name="stem" identifier="stem"/>
  <anchor x="413.0454545454545" y="-130.9090909090909" name="macronbelow" identifier="macronbelow"/>
  <outline>
    <contour>
      <point x="117.81817626953125" y="0" type="line"/>
      <point x="150.54544830322266" y="0" type="line"/>
      <point x="150.54544830322266" y="361.63636779785156" type="line"/>
      <point x="666.2697525024414" y="0" type="line"/>
      <point x="723.2727279663086" y="0" type="line"/>
      <point x="184.21248245239258" y="378.0" type="line"/>
      <point x="718.6055374145508" y="752.7272720336914" type="line"/>
      <point x="661.6025619506836" y="752.7272720336914" type="line"/>
      <point x="150.54544830322266" y="394.36363220214844" type="line"/>
      <point x="150.54544830322266" y="1145.4545516967773" type="line"/>
      <point x="117.81817626953125" y="1145.4545516967773" type="line"/>
    </contour>
  </outline>
</glyph>
<glyph name="l" format="2">
  <advance width="271.6363636363636"/>
  <unicode hex="006C"/>
  <anchor x="135.8181818181818" y="1264.090909090909" name="above" identifier="above"/>
  <anchor x="135.8181818181818" y="-130.9090909090909" name="below" identifier="below"/>
  <anchor x="283.09090909090907" y="1133.181818181818" name="caron" identifier="caron"/>
  <anchor x="135.8181818181818" y="566.590909090909" name="stroke" identifier="stroke"/>
  <anchor x="271.6363636363636" y="566.590909090909" name="dotmiddle" identifier="dotmiddle"/>
  <outline>
    <contour>
      <point x="119.45455" y="0.0" type="line"/>
      <point x="152.18182" y="0.0" type="line"/>
      <point x="152.18182" y="1133.18182" type="line"/>
      <point x="119.45455" y="1133.18182" type="line"/>
    </contour>
  </outline>
</glyph>
<glyph name="m" format="2">
  <advance width="1381.090909090909"/>
  <unicode hex="006D"/>
  <outline>
    <contour>
      <point x="117.81817626953125" y="0" type="line"/>
      <point x="150.54544830322266" y="0" type="line"/>
      <point x="150.54544830322266" y="469.0909118652344" type="line"/>
      <point x="150.54545" y="615.85013"/>
      <point x="269.69532" y="735.0"/>
      <point x="416.45455" y="735.0" type="curve" smooth="yes"/>
      <point x="563.21377" y="735.0"/>
      <point x="682.36364" y="615.85013"/>
      <point x="682.36364" y="469.09091" type="curve"/>
      <point x="682.363639831543" y="0" type="line"/>
      <point x="715.0909118652344" y="0" type="line"/>
      <point x="715.0909118652344" y="469.0909118652344" type="line"/>
      <point x="715.09091" y="615.85013"/>
      <point x="834.24078" y="735.0"/>
      <point x="981.0" y="735.0" type="curve" smooth="yes"/>
      <point x="1127.75922" y="735.0"/>
      <point x="1246.90909" y="615.85013"/>
      <point x="1246.90909" y="469.09091" type="curve"/>
      <point x="1246.9090881347656" y="0" type="line"/>
      <point x="1279.636360168457" y="0" type="line"/>
      <point x="1279.636360168457" y="469.0909118652344" type="line"/>
      <point x="1279.63636" y="633.9128"/>
      <point x="1145.82189" y="767.72727"/>
      <point x="981.0" y="767.72727" type="curve" smooth="yes"/>
      <point x="850.37189447751" y="767.72727"/>
      <point x="739.2202079517072" y="683.6755596177874"/>
      <point x="698.7234649658203" y="566.7400207519531" type="curve"/>
      <point x="658.2205977444861" y="683.6859525349779"/>
      <point x="547.07457924988" y="767.72727"/>
      <point x="416.45455000000004" y="767.7272700000001" type="curve" smooth="yes"/>
      <point x="300.5923361074" y="767.72727"/>
      <point x="200.05226781673906" y="701.6036088972803"/>
      <point x="150.54544830322266" y="605.0539169311523" type="curve"/>
      <point x="150.54544830322266" y="752.7272720336914" type="line"/>
      <point x="117.81817626953125" y="752.7272720336914" type="line"/>
    </contour>
  </outline>
</glyph>
<glyph name="n" format="2">
  <advance width="882.0"/>
  <unicode hex="006E"/>
  <outline>
    <contour>
      <point x="117.81817626953125" y="0" type="line"/>
      <point x="150.54544830322266" y="0" type="line"/>
      <point x="150.54544830322266" y="396.36363983154297" type="line"/>
      <point x="150.54544830322268" y="663.7435070067844"/>
      <point x="331.3847652475815" y="735.0"/>
      <point x="449.18182" y="735.0" type="curve" smooth="yes"/>
      <point x="566.9788747524185" y="735.0"/>
      <point x="747.8181819438684" y="663.7435071752415"/>
      <point x="747.8181796580403" y="396.36364" type="curve"/>
      <point x="747.8181762695312" y="0" type="line"/>
      <point x="780.5454483032227" y="0" type="line"/>
      <point x="780.5454483032227" y="396.36363983154297" type="line"/>
      <point x="780.5454483032227" y="683.6925234526883"/>
      <point x="583.0206581067816" y="767.72727"/>
      <point x="449.18182" y="767.72727" type="curve" smooth="yes"/>
      <point x="317.75840761402" y="767.72727"/>
      <point x="204.10220464774793" y="691.0517753513693"/>
      <point x="150.54544830322266" y="580.0089645385742" type="curve"/>
      <point x="150.54544830322266" y="752.7272720336914" type="line"/>
      <point x="117.81817626953125" y="752.7272720336914" type="line"/>
    </contour>
  </outline>
</glyph>
<glyph name="o" format="2">
  <advance width="978.6022727272726"/>
  <unicode hex="006F"/>
  <anchor x="489.3011363636363" y="920.965909090909" name="above" identifier="above"/>
  <anchor x="489.3011363636363" y="-130.9090909090909" name="below" identifier="below"/>
  <anchor x="489.3011363636363" y="0" name="ogonek" identifier="ogonek"/>
  <anchor x="489.3011363636363" y="395.02840909090907" name="stroke" identifier="stroke"/>
  <anchor x="489.3011363636363" y="803.0568181818182" name="horn" identifier="horn"/>
  <outline>
    <contour>
      <point x="897.32955" y="395.02841" type="curve" smooth="yes"/>
      <point x="897.32955" y="620.22542"/>
      <point x="714.49814" y="803.05682"/>
      <point x="489.30114" y="803.05682" type="curve" smooth="yes"/>
      <point x="264.10413" y="803.05682"/>
      <point x="81.27273" y="620.22542"/>
      <point x="81.27273" y="395.02841" type="curve" smooth="yes"/>
      <point x="81.27273" y="169.8314"/>
      <point x="264.10413" y="-13.0"/>
      <point x="489.30114" y="-13.0" type="curve" smooth="yes"/>
      <point x="714.49814" y="-13.0"/>
      <point x="897.32955" y="169.8314"/>
    </contour>
    <contour>
      <point x="864.60227" y="395.02841" type="curve" smooth="yes"/>
      <point x="864.60227" y="187.89407"/>
      <point x="696.43547" y="19.72727"/>
      <point x="489.30114" y="19.72727" type="curve" smooth="yes"/>
      <point x="282.1668" y="19.72727"/>
      <point x="114.0" y="187.89407"/>
      <point x="114.0" y="395.02841" type="curve" smooth="yes"/>
      <point x="114.0" y="602.16274"/>
      <point x="282.1668" y="770.32955"/>
      <point x="489.30114" y="770.32955" type="curve" smooth="yes"/>
      <point x="696.43547" y="770.32955"/>
      <point x="864.60227" y="602.16274"/>
    </contour>
  </outline>
</glyph>
<glyph name="r" format="2">
  <advance width="538.3636363636363"/>
  <unicode hex="0072"/>
  <outline>
    <contour>
      <point x="117.81818389892578" y="0" type="line"/>
      <point x="150.5454559326172" y="0" type="line"/>
      <point x="150.5454559326172" y="425.4545440673828" type="line"/>
      <point x="150.54545454545453" y="588.018605890909"/>
      <point x="282.52684865454546" y="720.0"/>
      <point x="445.09090909090907" y="720.0" type="curve"/>
      <point x="486" y="720" type="line"/>
      <point x="486" y="752.7272720336914" type="line"/>
      <point x="445.0909118652344" y="752.7272720336914" type="line"/>
      <point x="315.61947255737454" y="752.7272727272726"/>
      <point x="203.606929395039" y="677.3823351055995"/>
      <point x="150.5454559326172" y="568.1606979370117" type="curve"/>
      <point x="150.5454559326172" y="752.7272720336914" type="line"/>
      <point x="117.81818389892578" y="752.7272720336914" type="line"/>
    </contour>
  </outline>
</glyph>
<glyph name="s" format="2">
  <advance width="806.1818181818181"/>
  <unicode hex="0073"/>
  <anchor x="403.09090909090907" y="920.965909090909" name="above" identifier="above"/>
  <anchor x="403.09090909090907" y="-130.9090909090909" name="below" identifier="below"/>
  <anchor x="403.09090909090907" y="0" name="cedilla" identifier="cedilla"/>
  <outline>
    <contour>
      <point x="719.4545516967773" y="596.8608016967773" type="line"/>
      <point x="719.45455" y="716.5133"/>
      <point x="578.0506" y="803.05682"/>
      <point x="403.09091" y="803.05682" type="curve"/>
      <point x="228.13121" y="803.05682"/>
      <point x="86.72727" y="716.5133"/>
      <point x="86.72727" y="596.8608" type="curve"/>
      <point x="119.45455169677734" y="596.8608016967773" type="line"/>
      <point x="119.45455" y="695.71217"/>
      <point x="246.16671" y="770.32955"/>
      <point x="403.09091" y="770.32955" type="curve"/>
      <point x="560.01511" y="770.32955"/>
      <point x="686.72727" y="695.71217"/>
      <point x="686.72727" y="596.8608" type="curve"/>
    </contour>
    <contour>
      <point x="70.36363983154297" y="201.92330169677734" type="line"/>
      <point x="70.36364" y="77.04746"/>
      <point x="219.04398" y="-13.0"/>
      <point x="403.09091" y="-13.0" type="curve"/>
      <point x="587.1378400000001" y="-13.0"/>
      <point x="735.81818" y="77.04745999999994"/>
      <point x="735.81818" y="201.9233" type="curve"/>
      <point x="735.81818" y="288.5746715187855"/>
      <point x="674.1271301288803" y="383.62464582521756"/>
      <point x="462.41237695801544" y="412.288597963812" type="curve"/>
      <point x="355.4926904858322" y="426.76439962529935" type="line"/>
      <point x="258.27915570667585" y="439.9260903738154"/>
      <point x="119.45455" y="482.01752340371166"/>
      <point x="119.45455" y="596.8608" type="curve"/>
      <point x="86.7272720336914" y="596.8607864379883" type="line"/>
      <point x="86.72726948895644" y="458.3264562164325"/>
      <point x="243.53489150488957" y="409.1005391379811"/>
      <point x="350.74880664145604" y="394.5702124226237" type="curve"/>
      <point x="457.55713589394435" y="380.09485334275723" type="line"/>
      <point x="665.5871927324993" y="351.90126775614476"/>
      <point x="703.09091" y="261.22529309279207"/>
      <point x="703.09091" y="201.9233" type="curve"/>
      <point x="703.09091" y="98.03883999999995"/>
      <point x="569.1166000000001" y="19.72727"/>
      <point x="403.09091" y="19.72727" type="curve"/>
      <point x="237.06521" y="19.72727"/>
      <point x="103.09091" y="98.03884"/>
      <point x="103.09091" y="201.9233" type="curve"/>
    </contour>
  </outline>
</glyph>
<glyph name="t" format="2">
  <advance width="467.4545454545455"/>
  <unicode hex="0074"/>
  <anchor x="228.2727272727273" y="1020.7792207792207" name="above" identifier="above"/>
  <anchor x="270.1558441558442" y="-130.9090909090909" name="below" identifier="below"/>
  <anchor x="186.38961038961043" y="1020.7792207792207" name="stem" identifier="stem"/>
  <anchor x="219.8961038961039" y="392.7272727272727" name="stroke" identifier="stroke"/>
  <anchor x="270.1558441558442" y="0" name="cedilla" identifier="cedilla"/>
  <anchor x="333.6623376623377" y="883.6363636363636" name="t_caron" identifier="t_caron"/>
  <outline>
    <contour>
      <point x="170.02597045898438" y="192.2077865600586" type="line"/>
      <point x="170.02597045898438" y="1.274981658307837"/>
      <point x="333.0797866985352" y="1.12103963495872e-15"/>
      <point x="362.23377" y="-2.4492935982947065e-15" type="curve"/>
      <point x="404.18182373046875" y="0" type="line"/>
      <point x="404.18182373046875" y="32.727272033691406" type="line"/>
      <point x="360.01242817703724" y="32.727272033691406" type="line"/>
      <point x="204.06446332496517" y="32.72727203369143"/>
      <point x="202.75324999786835" y="162.6419604702333"/>
      <point x="202.75325000445682" y="192.20779" type="curve"/>
      <point x="202.7532501220703" y="720" type="line"/>
      <point x="404.18182373046875" y="720" type="line"/>
      <point x="404.18182373046875" y="752.7272720336914" type="line"/>
      <point x="202.7532501220703" y="752.7272720336914" type="line"/>
      <point x="202.7532501220703" y="955.3246765136719" type="line"/>
      <point x="170.02597045898438" y="955.3246765136719" type="line"/>
      <point x="170.02597045898438" y="752.7272720336914" type="line"/>
      <point x="52.36363983154297" y="752.7272720336914" type="line"/>
      <point x="52.36363983154297" y="720" type="line"/>
      <point x="170.02597045898438" y="720" type="line"/>
    </contour>
  </outline>
</glyph>
<glyph name="v" format="2">
  <advance width="881.6931818181231"/>
  <unicode hex="0076"/>
  <anchor x="440.8465909090909" y="920.965909090909" name="above" identifier="above"/>
  <anchor x="440.8465909090909" y="-130.9090909090909" name="below" identifier="below"/>
  <outline>
    <contour>
      <point x="422.78800201416016" y="0" type="line"/>
      <point x="458.9051818847656" y="0" type="line"/>
      <point x="827.6931762695312" y="790.0568237304688" type="line"/>
      <point x="791.5759963989258" y="790.0568237304688" type="line"/>
      <point x="440.8465881347656" y="38.68702697753906" type="line"/>
      <point x="90.11717987060547" y="790.0568237304688" type="line"/>
      <point x="54" y="790.0568237304688" type="line"/>
    </contour>
  </outline>
</glyph>
<glyph name="w" format="2">
  <advance width="1367.9999999999998"/>
  <unicode hex="0077"/>
  <anchor x="684.0" y="920.965909090909" name="above" identifier="above"/>
  <anchor x="684.0" y="-130.9090909090909" name="below" identifier="below"/>
  <outline>
    <contour>
      <point x="368.5909118652344" y="0" type="line"/>
      <point x="402.95455169677734" y="0" type="line"/>
      <point x="684" y="738.4136199951172" type="line"/>
      <point x="965.0454483032227" y="0" type="line"/>
      <point x="999.4090881347656" y="0" type="line"/>
      <point x="1297.636360168457" y="790.0568237304688" type="line"/>
      <point x="1263.2727279663086" y="790.0568237304688" type="line"/>
      <point x="982.1562957763672" y="45.32966613769531" type="line"/>
      <point x="701.1818237304688" y="783.5568237304688" type="line"/>
      <point x="666.8181762695312" y="783.5568237304688" type="line"/>
      <point x="385.8437042236328" y="45.32966613769531" type="line"/>
      <point x="104.7272720336914" y="790.0568237304688" type="line"/>
      <point x="70.36363983154297" y="790.0568237304688" type="line"/>
    </contour>
  </outline>
</glyph>
<glyph name="x" format="2">
  <advance width="811.6363636364661"/>
  <unicode hex="0078"/>
  <anchor x="405.8181818181818" y="920.965909090909" name="above" identifier="above"/>
  <outline>
    <contour>
      <point x="70.36363983154297" y="0" type="line"/>
      <point x="112.19822692871094" y="0" type="line"/>
      <point x="405.8181838989258" y="368.75830841064453" type="line"/>
      <point x="699.4381408691406" y="0" type="line"/>
      <point x="741.2727279663086" y="0" type="line"/>
      <point x="426.73548126220703" y="395.0284118652344" type="line"/>
      <point x="741.2727279663086" y="790.0568237304688" type="line"/>
      <point x="699.4381408691406" y="790.0568237304688" type="line"/>
      <point x="405.8181838989258" y="421.2985153198242" type="line"/>
      <point x="112.19822692871094" y="790.0568237304688" type="line"/>
      <point x="70.36363983154297" y="790.0568237304688" type="line"/>
      <point x="384.90089416503906" y="395.0284118652344" type="line"/>
    </contour>
  </outline>
</glyph>
<glyph name="y" format="2">
  <advance width="881.6931818181818"/>
  <unicode hex="0079"/>
  <anchor x="440.8465909090909" y="920.965909090909" name="above" identifier="above"/>
  <anchor x="717.1655844155844" y="-130.9090909090909" name="below" identifier="below"/>
  <outline>
    <contour>
      <point x="279.09195709228516" y="-307.8409118652344" type="line"/>
      <point x="315.2091369628906" y="-307.8409118652344" type="line"/>
      <point x="458.905179977417" y="3.814697265625e-06" type="line"/>
      <point x="827.6931762695312" y="790.0568237304688" type="line"/>
      <point x="791.5759963989258" y="790.0568237304688" type="line"/>
      <point x="440.8465881347656" y="38.687034606933594" type="line"/>
      <point x="90.11717987060547" y="790.0568237304688" type="line"/>
      <point x="54" y="790.0568237304688" type="line"/>
      <point x="422.78800201416016" y="7.62939453125e-06" type="line"/>
    </contour>
  </outline>
</glyph>
<glyph name="z" format="2">
  <advance width="857.4545454545553"/>
  <unicode hex="007A"/>
  <outline>
    <contour>
      <point x="101.45455169677734" y="0" type="line"/>
      <point x="756" y="0" type="line"/>
      <point x="756" y="32.727272033691406" type="line"/>
      <point x="145.23751831054688" y="32.727272033691406" type="line"/>
      <point x="756" y="720" type="line"/>
      <point x="756" y="752.7272720336914" type="line"/>
      <point x="101.45455169677734" y="752.7272720336914" type="line"/>
      <point x="101.45455169677734" y="720" type="line"/>
      <point x="712.2170181274414" y="720" type="line"/>
      <point x="101.45455169677734" y="32.727272033691406" type="line"/>
    </contour>
  </outline>
</glyph>
<glyph name="braceleft" format="2">
  <advance width="535.6363636363636"/>
  <unicode hex="007B"/>
  <outline>
    <contour>
      <point x="270.5454559326172" y="163.63636016845703" type="line"/>
      <point x="270.5454545454545" y="55.26032334545457"/>
      <point x="358.5330506181818" y="-32.72727272727273"/>
      <point x="466.9090909090909" y="-32.72727272727273" type="curve"/>
      <point x="499.63636016845703" y="-32.727272033691406" type="line"/>
      <point x="499.63636016845703" y="0" type="line"/>
      <point x="466.9090881347656" y="0" type="line"/>
      <point x="376.59572399999996" y="0.0"/>
      <point x="303.27272727272725" y="73.32299672727272"/>
      <point x="303.27272727272725" y="163.63636363636365" type="curve"/>
      <point x="303.2727279663086" y="392.7272720336914" type="line"/>
      <point x="303.27272727272725" y="473.18835444025086"/>
      <point x="254.77441475893963" y="542.4114300762589"/>
      <point x="185.44082641601562" y="572.722900390625" type="curve"/>
      <point x="254.77441475893963" y="603.0431153782865"/>
      <point x="303.27272727272725" y="672.2661910142945"/>
      <point x="303.27272727272725" y="752.7272727272726" type="curve"/>
      <point x="303.2727279663086" y="981.8181838989258" type="line"/>
      <point x="303.27272727272725" y="1072.1315487272725"/>
      <point x="376.595724" y="1145.4545454545453"/>
      <point x="466.9090909090909" y="1145.4545454545453" type="curve"/>
      <point x="499.63636016845703" y="1145.4545440673828" type="line"/>
      <point x="499.63636016845703" y="1178.1818161010742" type="line"/>
      <point x="466.9090881347656" y="1178.1818161010742" type="line"/>
      <point x="358.5330506181818" y="1178.181818181818"/>
      <point x="270.5454545454545" y="1090.1942221090908"/>
      <point x="270.5454545454545" y="981.8181818181818" type="curve"/>
      <point x="270.5454559326172" y="752.7272720336914" type="line"/>
      <point x="270.5454545454545" y="662.4139058181818"/>
      <point x="197.22245781818182" y="589.090909090909"/>
      <point x="106.9090909090909" y="589.090909090909" type="curve"/>
      <point x="74.18181610107422" y="589.0909118652344" type="line"/>
      <point x="74.18181610107422" y="556.363639831543" type="line"/>
      <point x="106.90908813476562" y="556.363639831543" type="line"/>
      <point x="197.2224578181818" y="556.3636363636364"/>
      <point x="270.5454545454545" y="483.0406396363636"/>
      <point x="270.5454545454545" y="392.7272727272727" type="curve"/>
    </contour>
  </outline>
</glyph>
<glyph name="bar" format="2">
  <advance width="377.4545454545454"/>
  <unicode hex="007C"/>
  <outline>
    <contour>
      <point x="172.36363636363635" y="-32.72727272727273" type="line"/>
      <point x="205.09090909090907" y="-32.72727272727273" type="line"/>
      <point x="205.09090909090907" y="1178.181818181818" type="line"/>
      <point x="172.36363636363635" y="1178.181818181818" type="line"/>
    </contour>
  </outline>
</glyph>
<glyph name="braceright" format="2">
  <advance width="535.6363636363636"/>
  <unicode hex="007D"/>
  <outline>
    <contour>
      <point x="41.0" y="-32.727272033691406" type="line"/>
      <point x="256.3975774133889" y="-32.727272033691406"/>
      <point x="265.0909096715399" y="123.2943960877663"/>
      <point x="265.09091032567585" y="203.63636" type="curve"/>
      <point x="265.09091153955853" y="352.7272720336914" type="line"/>
      <point x="265.0909131388814" y="549.1585259431085"/>
      <point x="382.2803291035588" y="556.3636402390763"/>
      <point x="456.45455169677734" y="556.3636398572795" type="curve"/>
      <point x="461.45455169677734" y="556.363639831543" type="line"/>
      <point x="461.45455169677734" y="589.0909118652344" type="line"/>
      <point x="456.45455169677734" y="589.0909118652344" type="line"/>
      <point x="276.056394017187" y="589.0909118652344"/>
      <point x="265.0909096211984" y="706.2022832213183"/>
      <point x="265.09091032567585" y="792.72727" type="curve"/>
      <point x="265.09091153955853" y="941.8181762695312" type="line"/>
      <point x="265.0909133936579" y="1169.5414638943273"/>
      <point x="116.68578196574074" y="1178.1818145333743"/>
      <point x="40.99999999999997" y="1178.181823160536" type="curve"/>
      <point x="36" y="1178.1818237304688" type="line"/>
      <point x="36" y="1145.4545516967773" type="line"/>
      <point x="41.0" y="1145.4545516967773" type="line"/>
      <point x="221.39815767959035" y="1145.4545516967773"/>
      <point x="232.36364003421113" y="1028.3431667786817"/>
      <point x="232.36363997058686" y="941.81818" type="curve"/>
      <point x="232.36363986095608" y="792.7272720336914" type="line"/>
      <point x="232.36363981392603" y="728.7693545233509"/>
      <point x="235.07800083505188" y="623.0590804528806"/>
      <point x="350.1955337524414" y="572.7316513061523" type="curve"/>
      <point x="235.0755510069386" y="522.388611036368"/>
      <point x="232.36364001761672" y="416.68488367895145"/>
      <point x="232.36363997058686" y="352.72727" type="curve"/>
      <point x="232.36363986095608" y="203.63636016845703" type="line"/>
      <point x="232.36363971651465" y="7.205106259039837"/>
      <point x="115.17422259321854" y="0.0"/>
      <point x="41.0" y="0.0" type="curve"/>
      <point x="36" y="0" type="line"/>
      <point x="36" y="-32.727272033691406" type="line"/>
    </contour>
  </outline>
</glyph>
<glyph name="tilde" format="2">
  <advance width="999.3130192346625"/>
  <unicode hex="007E"/>
  <outline>
    <contour>
      <point x="564.5810907604105" y="429.0752181629149" type="line"/>
      <point x="620.103526836933" y="397.01932482878476"/>
      <point x="652.5497811068892" y="383.86364"/>
      <point x="693.31302" y="383.86364" type="curve"/>
      <point x="797.1733900000002" y="383.86364"/>
      <point x="881.49484" y="468.1850799999999"/>
      <point x="881.49484" y="572.04545" type="curve"/>
      <point x="848.7675628662109" y="572.0454483032227" type="line"/>
      <point x="848.76756" y="486.24775999999997"/>
      <point x="779.11072" y="416.59091"/>
      <point x="693.31302" y="416.59091" type="curve"/>
      <point x="652.0313375579045" y="416.59091"/>
      <point x="622.011300291248" y="433.7080768952927"/>
      <point x="581.9190705584398" y="456.8553359896141" type="curve"/>
      <point x="434.7319282165239" y="541.8338702803397" type="line"/>
      <point x="379.20949185453367" y="573.8897631200252"/>
      <point x="346.76323889311084" y="587.04545"/>
      <point x="306.0" y="587.04545" type="curve"/>
      <point x="202.13962999999995" y="587.04545"/>
      <point x="117.81818" y="502.72401"/>
      <point x="117.81818" y="398.86364" type="curve"/>
      <point x="150.54544830322266" y="398.86363983154297" type="line"/>
      <point x="150.54544999999996" y="484.66132813476565"/>
      <point x="220.20229999999998" y="554.31818"/>
      <point x="306.0" y="554.31818" type="curve"/>
      <point x="347.2816824420955" y="554.31818"/>
      <point x="377.30171974178904" y="537.2010131619286"/>
      <point x="417.39394926846364" y="514.0537537105735" type="curve"/>
    </contour>
  </outline>
</glyph>
<glyph name="inv_exclamation" format="2">
  <advance width="346.9090909090909"/>
  <unicode hex="00A1"/>
  <outline>
    <contour>
      <point x="117.81818" y="712.09091" type="curve" smooth="yes"/>
      <point x="117.81818" y="681.38436"/>
      <point x="142.748" y="656.45455"/>
      <point x="173.45455" y="656.45455" type="curve" smooth="yes"/>
      <point x="204.16109" y="656.45455"/>
      <point x="229.09091" y="681.38436"/>
      <point x="229.09091" y="712.09091" type="curve" smooth="yes"/>
      <point x="229.09091" y="742.79745"/>
      <point x="204.16109" y="767.72727"/>
      <point x="173.45455" y="767.72727" type="curve" smooth="yes"/>
      <point x="142.748" y="767.72727"/>
      <point x="117.81818" y="742.79745"/>
    </contour>
    <contour>
      <point x="189.81818" y="492.81818" type="line"/>
      <point x="157.09091" y="492.81818" type="line"/>
      <point x="157.09091" y="-327.27273" type="line"/>
      <point x="189.81818" y="-327.27273" type="line"/>
    </contour>
  </outline>
</glyph>
<glyph name="invertedexclam" format="2">
  <advance width="346.9090909090909"/>
  <unicode hex="00A1"/>
  <outline>
    <contour>
      <point x="117.81818181818181" y="712.090909090909" type="curve" smooth="yes"/>
      <point x="117.81818181818181" y="681.3843643418181"/>
      <point x="142.74800070545453" y="656.4545454545454"/>
      <point x="173.45454545454544" y="656.4545454545454" type="curve" smooth="yes"/>
      <point x="204.16109020363635" y="656.4545454545454"/>
      <point x="229.09090909090907" y="681.3843643418181"/>
      <point x="229.09090909090907" y="712.090909090909" type="curve" smooth="yes"/>
      <point x="229.09090909090907" y="742.7974538399999"/>
      <point x="204.16109020363638" y="767.7272727272726"/>
      <point x="173.45454545454547" y="767.7272727272726" type="curve" smooth="yes"/>
      <point x="142.74800070545456" y="767.7272727272726"/>
      <point x="117.81818181818181" y="742.79745384"/>
    </contour>
    <contour>
      <point x="189.81818181818178" y="492.81818181818176" type="line"/>
      <point x="157.09090909090907" y="492.81818181818176" type="line"/>
      <point x="157.09090909090895" y="-342.27272727272725" type="line"/>
      <point x="189.8181818181817" y="-342.27272727272725" type="line"/>
    </contour>
  </outline>
</glyph>
<glyph name="cent" format="2">
  <advance width="931.5316189852626"/>
  <unicode hex="00A2"/>
  <outline>
    <contour>
      <point x="473.75567626953125" y="0" type="line"/>
      <point x="504.8465881347656" y="0" type="line"/>
      <point x="504.8465881347656" y="118.20689392089844" type="line"/>
      <point x="668.3090528853149" y="124.33615736762009"/>
      <point x="807.2992606140999" y="226.8239784803"/>
      <point x="866.6155100000001" y="370.48295" type="curve"/>
      <point x="830.9350967407227" y="370.48294830322266" type="line"/>
      <point x="773.8161504239899" y="245.27738112356002"/>
      <point x="649.8878930853461" y="156.8747899894256"/>
      <point x="504.8465881347656" y="150.95886993408203" type="curve"/>
      <point x="504.8465881347656" y="900.9148101806641" type="line"/>
      <point x="649.8857233801394" y="895.0003737649404"/>
      <point x="773.81262436255" y="806.60000408875"/>
      <point x="830.93281" y="681.39205" type="curve"/>
      <point x="866.6225280761719" y="681.3920516967773" type="line"/>
      <point x="807.3098420037201" y="825.04381465516"/>
      <point x="668.3150481117614" y="927.5388065008616"/>
      <point x="504.8465881347656" y="933.6740951538086" type="curve"/>
      <point x="504.8465881347656" y="1051.875" type="line"/>
      <point x="473.75567626953125" y="1051.875" type="line"/>
      <point x="473.75567626953125" y="933.6684951782227" type="line"/>
      <point x="255.75023620639135" y="925.4917135385027"/>
      <point x="81.27273000000002" y="745.9295315078699"/>
      <point x="81.27273" y="525.9375" type="curve"/>
      <point x="81.27273" y="305.9454684921301"/>
      <point x="255.75023620639132" y="126.38328646149736"/>
      <point x="473.75567626953125" y="118.2010269165039" type="curve"/>
    </contour>
    <contour>
      <point x="114.00000000000004" y="525.9375" type="curve"/>
      <point x="114.0" y="727.8646800781299"/>
      <point x="273.81798588801075" y="892.7589228496645"/>
      <point x="473.75567626953125" y="900.912956237793" type="curve"/>
      <point x="473.75567626953125" y="150.95977783203125" type="line"/>
      <point x="273.81798588801075" y="159.11607715033546"/>
      <point x="114.00000000000003" y="324.01031992187"/>
    </contour>
  </outline>
</glyph>
<glyph name="pound" format="2">
  <advance width="972.0"/>
  <unicode hex="00A3"/>
  <outline>
    <contour>
      <point x="101.45454406738281" y="0" type="line"/>
      <point x="854.1818161010742" y="0" type="line"/>
      <point x="854.1818161010742" y="32.727272033691406" type="line"/>
      <point x="265.0909118652344" y="32.727272033691406" type="line"/>
      <point x="265.0909118652344" y="458.3181838989258" type="line"/>
      <point x="657.8181838989258" y="458.3181838989258" type="line"/>
      <point x="657.8181838989258" y="489.4090881347656" type="line"/>
      <point x="265.0909118652344" y="489.4090881347656" type="line"/>
      <point x="265.0909118652344" y="784.0909118652344" type="line"/>
      <point x="265.09090909090907" y="937.6236328363635"/>
      <point x="389.74000352727273" y="1062.2727272727273"/>
      <point x="543.2727272727273" y="1062.2727272727273" type="curve" smooth="yes"/>
      <point x="696.8054510181818" y="1062.2727272727273"/>
      <point x="821.4545454545455" y="937.6236328363635"/>
      <point x="821.4545454545455" y="784.090909090909" type="curve"/>
      <point x="854.1818161010742" y="784.0909118652344" type="line"/>
      <point x="854.1818181818181" y="955.6863062181818"/>
      <point x="714.8681244" y="1095.0"/>
      <point x="543.2727272727273" y="1095.0" type="curve" smooth="yes"/>
      <point x="371.6773301454545" y="1095.0"/>
      <point x="232.36363636363637" y="955.6863062181818"/>
      <point x="232.36363636363637" y="784.090909090909" type="curve"/>
      <point x="232.36363983154297" y="489.4090881347656" type="line"/>
      <point x="101.45454406738281" y="489.4090881347656" type="line"/>
      <point x="101.45454406738281" y="458.3181838989258" type="line"/>
      <point x="232.36363983154297" y="458.3181838989258" type="line"/>
      <point x="232.36363983154297" y="32.727272033691406" type="line"/>
      <point x="101.45454406738281" y="32.727272033691406" type="line"/>
    </contour>
  </outline>
</glyph>
<glyph name="currency" format="2">
  <advance width="854.9032851315462"/>
  <unicode hex="00A4"/>
  <outline>
    <contour>
      <point x="690.6334607475911" y="540.0" type="curve" smooth="yes"/>
      <point x="690.6334607475912" y="606.7469721116568"/>
      <point x="665.7320922262682" y="667.7238108668603"/>
      <point x="624.7205810546875" y="714.1272583007812" type="curve"/>
      <point x="802.5396499633789" y="891.9463272094727" type="line"/>
      <point x="779.3979721069336" y="915.088005065918" type="line"/>
      <point x="601.5807952880859" y="737.2708282470703" type="line"/>
      <point x="555.1664299982353" y="778.2841344491887"/>
      <point x="494.1936760414827" y="803.1818181818182"/>
      <point x="427.451642565773" y="803.1818181818182" type="curve" smooth="yes"/>
      <point x="360.7104806140541" y="803.1818181818181"/>
      <point x="299.7384475106452" y="778.2847846777142"/>
      <point x="253.32437896728516" y="737.2689437866211" type="curve"/>
      <point x="75.50531005859375" y="915.088005065918" type="line"/>
      <point x="52.36363983154297" y="891.9463272094727" type="line"/>
      <point x="230.18081665039062" y="714.129150390625" type="line"/>
      <point x="189.17043425002336" y="667.7219531061194"/>
      <point x="164.26982438395493" y="606.7459553336676"/>
      <point x="164.26982438395493" y="539.9999999999999" type="curve" smooth="yes"/>
      <point x="164.26982438395493" y="473.2530278883432"/>
      <point x="189.17119290527805" y="412.27618913313967"/>
      <point x="230.18270111083984" y="365.8727340698242" type="curve"/>
      <point x="52.36363983154297" y="188.05367279052734" type="line"/>
      <point x="75.50531005859375" y="164.91199493408203" type="line"/>
      <point x="253.32249450683594" y="342.7291717529297" type="line"/>
      <point x="299.7368551333107" y="301.71586555081126"/>
      <point x="360.7096090900634" y="276.8181818181818"/>
      <point x="427.45164256577306" y="276.8181818181818" type="curve" smooth="yes"/>
      <point x="494.19280451749205" y="276.8181818181818"/>
      <point x="555.164837620901" y="301.71521532228564"/>
      <point x="601.5789031982422" y="342.73106384277344" type="curve"/>
      <point x="779.3979721069336" y="164.91199493408203" type="line"/>
      <point x="802.5396499633789" y="188.05367279052734" type="line"/>
      <point x="624.7224731445312" y="365.870849609375" type="line"/>
      <point x="665.7328508815227" y="412.2780468938804"/>
      <point x="690.6334607475911" y="473.2540446663322"/>
    </contour>
    <contour>
      <point x="657.9061880203185" y="540.0" type="curve" smooth="yes"/>
      <point x="657.9061880203185" y="412.8086749363635"/>
      <point x="554.6429676294094" y="309.5454545454545"/>
      <point x="427.4516425657731" y="309.5454545454545" type="curve" smooth="yes"/>
      <point x="300.2603175021367" y="309.5454545454545"/>
      <point x="196.99709711122762" y="412.8086749363636"/>
      <point x="196.99709711122767" y="540.0" type="curve" smooth="yes"/>
      <point x="196.99709711122767" y="667.1913250636363"/>
      <point x="300.26031750213673" y="770.4545454545454"/>
      <point x="427.4516425657731" y="770.4545454545454" type="curve" smooth="yes"/>
      <point x="554.6429676294094" y="770.4545454545454"/>
      <point x="657.9061880203185" y="667.1913250636363"/>
    </contour>
  </outline>
</glyph>
<glyph name="yen" format="2">
  <advance width="942.5454545454545"/>
  <unicode hex="00A5"/>
  <anchor x="471.27272727272725" y="1204.7727272727273" name="above" identifier="above"/>
  <anchor x="471.27272727272725" y="-130.9090909090909" name="below" identifier="below"/>
  <outline>
    <contour>
      <point x="94.90908813476562" y="200.45455169677734" type="line"/>
      <point x="454.9090881347656" y="200.45455169677734" type="line"/>
      <point x="454.9090881347656" y="0" type="line"/>
      <point x="487.63636016845703" y="0" type="line"/>
      <point x="487.63636016845703" y="200.45455169677734" type="line"/>
      <point x="847.636360168457" y="200.45455169677734" type="line"/>
      <point x="847.636360168457" y="231.54544830322266" type="line"/>
      <point x="487.63636016845703" y="231.54544830322266" type="line"/>
      <point x="487.63636016845703" y="409.0909118652344" type="line"/>
      <point x="847.636360168457" y="409.0909118652344" type="line"/>
      <point x="847.636360168457" y="440.18182373046875" type="line"/>
      <point x="499.6705627441406" y="440.18182373046875" type="line"/>
      <point x="904.9090881347656" y="1073.863639831543" type="line"/>
      <point x="866.0619735717773" y="1073.863639831543" type="line"/>
      <point x="471.2727279663086" y="456.5216369628906" type="line"/>
      <point x="76.48348999023438" y="1073.863639831543" type="line"/>
      <point x="37.63636016845703" y="1073.863639831543" type="line"/>
      <point x="442.87488555908203" y="440.18182373046875" type="line"/>
      <point x="94.90908813476562" y="440.18182373046875" type="line"/>
      <point x="94.90908813476562" y="409.0909118652344" type="line"/>
      <point x="454.9090881347656" y="409.0909118652344" type="line"/>
      <point x="454.9090881347656" y="231.54544830322266" type="line"/>
      <point x="94.90908813476562" y="231.54544830322266" type="line"/>
    </contour>
  </outline>
</glyph>
<glyph name="brokenbar" format="2">
  <advance width="380.72727272727275"/>
  <unicode hex="00A6"/>
  <outline>
    <contour>
      <point x="174.0" y="664.77273" type="line"/>
      <point x="206.72727" y="664.77273" type="line"/>
      <point x="206.72727" y="1149.54545" type="line"/>
      <point x="174.0" y="1149.54545" type="line"/>
    </contour>
    <contour>
      <point x="174.0" y="-16.36364" type="line"/>
      <point x="206.72727" y="-16.36364" type="line"/>
      <point x="206.72727" y="468.40909" type="line"/>
      <point x="174.0" y="468.40909" type="line"/>
    </contour>
  </outline>
</glyph>
<glyph name="section" format="2">
  <advance width="805.0909090909091"/>
  <unicode hex="00A7"/>
  <outline>
    <contour>
      <point x="505.10391998291016" y="648.9210815429688" type="line"/>
      <point x="510.73956298828125" y="647.1253128051758" type="line"/>
      <point x="511.9325180053711" y="646.7232666015625" type="line"/>
      <point x="516.0918960571289" y="645.3102722167969" type="line"/>
      <point x="518.9913635253906" y="644.2741622924805" type="line"/>
      <point x="521.372314453125" y="643.4142227172852" type="line"/>
      <point x="525.2213897705078" y="641.9590530395508" type="line"/>
      <point x="526.5776290893555" y="641.4395217895508" type="line"/>
      <point x="531.0382537841797" y="639.6588821411133" type="line"/>
      <point x="531.7033843994141" y="639.3892135620117" type="line"/>
      <point x="536.5971450805664" y="637.3300247192383" type="line"/>
      <point x="536.7464904785156" y="637.2660522460938" type="line"/>
      <point x="579.6309946647946" y="618.7413871132932"/>
      <point x="615.0218870437334" y="591.6166018444565"/>
      <point x="638.666862487793" y="559.0641708374023" type="curve"/>
      <point x="638.6681747436523" y="559.0623474121094" type="line"/>
      <point x="641.4160766601562" y="555.1765747070312" type="line"/>
      <point x="641.5018692016602" y="555.0510635375977" type="line"/>
      <point x="644.0688018798828" y="551.2163848876953" type="line"/>
      <point x="644.2106246948242" y="550.9962921142578" type="line"/>
      <point x="646.6188659667969" y="547.18798828125" type="line"/>
      <point x="646.7893829345703" y="546.906623840332" type="line"/>
      <point x="649.0607757568359" y="543.0956726074219" type="line"/>
      <point x="649.2318496704102" y="542.7946701049805" type="line"/>
      <point x="651.3901443481445" y="538.9425659179688" type="line"/>
      <point x="651.5255279541016" y="538.6877593994141" type="line"/>
      <point x="653.603401184082" y="534.7308883666992" type="line"/>
      <point x="653.6404266357422" y="534.6560745239258" type="line"/>
      <point x="657.0504295430627" y="527.9355887592839"/>
      <point x="659.9888089910211" y="521.0407243428548"/>
      <point x="662.425407409668" y="513.9659729003906" type="curve"/>
      <point x="662.7197189331055" y="513.1345901489258" type="line"/>
      <point x="663.663818359375" y="510.2171630859375" type="line"/>
      <point x="664.1905899047852" y="508.56974029541016" type="line"/>
      <point x="664.9511032104492" y="505.95823669433594" type="line"/>
      <point x="665.5204849243164" y="503.96607971191406" type="line"/>
      <point x="666.1566162109375" y="501.51062774658203" type="line"/>
      <point x="666.707649230957" y="499.3250732421875" type="line"/>
      <point x="667.2451705932617" y="496.9585723876953" type="line"/>
      <point x="667.7503128051758" y="494.6485595703125" type="line"/>
      <point x="668.2024002075195" y="492.33487701416016" type="line"/>
      <point x="668.6468887329102" y="489.9375915527344" type="line"/>
      <point x="669.0206909179688" y="487.65564727783203" type="line"/>
      <point x="669.3956756591797" y="485.19374084472656" type="line"/>
      <point x="669.6953125" y="482.9296569824219" type="line"/>
      <point x="669.9950256347656" y="480.41837310791016" type="line"/>
      <point x="670.2227401733398" y="478.1632843017578" type="line"/>
      <point x="670.4433212280273" y="475.6124038696289" type="line"/>
      <point x="670.6002578735352" y="473.36043548583984" type="line"/>
      <point x="670.738883972168" y="470.7774200439453" type="line"/>
      <point x="670.8255081176758" y="468.5243835449219" type="line"/>
      <point x="670.8936080932617" y="465.2651824951172" type="line"/>
      <point x="670.9090881347656" y="463.9090881347656" type="line"/>
      <point x="670.9090909090908" y="353.42573872363624"/>
      <point x="550.6593762763637" y="263.7272727272727"/>
      <point x="402.5454545454545" y="263.7272727272727" type="curve" smooth="yes"/>
      <point x="366.9486432801782" y="263.7272727272727"/>
      <point x="332.96128064185865" y="268.9082948331338"/>
      <point x="301.86595153808594" y="278.3236083984375" type="curve"/>
      <point x="301.4000473022461" y="278.4649124145508" type="line"/>
      <point x="297.80332678256605" y="279.5557399910781"/>
      <point x="294.2454953790417" y="280.70329115210495"/>
      <point x="290.728515625" y="281.91383361816406" type="curve"/>
      <point x="289.75791931152344" y="282.2409439086914" type="line"/>
      <point x="286.7733459472656" y="283.30323028564453" type="line"/>
      <point x="233.82880442052377" y="302.2237801954545"/>
      <point x="190.47724484372833" y="333.7331819799477"/>
      <point x="163.6911163330078" y="372.6185836791992" type="curve"/>
      <point x="163.61660766601562" y="372.72594451904297" type="line"/>
      <point x="161.13648986816406" y="376.4309387207031" type="line"/>
      <point x="160.87322998046875" y="376.83304595947266" type="line"/>
      <point x="158.64845275878906" y="380.35121154785156" type="line"/>
      <point x="158.25189971923828" y="380.9948043823242" type="line"/>
      <point x="156.2442398071289" y="384.36327362060547" type="line"/>
      <point x="155.75504302978516" y="385.2091522216797" type="line"/>
      <point x="153.93659210205078" y="388.45471954345703" type="line"/>
      <point x="153.3840560913086" y="389.47571563720703" type="line"/>
      <point x="151.73422241210938" y="392.6174774169922" type="line"/>
      <point x="151.14112091064453" y="393.79280853271484" type="line"/>
      <point x="149.6435089111328" y="396.8460998535156" type="line"/>
      <point x="149.02823638916016" y="398.15907287597656" type="line"/>
      <point x="147.67005157470703" y="401.1353759765625" type="line"/>
      <point x="147.04727935791016" y="402.57335662841797" type="line"/>
      <point x="145.81808471679688" y="405.4819793701172" type="line"/>
      <point x="145.2002410888672" y="407.03429412841797" type="line"/>
      <point x="144.09163665771484" y="409.8822555541992" type="line"/>
      <point x="143.48844146728516" y="411.5423889160156" type="line"/>
      <point x="142.4941635131836" y="414.3331298828125" type="line"/>
      <point x="141.9132080078125" y="416.09883880615234" type="line"/>
      <point x="141.02861785888672" y="418.83238220214844" type="line"/>
      <point x="140.47506713867188" y="420.7087097167969" type="line"/>
      <point x="139.69782257080078" y="423.377685546875" type="line"/>
      <point x="139.17066192626953" y="425.3952102661133" type="line"/>
      <point x="138.50442504882812" y="427.96685791015625" type="line"/>
      <point x="137.9421157836914" y="430.4352722167969" type="line"/>
      <point x="137.6607907776934" y="431.59725316703157"/>
      <point x="137.39481799848127" y="432.8424085191287"/>
      <point x="137.14434814453125" y="434.17395782470703" type="curve"/>
      <point x="136.55426025390625" y="437.2075729370117" type="line"/>
      <point x="136.23373413085938" y="439.16436767578125" type="line"/>
      <point x="135.78611755371094" y="441.93768310546875" type="line"/>
      <point x="135.51551818847656" y="443.9823760986328" type="line"/>
      <point x="135.1666488647461" y="446.6989974975586" type="line"/>
      <point x="134.9544448852539" y="448.8005142211914" type="line"/>
      <point x="134.69744873046875" y="451.4902801513672" type="line"/>
      <point x="134.5478744506836" y="453.6365966796875" type="line"/>
      <point x="134.38011169433594" y="456.310302734375" type="line"/>
      <point x="134.2960968017578" y="458.49564361572266" type="line"/>
      <point x="134.21137237548828" y="461.32056427001953" type="line"/>
      <point x="134.18181610107422" y="463.9090881347656" type="line"/>
      <point x="134.1818181818182" y="574.3924430945455"/>
      <point x="254.43153281454545" y="664.090909090909"/>
      <point x="402.5454545454545" y="664.090909090909" type="curve" smooth="yes"/>
      <point x="438.34310828859793" y="664.090909090909"/>
      <point x="472.51310067512617" y="658.8512578661134"/>
      <point x="503.7510757446289" y="649.3381042480469" type="curve"/>
    </contour>
    <contour>
      <point x="110.18181610107422" y="30.81818389892578" type="line"/>
      <point x="110.18181818181819" y="-78.46099214181822"/>
      <point x="241.1855723345454" y="-167.18181818181816"/>
      <point x="402.5454545454545" y="-167.18181818181816" type="curve" smooth="yes"/>
      <point x="563.9053367563636" y="-167.18181818181816"/>
      <point x="694.9090909090908" y="-78.46099214181822"/>
      <point x="694.9090909090908" y="30.818181818181753" type="curve"/>
      <point x="694.9090909090908" y="111.2550848365711"/>
      <point x="623.9575210541373" y="180.63834280317133"/>
      <point x="522.1153631036932" y="211.52545498934657" type="curve"/>
      <point x="448.8290252685547" y="233.75203704833984" type="line"/>
      <point x="593.0658741168737" y="250.98409276542893"/>
      <point x="703.6363636363635" y="347.53688814714104"/>
      <point x="703.6363636363635" y="463.90909090909076" type="curve"/>
      <point x="703.6363636363635" y="465.58044633351653"/>
      <point x="703.6135561012172" y="467.24771358005347"/>
      <point x="703.5681686401367" y="468.8607711791992" type="curve"/>
      <point x="703.6363636363635" y="466.25688784577767"/>
      <point x="703.591371217506" y="468.59665896310173"/>
      <point x="703.5020217895508" y="470.5286102294922" type="curve"/>
      <point x="703.4648180004039" y="471.8972195067378"/>
      <point x="703.4199150001303" y="472.866408554251"/>
      <point x="703.3673553466797" y="473.7857971191406" type="curve"/>
      <point x="703.327493040809" y="474.5699742721513"/>
      <point x="703.2832380518904" y="475.3031247222913"/>
      <point x="703.2345962524414" y="475.7935256958008" type="curve"/>
      <point x="703.1748127549073" y="476.9334554021134"/>
      <point x="703.1084210161999" y="477.83196001734325"/>
      <point x="703.0354385375977" y="478.68251037597656" type="curve"/>
      <point x="702.9734034816603" y="479.49461033916674"/>
      <point x="702.9066069346267" y="480.2565380105737"/>
      <point x="702.835075378418" y="480.84559631347656" type="curve"/>
      <point x="702.7540961240655" y="481.87576266975094"/>
      <point x="702.6670711227483" y="482.7355496915435"/>
      <point x="702.5740356445312" y="483.54883575439453" type="curve"/>
      <point x="702.4892789352455" y="484.37945672430425"/>
      <point x="702.3995108738748" y="485.1605289501914"/>
      <point x="702.3047714233398" y="485.8081512451172" type="curve"/>
      <point x="702.2037386457968" y="486.7679245627031"/>
      <point x="702.0970214173443" y="487.598362331936"/>
      <point x="701.9846801757812" y="488.3841323852539" type="curve"/>
      <point x="701.8766478254923" y="489.22950641070605"/>
      <point x="701.763409922747" y="490.0257588842112"/>
      <point x="701.6449966430664" y="490.7139205932617" type="curve"/>
      <point x="701.5250456645501" y="491.62073084431523"/>
      <point x="701.3997880407653" y="492.42455768222925"/>
      <point x="701.2692413330078" y="493.1855926513672" type="curve"/>
      <point x="701.1371907929032" y="494.0448815714418"/>
      <point x="700.9997098509201" y="494.8557165218376"/>
      <point x="700.8568572998047" y="495.57613372802734" type="curve"/>
      <point x="700.7193535956308" y="496.4377786775153"/>
      <point x="700.5768707932662" y="497.2154680122123"/>
      <point x="700.4294509887695" y="497.9520492553711" type="curve"/>
      <point x="700.2724218787667" y="498.8258722475318"/>
      <point x="700.1097638264981" y="499.65162351523867"/>
      <point x="699.9415130615234" y="500.4000244140625" type="curve"/>
      <point x="699.7881831754645" y="501.2193628699659"/>
      <point x="699.630180350363" y="501.96930486234953"/>
      <point x="699.4675216674805" y="502.6802444458008" type="curve"/>
      <point x="699.2842812816618" y="503.5702161487539"/>
      <point x="699.0952003529054" y="504.4124072754142"/>
      <point x="698.900276184082" y="505.1873321533203" type="curve"/>
      <point x="698.732954360636" y="505.9656313193866"/>
      <point x="698.5613342246392" y="506.6858979374698"/>
      <point x="698.3854064941406" y="507.36903381347656" type="curve"/>
      <point x="698.1746238853681" y="508.27652790239733"/>
      <point x="697.957717932854" y="509.13672254575897"/>
      <point x="697.7347030639648" y="509.93758392333984" type="curve"/>
      <point x="697.5555736499459" y="510.67440188172327"/>
      <point x="697.3725131351454" y="511.36264074924156"/>
      <point x="697.1855316162109" y="512.0155487060547" type="curve"/>
      <point x="696.945425208689" y="512.9431670970607"/>
      <point x="696.6988186460746" y="513.8240702153529"/>
      <point x="696.4457931518555" y="514.6520309448242" type="curve"/>
      <point x="696.2576766323725" y="515.3448553046217"/>
      <point x="696.0660227732296" y="515.9971025150244"/>
      <point x="695.8708190917969" y="516.6160583496094" type="curve"/>
      <point x="695.5990317171136" y="517.5675150078598"/>
      <point x="695.3204034255451" y="518.472478684766"/>
      <point x="695.0350036621094" y="519.3297271728516" type="curve"/>
      <point x="694.8412280754211" y="519.9751005153864"/>
      <point x="694.6443208579032" y="520.5869102651035"/>
      <point x="694.4442749023438" y="521.1675262451172" type="curve"/>
      <point x="694.1381076327938" y="522.1465609547183"/>
      <point x="693.8245944750196" y="523.0796496648012"/>
      <point x="693.5038223266602" y="523.9695739746094" type="curve"/>
      <point x="693.3084881735593" y="524.5626892635574"/>
      <point x="693.110422189227" y="525.1285662691853"/>
      <point x="692.9096755981445" y="525.665412902832" type="curve"/>
      <point x="692.5654622577875" y="526.677556262551"/>
      <point x="692.2133191441179" y="527.6442363150203"/>
      <point x="691.8533325195312" y="528.5715560913086" type="curve"/>
      <point x="691.6618620082061" y="529.1052295993363"/>
      <point x="691.4681300766895" y="529.61726380985"/>
      <point x="691.2721405029297" y="530.1028900146484" type="curve"/>
      <point x="690.8850642652596" y="531.1553286415033"/>
      <point x="690.4893571274395" y="532.1628633182099"/>
      <point x="690.0850448608398" y="533.1343154907227" type="curve"/>
      <point x="689.9042801535824" y="533.599459062942"/>
      <point x="689.7218294979465" y="534.0478854459893"/>
      <point x="689.537712097168" y="534.4725494384766" type="curve"/>
      <point x="689.1015328764989" y="535.5743434210754"/>
      <point x="688.6557348631293" y="536.6322524415641"/>
      <point x="688.2004241943359" y="537.6566925048828" type="curve"/>
      <point x="688.0398079400281" y="538.040131836012"/>
      <point x="687.8779868020441" y="538.4116810580273"/>
      <point x="687.7149200439453" y="538.7631683349609" type="curve"/>
      <point x="687.2209768955829" y="539.9269793241127"/>
      <point x="686.7162400440817" y="541.048090182026"/>
      <point x="686.2008438110352" y="542.1377563476562" type="curve"/>
      <point x="686.0735294266923" y="542.4209203386068"/>
      <point x="685.9454948532732" y="542.6966741925373"/>
      <point x="685.8167572021484" y="542.9568405151367" type="curve"/>
      <point x="685.252922704193" y="544.2001602433306"/>
      <point x="684.6765342489425" y="545.4030928601198"/>
      <point x="684.0876693725586" y="546.5765533447266" type="curve"/>
      <point x="684.0130360840072" y="546.7317629319292"/>
      <point x="683.9382538071826" y="546.8834144395757"/>
      <point x="683.8632354736328" y="547.0259323120117" type="curve"/>
      <point x="657.1410808577187" y="601.093003466983"/>
      <point x="605.1463490035578" y="645.4924511719271"/>
      <point x="539.0784454345703" y="671.5116119384766" type="curve"/>
      <point x="538.8342291349909" y="671.6122904143987"/>
      <point x="538.5897789659866" y="671.7084369956835"/>
      <point x="538.3451995849609" y="671.8021621704102" type="curve"/>
      <point x="537.0201938039282" y="672.3310506147873"/>
      <point x="535.6896093095673" y="672.8421946913779"/>
      <point x="534.3533325195312" y="673.3324432373047" type="curve"/>
      <point x="533.8021917093063" y="673.548473417909"/>
      <point x="533.250023083052" y="673.7553781349299"/>
      <point x="532.6970062255859" y="673.9559326171875" type="curve"/>
      <point x="531.6256132833106" y="674.3630984968515"/>
      <point x="530.5506790782138" y="674.7559427772755"/>
      <point x="529.4724197387695" y="675.1316375732422" type="curve"/>
      <point x="528.6227922737376" y="675.4479235387493"/>
      <point x="527.7710950836074" y="675.7512225862149"/>
      <point x="526.9173202514648" y="676.043701171875" type="curve"/>
      <point x="526.1021821254442" y="676.3381449477407"/>
      <point x="525.2850890564836" y="676.621532816239"/>
      <point x="524.4660491943359" y="676.8922424316406" type="curve"/>
      <point x="523.3105363490299" y="677.3001951041367"/>
      <point x="522.1512847987997" y="677.6914795383314"/>
      <point x="520.9880828857422" y="678.0671157836914" type="curve"/>
      <point x="520.4443565461768" y="678.2534675718948"/>
      <point x="519.8996433025009" y="678.4322649579273"/>
      <point x="519.3541488647461" y="678.6030502319336" type="curve"/>
      <point x="517.8711544906186" y="679.0987522963553"/>
      <point x="516.3820171287314" y="679.5737343257111"/>
      <point x="514.8867492675781" y="680.0279235839844" type="curve"/>
      <point x="514.5455220216564" y="680.1373591510308"/>
      <point x="514.2041082339375" y="680.2429311189505"/>
      <point x="513.8623868075285" y="680.3480313387784" type="curve"/>
      <point x="512.8949661254883" y="680.6455688476562" type="line"/>
      <point x="512.4105805924256" y="680.8019746183469"/>
      <point x="511.9255189186162" y="680.9489025365954"/>
      <point x="511.43970489501953" y="681.0931549072266" type="curve"/>
      <point x="296.32801055908203" y="747.2531433105469" type="line"/>
      <point x="210.85825001221366" y="773.5403187542373"/>
      <point x="151.63636363636363" y="830.7848476322908"/>
      <point x="151.63636363636363" y="896.9999999999999" type="curve"/>
      <point x="151.63636363636363" y="988.2165005781819"/>
      <point x="264.06495861818183" y="1062.2727272727273"/>
      <point x="402.5454545454545" y="1062.2727272727273" type="curve" smooth="yes"/>
      <point x="541.0259504727271" y="1062.2727272727273"/>
      <point x="653.4545454545455" y="988.2165005781819"/>
      <point x="653.4545454545455" y="896.9999999999999" type="curve"/>
      <point x="686.1818161010742" y="897" type="line"/>
      <point x="686.1818181818182" y="1006.27917396"/>
      <point x="559.0886238545456" y="1095.0"/>
      <point x="402.5454545454545" y="1095.0" type="curve" smooth="yes"/>
      <point x="246.00228523636363" y="1095.0"/>
      <point x="118.9090909090909" y="1006.27917396"/>
      <point x="118.9090909090909" y="896.9999999999999" type="curve"/>
      <point x="118.9090909090909" y="816.1951540028874"/>
      <point x="188.37546950147757" y="746.5543552027831"/>
      <point x="287.90236150568177" y="715.8746471058238" type="curve"/>
      <point x="357.984130859375" y="694.2715606689453" type="line"/>
      <point x="212.90617266281222" y="677.6016793181187"/>
      <point x="101.45454545454547" y="580.7440593630828"/>
      <point x="101.45454545454545" y="463.9090909090908" type="curve"/>
      <point x="101.45454545454545" y="462.23850676081867"/>
      <point x="101.47733194467774" y="460.57200701818357"/>
      <point x="101.52267456054688" y="458.95919036865234" type="curve"/>
      <point x="101.45454545454545" y="461.5615329996251"/>
      <point x="101.49952890134044" y="459.2219991941744"/>
      <point x="101.5888671875" y="457.2899932861328" type="curve"/>
      <point x="101.6260303567243" y="455.92249355483"/>
      <point x="101.6708691085859" y="454.9544493290066"/>
      <point x="101.72332763671875" y="454.03585052490234" type="curve"/>
      <point x="101.76321310092774" y="453.2516567317389"/>
      <point x="101.80750011383586" y="452.5177721591252"/>
      <point x="101.8561782836914" y="452.0267639160156" type="curve"/>
      <point x="101.91585749445376" y="450.88815141353376"/>
      <point x="101.9821454036444" y="449.9907835183805"/>
      <point x="102.05499267578125" y="449.14087677001953" type="curve"/>
      <point x="102.11705299846446" y="448.32886714998466"/>
      <point x="102.18387258875657" y="447.56643592975144"/>
      <point x="102.25543212890625" y="446.97694396972656" type="curve"/>
      <point x="102.3362814004822" y="445.94784212012877"/>
      <point x="102.42318964111257" y="445.0889314072818"/>
      <point x="102.51610565185547" y="444.2758026123047" type="curve"/>
      <point x="102.60085658723526" y="443.4456150254765"/>
      <point x="102.69062190816821" y="442.66431155003465"/>
      <point x="102.7853775024414" y="442.01644134521484" type="curve"/>
      <point x="102.8862894309315" y="441.0572782412135"/>
      <point x="102.99284378490177" y="440.22783512421995"/>
      <point x="103.10503387451172" y="439.4422607421875" type="curve"/>
      <point x="103.21308924675105" y="438.5970729818014"/>
      <point x="103.32637864844996" y="437.8002048702164"/>
      <point x="103.44487762451172" y="437.1114044189453" type="curve"/>
      <point x="103.56462452945121" y="436.2055505252803"/>
      <point x="103.68968916240809" y="435.4027109915255"/>
      <point x="103.82000732421875" y="434.6422119140625" type="curve"/>
      <point x="103.95213037098385" y="433.78282904891313"/>
      <point x="104.08965664837343" y="432.9714759294326"/>
      <point x="104.23258209228516" y="432.2505874633789" type="curve"/>
      <point x="104.36983472325396" y="431.38993699877267"/>
      <point x="104.51209346981594" y="430.6132270168316"/>
      <point x="104.65928649902344" y="429.8770446777344" type="curve"/>
      <point x="104.81634719651043" y="429.0033500652256"/>
      <point x="104.97901913695702" y="428.1772672400764"/>
      <point x="105.14727783203125" y="427.42874908447266" type="curve"/>
      <point x="105.3004716069672" y="426.60964232868815"/>
      <point x="105.45832526228106" y="425.86018025340763"/>
      <point x="105.62075805664062" y="425.1495132446289" type="curve"/>
      <point x="105.80391387778066" y="424.2602374290449"/>
      <point x="105.99297044472314" y="423.41788944132776"/>
      <point x="106.18789672851562" y="422.6429138183594" type="curve"/>
      <point x="106.35507256503719" y="421.8647655229403"/>
      <point x="106.52652693203473" y="421.1449739095721"/>
      <point x="106.7022933959961" y="420.46179962158203" type="curve"/>
      <point x="106.91308771067607" y="419.5545089274146"/>
      <point x="107.13002206135454" y="418.6939472366144"/>
      <point x="107.35308074951172" y="417.89295196533203" type="curve"/>
      <point x="107.53194617578883" y="417.1566362090539"/>
      <point x="107.7147305304162" y="416.4692316533929"/>
      <point x="107.90145874023438" y="415.8165969848633" type="curve"/>
      <point x="108.14163576700413" y="414.8889345061109"/>
      <point x="108.38828361900502" y="414.00762582890496"/>
      <point x="108.64138793945312" y="413.1794204711914" type="curve"/>
      <point x="108.82929952370864" y="412.486809947938"/>
      <point x="109.02076232184133" y="411.8350294936573"/>
      <point x="109.21573638916016" y="411.21624755859375" type="curve"/>
      <point x="109.48750871804943" y="410.26502540227364"/>
      <point x="109.7661444196702" y="409.3597835395225"/>
      <point x="110.05157470703125" y="408.5025100708008" type="curve"/>
      <point x="110.2451727344337" y="407.857178535432"/>
      <point x="110.44187739028875" y="407.2458315228988"/>
      <point x="110.64175415039062" y="406.66519927978516" type="curve"/>
      <point x="110.94799355269235" y="405.68608968014223"/>
      <point x="111.26151345530457" y="404.7527343487178"/>
      <point x="111.58231353759766" y="403.8628387451172" type="curve"/>
      <point x="111.77751058937352" y="403.2695965848512"/>
      <point x="111.97544860165682" y="402.7039422382559"/>
      <point x="112.1760482788086" y="402.16703033447266" type="curve"/>
      <point x="112.52020528469173" y="401.1551650325284"/>
      <point x="112.87229809174474" y="400.18838024659584"/>
      <point x="113.23219299316406" y="399.26145935058594" type="curve"/>
      <point x="113.42377640526189" y="398.7269402150781"/>
      <point x="113.61764648786864" y="398.21442298065244"/>
      <point x="113.81377410888672" y="397.7280502319336" type="curve"/>
      <point x="114.20052224234313" y="396.6765484639254"/>
      <point x="114.59588525193492" y="395.669657976282"/>
      <point x="114.99983978271484" y="394.6992645263672" type="curve"/>
      <point x="115.18123803461994" y="394.23200867922026"/>
      <point x="115.3643681074116" y="393.7818239158665"/>
      <point x="115.54920959472656" y="393.3551483154297" type="curve"/>
      <point x="115.98460730279584" y="392.255287474344"/>
      <point x="116.42949494468387" y="391.1993326116286"/>
      <point x="116.88379669189453" y="390.17740631103516" type="curve"/>
      <point x="117.04617555931166" y="389.78936995622996"/>
      <point x="117.20968697238914" y="389.41388678063737"/>
      <point x="117.37435150146484" y="389.0586700439453" type="curve"/>
      <point x="117.86640345238501" y="387.899165193659"/>
      <point x="118.36919760136672" y="386.78219929813434"/>
      <point x="118.8826675415039" y="385.6969223022461" type="curve"/>
      <point x="119.01360043992015" y="385.4053866393397"/>
      <point x="119.1451890054251" y="385.1219608385233"/>
      <point x="119.27753448486328" y="384.854248046875" type="curve"/>
      <point x="119.83774079735113" y="383.6186446868405"/>
      <point x="120.41031954199977" y="382.4235795415087"/>
      <point x="120.99520874023438" y="381.2584457397461" type="curve"/>
      <point x="121.0767982415408" y="381.08856941983186"/>
      <point x="121.15857686517273" y="380.92274136088406"/>
      <point x="121.24066162109375" y="380.7666549682617" type="curve"/>
      <point x="121.8855942832028" y="379.4314861470668"/>
      <point x="122.54527463036784" y="378.1333382915875"/>
      <point x="123.21953582763672" y="376.86400604248047" type="curve"/>
      <point x="123.22463613487288" y="376.85405298986865"/>
      <point x="123.22979768765603" y="376.8441641775176"/>
      <point x="123.2349853515625" y="376.8348617553711" type="curve"/>
      <point x="151.25927963327348" y="323.1141047755211"/>
      <point x="204.41054789334174" y="279.31746638329747"/>
      <point x="271.4029235839844" y="254.23067474365234" type="curve"/>
      <point x="271.59157793243" y="254.15656543358577"/>
      <point x="271.7804022914376" y="254.0858915040299"/>
      <point x="271.96944427490234" y="254.01700592041016" type="curve"/>
      <point x="273.3659999695738" y="253.4858998036021"/>
      <point x="274.76850542224713" y="252.97359874441665"/>
      <point x="276.17688751220703" y="252.48294830322266" type="curve"/>
      <point x="276.6758492673324" y="252.29687082411454"/>
      <point x="277.17572559761334" y="252.11891426486866"/>
      <point x="277.67616271972656" y="251.94667053222656" type="curve"/>
      <point x="278.8149231286883" y="251.5350373238078"/>
      <point x="279.9576307441906" y="251.13862611121476"/>
      <point x="281.1040344238281" y="250.76006317138672" type="curve"/>
      <point x="281.90540370638934" y="250.47673949155026"/>
      <point x="282.70857092843335" y="250.20550283548698"/>
      <point x="283.51334381103516" y="249.9444122314453" type="curve"/>
      <point x="284.3920445956291" y="249.64307251384517"/>
      <point x="285.27291176853726" y="249.35364372110547"/>
      <point x="286.1559371948242" y="249.07763671875" type="curve"/>
      <point x="287.26617579466466" y="248.706109855178"/>
      <point x="288.3798398561088" y="248.35037717743464"/>
      <point x="289.49693298339844" y="248.00957489013672" type="curve"/>
      <point x="290.54002535232934" y="247.67591079393588"/>
      <point x="291.58617744858935" y="247.3535469877575"/>
      <point x="292.63512420654297" y="247.0364227294922" type="curve"/>
      <point x="293.08376827346376" y="246.894004848693"/>
      <point x="293.5327712125164" y="246.7585534507879"/>
      <point x="293.9823303222656" y="246.6281967163086" type="curve"/>
      <point x="514.0166091918945" y="180.0938491821289" type="line"/>
      <point x="601.6187424893462" y="153.60456405628528"/>
      <point x="662.1818181818182" y="96.64347486241975"/>
      <point x="662.1818181818182" y="30.818181818181817" type="curve"/>
      <point x="662.1818181818182" y="-60.39831876000006"/>
      <point x="545.8426633745455" y="-134.45454545454544"/>
      <point x="402.5454545454545" y="-134.45454545454544" type="curve" smooth="yes"/>
      <point x="259.2482457163636" y="-134.45454545454544"/>
      <point x="142.9090909090909" y="-60.39831875999993"/>
      <point x="142.9090909090909" y="30.818181818181817" type="curve"/>
    </contour>
  </outline>
</glyph>
<glyph name="diaeresis" format="2">
  <advance width="550.6597402597401"/>
  <unicode hex="00A8"/>
  <outline>
    <contour>
      <point x="207.35065" y="1294.12338" type="curve" smooth="yes"/>
      <point x="207.35065" y="1318.37897"/>
      <point x="187.65819" y="1338.07143"/>
      <point x="163.4026" y="1338.07143" type="curve" smooth="yes"/>
      <point x="139.14701" y="1338.07143"/>
      <point x="119.45455" y="1318.37897"/>
      <point x="119.45455" y="1294.12338" type="curve" smooth="yes"/>
      <point x="119.45455" y="1269.86779"/>
      <point x="139.14701" y="1250.17532"/>
      <point x="163.4026" y="1250.17532" type="curve" smooth="yes"/>
      <point x="187.65819" y="1250.17532"/>
      <point x="207.35065" y="1269.86779"/>
    </contour>
    <contour>
      <point x="431.20519" y="1294.12338" type="curve" smooth="yes"/>
      <point x="431.20519" y="1318.37897"/>
      <point x="411.51273" y="1338.07143"/>
      <point x="387.25714" y="1338.07143" type="curve" smooth="yes"/>
      <point x="363.00155" y="1338.07143"/>
      <point x="343.30909" y="1318.37897"/>
      <point x="343.30909" y="1294.12338" type="curve" smooth="yes"/>
      <point x="343.30909" y="1269.86779"/>
      <point x="363.00155" y="1250.17532"/>
      <point x="387.25714" y="1250.17532" type="curve" smooth="yes"/>
      <point x="411.51273" y="1250.17532"/>
      <point x="431.20519" y="1269.86779"/>
    </contour>
  </outline>
</glyph>
<glyph name="copyright" format="2">
  <advance width="1250.181818181818"/>
  <unicode hex="00A9"/>
  <outline>
    <contour>
      <point x="1165.090909090909" y="540.0" type="curve" smooth="yes"/>
      <point x="1165.090909090909" y="838.0341108"/>
      <point x="923.1250198909091" y="1080.0"/>
      <point x="625.0909090909091" y="1080.0" type="curve" smooth="yes"/>
      <point x="327.0567982909091" y="1080.0"/>
      <point x="85.09090909090908" y="838.0341108"/>
      <point x="85.09090909090908" y="540.0000000000001" type="curve" smooth="yes"/>
      <point x="85.09090909090902" y="241.9658892000001"/>
      <point x="327.056798290909" y="1.2402200478721748e-13"/>
      <point x="625.090909090909" y="6.201100239360874e-14" type="curve" smooth="yes"/>
      <point x="923.1250198909089" y="0.0"/>
      <point x="1165.090909090909" y="241.9658891999999"/>
    </contour>
    <contour>
      <point x="1135.6363636363635" y="540.0" type="curve" smooth="yes"/>
      <point x="1135.6363636363635" y="258.2222952436362"/>
      <point x="906.8686138472725" y="29.454545454545453"/>
      <point x="625.090909090909" y="29.454545454545514" type="curve" smooth="yes"/>
      <point x="343.3132043345453" y="29.454545454545578"/>
      <point x="114.54545454545448" y="258.22229524363644"/>
      <point x="114.54545454545453" y="540.0000000000001" type="curve" smooth="yes"/>
      <point x="114.54545454545453" y="821.7777047563637"/>
      <point x="343.31320433454545" y="1050.5454545454545"/>
      <point x="625.0909090909091" y="1050.5454545454545" type="curve" smooth="yes"/>
      <point x="906.8686138472729" y="1050.5454545454545"/>
      <point x="1135.6363636363635" y="821.7777047563637"/>
    </contour>
    <contour>
      <point x="625.0909090909091" y="288.8068181818182" type="curve" smooth="yes"/>
      <point x="486.45361912386346" y="288.80681818181824"/>
      <point x="373.89772727272714" y="401.3627100329547"/>
      <point x="373.89772727272714" y="540.0" type="curve" smooth="yes"/>
      <point x="373.89772727272714" y="678.6372899670456"/>
      <point x="486.4536191238635" y="791.1931818181819"/>
      <point x="625.0909090909091" y="791.1931818181819" type="curve" smooth="yes"/>
      <point x="719.1640740217875" y="791.1931818181819"/>
      <point x="801.2283657734835" y="739.3681444945273"/>
      <point x="844.2663171941583" y="662.7272741144352" type="curve"/>
      <point x="885.6787900057705" y="662.7272741144352" type="line"/>
      <point x="839.5642009292231" y="760.3799040010565"/>
      <point x="740.1633199571442" y="828.0113636363636"/>
      <point x="625.090909090909" y="828.0113636363636" type="curve" smooth="yes"/>
      <point x="466.1331115693181" y="828.0113636363636"/>
      <point x="337.0795454545453" y="698.9577975215909"/>
      <point x="337.0795454545453" y="540.0" type="curve" smooth="yes"/>
      <point x="337.0795454545453" y="381.04220247840914"/>
      <point x="466.13311156931803" y="251.98863636363637"/>
      <point x="625.090909090909" y="251.98863636363637" type="curve" smooth="yes"/>
      <point x="740.1631609993465" y="251.98863636363637"/>
      <point x="839.5639263100209" y="319.6199091506736"/>
      <point x="885.6786193847655" y="417.27272865989" type="curve"/>
      <point x="844.2682855779474" y="417.27272865989" type="line"/>
      <point x="801.2310264415449" y="340.63353577955854"/>
      <point x="719.1655990319771" y="288.8068181818182"/>
    </contour>
  </outline>
</glyph>
<glyph name="ordinal_a" format="2">
  <advance width="620.1818181818182"/>
  <unicode hex="00AA"/>
  <anchor x="502.3636363636364" y="916.3636363636363" name="above" identifier="above"/>
  <anchor x="502.3636363636364" y="-130.9090909090909" name="below" identifier="below"/>
  <anchor x="910.5454545454545" y="0" name="ogonek" identifier="ogonek"/>
  <outline>
    <contour>
      <point x="469.78182220458984" y="694.5454483032227" type="line"/>
      <point x="502.36363983154297" y="694.5454483032227" type="line"/>
      <point x="502.36363983154297" y="1087.2727279663086" type="line"/>
      <point x="469.78182220458984" y="1087.2727279663086" type="line"/>
      <point x="469.78182220458984" y="1001.5010681152344" type="line"/>
      <point x="433.419883628141" y="1057.7504716078452"/>
      <point x="370.16202898228005" y="1095.0"/>
      <point x="298.27273" y="1095.0" type="curve" smooth="yes"/>
      <point x="185.63189" y="1095.0"/>
      <point x="94.18182" y="1003.54993"/>
      <point x="94.18182" y="890.90909" type="curve" smooth="yes"/>
      <point x="94.18182" y="778.26825"/>
      <point x="185.63189" y="686.81818"/>
      <point x="298.27273" y="686.81818" type="curve" smooth="yes"/>
      <point x="370.16202898228" y="686.81818"/>
      <point x="433.41988362814095" y="724.0677083921547"/>
      <point x="469.78182220458984" y="780.3322677612305" type="curve"/>
    </contour>
    <contour>
      <point x="469.78182" y="890.90909" type="curve" smooth="yes"/>
      <point x="469.78182" y="796.25065"/>
      <point x="392.93117" y="719.4"/>
      <point x="298.27273" y="719.4" type="curve" smooth="yes"/>
      <point x="203.61428" y="719.4"/>
      <point x="126.76364" y="796.25065"/>
      <point x="126.76364" y="890.90909" type="curve" smooth="yes"/>
      <point x="126.76364" y="985.56753"/>
      <point x="203.61428" y="1062.41818"/>
      <point x="298.27273" y="1062.41818" type="curve" smooth="yes"/>
      <point x="392.93117" y="1062.41818"/>
      <point x="469.78182" y="985.56753"/>
    </contour>
    <contour>
      <point x="94.18182" y="549.36364" type="line"/>
      <point x="502.36364" y="549.36364" type="line"/>
      <point x="502.36364" y="582.09091" type="line"/>
      <point x="94.18182" y="582.09091" type="line"/>
    </contour>
  </outline>
</glyph>
<glyph name="ordinalfeminine" format="2">
  <advance width="620.1818181818182"/>
  <unicode hex="00AA"/>
  <outline>
    <contour>
      <point x="469.63636016845703" y="703.636360168457" type="line"/>
      <point x="502.36363983154297" y="703.636360168457" type="line"/>
      <point x="502.36363983154297" y="1096.363639831543" type="line"/>
      <point x="469.63636016845703" y="1096.363639831543" type="line"/>
      <point x="469.63636016845703" y="1010.8215408325195" type="line"/>
      <point x="433.2513662749717" y="1066.9405347349323"/>
      <point x="370.0662803763639" y="1104.090909090909"/>
      <point x="298.27272727272725" y="1104.090909090909" type="curve" smooth="yes"/>
      <point x="185.63188910000002" y="1104.090909090909"/>
      <point x="94.18181818181817" y="1012.6408381727273"/>
      <point x="94.18181818181817" y="899.9999999999999" type="curve" smooth="yes"/>
      <point x="94.18181818181817" y="787.3591618272727"/>
      <point x="185.63188909999997" y="695.9090909090908"/>
      <point x="298.27272727272725" y="695.9090909090908" type="curve" smooth="yes"/>
      <point x="370.0662803763639" y="695.9090909090908"/>
      <point x="433.2513662749717" y="733.0594652650675"/>
      <point x="469.63636016845703" y="789.1990509033203" type="curve"/>
    </contour>
    <contour>
      <point x="469.6363636363636" y="899.9999999999999" type="curve" smooth="yes"/>
      <point x="469.63636363636357" y="805.4218352090908"/>
      <point x="392.8508920636363" y="728.6363636363635"/>
      <point x="298.27272727272725" y="728.6363636363635" type="curve" smooth="yes"/>
      <point x="203.69456248181814" y="728.6363636363635"/>
      <point x="126.9090909090909" y="805.4218352090908"/>
      <point x="126.9090909090909" y="899.9999999999999" type="curve" smooth="yes"/>
      <point x="126.9090909090909" y="994.5781647909091"/>
      <point x="203.6945624818182" y="1071.3636363636363"/>
      <point x="298.27272727272725" y="1071.3636363636363" type="curve" smooth="yes"/>
      <point x="392.85089206363637" y="1071.3636363636363"/>
      <point x="469.6363636363636" y="994.5781647909091"/>
    </contour>
    <contour>
      <point x="94.18181818181817" y="558.4545454545454" type="line"/>
      <point x="502.3636363636364" y="558.4545454545454" type="line"/>
      <point x="502.3636363636364" y="591.1818181818181" type="line"/>
      <point x="94.18181818181817" y="591.1818181818181" type="line"/>
    </contour>
  </outline>
</glyph>
<glyph name="angleleft_dbl" format="2">
  <advance width="735.2727272727273"/>
  <unicode hex="00AB"/>
  <outline>
    <contour>
      <point x="315.81817626953125" y="485.45455169677734" type="line"/>
      <point x="571.1327972412109" y="216.6477279663086" type="line"/>
      <point x="615.8181762695312" y="216.6477279663086" type="line"/>
      <point x="360.5035705566406" y="485.45455169677734" type="line"/>
      <point x="615.8181762695312" y="754.261360168457" type="line"/>
      <point x="571.1327972412109" y="754.261360168457" type="line"/>
    </contour>
    <contour>
      <point x="119.45455169677734" y="485.45455169677734" type="line"/>
      <point x="369.3359909057617" y="222.1022720336914" type="line"/>
      <point x="414" y="222.1022720336914" type="line"/>
      <point x="164.1185531616211" y="485.45455169677734" type="line"/>
      <point x="414" y="748.8068237304688" type="line"/>
      <point x="369.3359909057617" y="748.8068237304688" type="line"/>
    </contour>
  </outline>
</glyph>
<glyph name="logicalnot" format="2">
  <advance width="988.3636363636363"/>
  <unicode hex="00AC"/>
  <outline>
    <contour>
      <point x="117.81817626953125" y="469.0909118652344" type="line"/>
      <point x="837.8181762695312" y="469.0909118652344" type="line"/>
      <point x="837.8181762695312" y="0" type="line"/>
      <point x="870.5454483032227" y="0" type="line"/>
      <point x="870.5454483032227" y="501.81817626953125" type="line"/>
      <point x="117.81817626953125" y="501.81817626953125" type="line"/>
    </contour>
  </outline>
</glyph>
<glyph name="registered" format="2">
  <advance width="1250.181818181818"/>
  <unicode hex="00AE"/>
  <outline>
    <contour>
      <point x="1165.090909090909" y="540.0" type="curve" smooth="yes"/>
      <point x="1165.090909090909" y="838.0341108"/>
      <point x="923.1250198909091" y="1080.0"/>
      <point x="625.0909090909091" y="1080.0" type="curve" smooth="yes"/>
      <point x="327.0567982909091" y="1080.0"/>
      <point x="85.09090909090908" y="838.0341108"/>
      <point x="85.09090909090908" y="540.0000000000001" type="curve" smooth="yes"/>
      <point x="85.09090909090902" y="241.9658892000001"/>
      <point x="327.056798290909" y="1.2402200478721748e-13"/>
      <point x="625.090909090909" y="6.201100239360874e-14" type="curve" smooth="yes"/>
      <point x="923.1250198909089" y="0.0"/>
      <point x="1165.090909090909" y="241.9658891999999"/>
    </contour>
    <contour>
      <point x="1135.6363636363635" y="540.0" type="curve" smooth="yes"/>
      <point x="1135.6363636363635" y="258.2222952436362"/>
      <point x="906.8686138472725" y="29.454545454545453"/>
      <point x="625.090909090909" y="29.454545454545514" type="curve" smooth="yes"/>
      <point x="343.3132043345453" y="29.454545454545578"/>
      <point x="114.54545454545448" y="258.22229524363644"/>
      <point x="114.54545454545453" y="540.0000000000001" type="curve" smooth="yes"/>
      <point x="114.54545454545453" y="821.7777047563637"/>
      <point x="343.31320433454545" y="1050.5454545454545"/>
      <point x="625.0909090909091" y="1050.5454545454545" type="curve" smooth="yes"/>
      <point x="906.8686138472729" y="1050.5454545454545"/>
      <point x="1135.6363636363635" y="821.7777047563637"/>
    </contour>
    <contour>
      <point x="440.5711441040039" y="259.7727279663086" type="line"/>
      <point x="477.3893280029297" y="259.7727279663086" type="line"/>
      <point x="477.3893280029297" y="470.16233825683594" type="line"/>
      <point x="661.4717254638672" y="470.16233825683594" type="line"/>
      <point x="823.2430038452148" y="259.7727279663086" type="line"/>
      <point x="869.6868743896484" y="259.7727279663086" type="line"/>
      <point x="705.2492446899414" y="473.6300277709961" type="line"/>
      <point x="785.2493554714026" y="489.73156904999433"/>
      <point x="845.5711463667782" y="560.4743186698815"/>
      <point x="845.5711463667782" y="645.1948051948053" type="curve" smooth="yes"/>
      <point x="845.5711463667782" y="741.7978530136363"/>
      <point x="767.1417266531417" y="820.2272727272726"/>
      <point x="670.5386788343105" y="820.2272727272726" type="curve"/>
      <point x="440.5711441040039" y="820.2272720336914" type="line"/>
    </contour>
    <contour>
      <point x="670.5386810302734" y="783.4090881347656" type="line"/>
      <point x="746.8212190985963" y="783.4090909090909"/>
      <point x="808.7529645485963" y="721.477345459091"/>
      <point x="808.7529645485963" y="645.1948051948053" type="curve" smooth="yes"/>
      <point x="808.7529645485963" y="568.9122649305194"/>
      <point x="746.8212190985963" y="506.98051948051955"/>
      <point x="670.5386788343105" y="506.98051948051955" type="curve"/>
      <point x="477.3893280029297" y="506.9805221557617" type="line"/>
      <point x="477.3893280029297" y="783.4090881347656" type="line"/>
    </contour>
  </outline>
</glyph>
<glyph name="macron" format="2">
  <advance width="716.5227272727273"/>
  <unicode hex="00AF"/>
  <outline>
    <contour>
      <point x="119.45455" y="1277.75974" type="line"/>
      <point x="597.06818" y="1277.75974" type="line"/>
      <point x="597.06818" y="1310.48701" type="line"/>
      <point x="119.45455" y="1310.48701" type="line"/>
    </contour>
  </outline>
</glyph>
<glyph name="degree" format="2">
  <advance width="635.3766233766233"/>
  <unicode hex="00B0"/>
  <outline>
    <contour>
      <point x="550.2857142857142" y="862.4025974025973" type="curve" smooth="yes"/>
      <point x="550.2857142857142" y="990.7765975090908"/>
      <point x="446.06231179480517" y="1095.0"/>
      <point x="317.68831168831167" y="1095.0" type="curve" smooth="yes"/>
      <point x="189.31431158181817" y="1095.0"/>
      <point x="85.09090909090908" y="990.7765975090908"/>
      <point x="85.09090909090908" y="862.4025974025973" type="curve" smooth="yes"/>
      <point x="85.09090909090905" y="734.0285972961038"/>
      <point x="189.31431158181812" y="629.8051948051948"/>
      <point x="317.6883116883116" y="629.8051948051946" type="curve" smooth="yes"/>
      <point x="446.06231179480517" y="629.8051948051946"/>
      <point x="550.2857142857142" y="734.0285972961037"/>
    </contour>
    <contour>
      <point x="517.5584415584416" y="862.4025974025973" type="curve" smooth="yes"/>
      <point x="517.5584415584416" y="752.0912706779219"/>
      <point x="427.99963841298694" y="662.5324675324673"/>
      <point x="317.6883116883116" y="662.5324675324673" type="curve" smooth="yes"/>
      <point x="207.3769849636363" y="662.5324675324673"/>
      <point x="117.81818181818181" y="752.0912706779219"/>
      <point x="117.81818181818181" y="862.4025974025973" type="curve" smooth="yes"/>
      <point x="117.81818181818181" y="972.7139241272725"/>
      <point x="207.37698496363635" y="1062.2727272727273"/>
      <point x="317.68831168831167" y="1062.2727272727273" type="curve" smooth="yes"/>
      <point x="427.999638412987" y="1062.2727272727273"/>
      <point x="517.5584415584416" y="972.7139241272725"/>
    </contour>
  </outline>
</glyph>
<glyph name="plusminus" format="2">
  <advance width="893.4545454545455"/>
  <unicode hex="00B1"/>
  <outline>
    <contour>
      <point x="430.36363983154297" y="223.63636016845703" type="line"/>
      <point x="463.0909118652344" y="223.63636016845703" type="line"/>
      <point x="463.0909118652344" y="534.5454483032227" type="line"/>
      <point x="774" y="534.5454483032227" type="line"/>
      <point x="774" y="567.2727279663086" type="line"/>
      <point x="463.0909118652344" y="567.2727279663086" type="line"/>
      <point x="463.0909118652344" y="878.1818237304688" type="line"/>
      <point x="430.36363983154297" y="878.1818237304688" type="line"/>
      <point x="430.36363983154297" y="567.2727279663086" type="line"/>
      <point x="119.45455169677734" y="567.2727279663086" type="line"/>
      <point x="119.45455169677734" y="534.5454483032227" type="line"/>
      <point x="430.36363983154297" y="534.5454483032227" type="line"/>
    </contour>
    <contour>
      <point x="119.45455" y="92.72727" type="line"/>
      <point x="774.0" y="92.72727" type="line"/>
      <point x="774.0" y="125.45455" type="line"/>
      <point x="119.45455" y="125.45455" type="line"/>
    </contour>
  </outline>
</glyph>
<glyph name="sup_two" format="2">
  <advance width="649.1688311688443"/>
  <unicode hex="00B2"/>
  <outline>
    <contour>
      <point x="116.14286041259766" y="410.15625" type="line"/>
      <point x="536.3376617431641" y="410.15625" type="line"/>
      <point x="536.3376617431641" y="442.8835220336914" type="line"/>
      <point x="164.75701141357422" y="442.8835220336914" type="line"/>
      <point x="452.88967772781854" y="705.2009312326649" type="line"/>
      <point x="480.6228485483693" y="730.4493475666368"/>
      <point x="536.33766" y="784.0303433393686"/>
      <point x="536.33766" y="874.02286" type="curve"/>
      <point x="536.33766" y="989.9787700000002"/>
      <point x="442.19617000000017" y="1084.12026"/>
      <point x="326.24026" y="1084.12026" type="curve" smooth="yes"/>
      <point x="210.28435" y="1084.12026"/>
      <point x="116.14286" y="989.97877"/>
      <point x="116.14286" y="874.02286" type="curve"/>
      <point x="148.87013244628906" y="874.0228576660156" type="line"/>
      <point x="148.87013" y="971.9161"/>
      <point x="228.34702" y="1051.39299"/>
      <point x="326.24026" y="1051.39299" type="curve" smooth="yes"/>
      <point x="424.13350000000014" y="1051.39299"/>
      <point x="503.61039" y="971.9161000000001"/>
      <point x="503.61039" y="874.02286" type="curve"/>
      <point x="503.61039" y="797.9647136373003"/>
      <point x="455.9117028952641" y="752.2107651822612"/>
      <point x="430.8575253011628" y="729.4013173591184" type="curve"/>
      <point x="116.14286041259766" y="442.8835220336914" type="line"/>
    </contour>
  </outline>
</glyph>
<glyph name="sup_three" format="2">
  <advance width="660.051948051948"/>
  <unicode hex="00B3"/>
  <outline>
    <contour>
      <point x="107.68830871582031" y="579.319091796875" type="line"/>
      <point x="107.68831" y="475.1297"/>
      <point x="208.07099" y="390.54113"/>
      <point x="331.71429" y="390.54113" type="curve" smooth="yes"/>
      <point x="455.35759" y="390.54113"/>
      <point x="555.74026" y="475.1297"/>
      <point x="555.74026" y="579.31909" type="curve"/>
      <point x="555.74026" y="656.621894383"/>
      <point x="500.48136860398785" y="723.1347871583322"/>
      <point x="421.46227264404297" y="752.2986450195312" type="curve"/>
      <point x="492.8167393768539" y="780.729127167224"/>
      <point x="542.23377" y="842.0023070527501"/>
      <point x="542.23377" y="912.9338100000001" type="curve"/>
      <point x="542.23377" y="1010.93406"/>
      <point x="447.90315" y="1090.49784"/>
      <point x="331.71429" y="1090.49784" type="curve" smooth="yes"/>
      <point x="215.52542" y="1090.49784"/>
      <point x="121.19481" y="1010.93406"/>
      <point x="121.19481" y="912.93381" type="curve"/>
      <point x="153.92208099365234" y="912.9338073730469" type="line"/>
      <point x="153.92208" y="992.87139"/>
      <point x="233.5881" y="1057.77056"/>
      <point x="331.71429" y="1057.77056" type="curve" smooth="yes"/>
      <point x="429.84048" y="1057.77056"/>
      <point x="509.50649" y="992.87139"/>
      <point x="509.50649" y="912.93381" type="curve"/>
      <point x="509.50649" y="832.99623"/>
      <point x="429.84048" y="768.09706"/>
      <point x="331.71429" y="768.09706" type="curve"/>
      <point x="291.19480895996094" y="768.0970611572266" type="line"/>
      <point x="291.19480895996094" y="735.3697814941406" type="line"/>
      <point x="331.7142868041992" y="735.3697814941406" type="line"/>
      <point x="437.29491" y="735.36978"/>
      <point x="523.01299" y="665.44581"/>
      <point x="523.01299" y="579.31909" type="curve"/>
      <point x="523.01299" y="493.19237"/>
      <point x="437.29491" y="423.2684"/>
      <point x="331.71429" y="423.2684" type="curve" smooth="yes"/>
      <point x="226.13366" y="423.2684"/>
      <point x="140.41558" y="493.19237"/>
      <point x="140.41558" y="579.31909" type="curve"/>
    </contour>
  </outline>
</glyph>
<glyph name="acute" format="2">
  <advance width="455.0430513648611"/>
  <unicode hex="00B4"/>
  <anchor x="138.96594479186095" y="1521.1363636363635" name="above" identifier="above"/>
  <outline>
    <contour>
      <point x="119.45455" y="1204.77273" type="line"/>
      <point x="158.47734" y="1204.77273" type="line"/>
      <point x="335.58851" y="1477.5" type="line"/>
      <point x="296.56571" y="1477.5" type="line"/>
    </contour>
  </outline>
</glyph>
<glyph name="micron" format="2">
  <advance width="901.6363636363635"/>
  <unicode hex="00B5"/>
  <outline>
    <contour>
      <point x="119.45455169677734" y="-307.8409118652344" type="line"/>
      <point x="152.18182373046875" y="-307.8409118652344" type="line"/>
      <point x="152.18182373046875" y="174.71728515625" type="line"/>
      <point x="205.73856981180867" y="63.67549464863073"/>
      <point x="319.39476761402" y="-13.000000000000014"/>
      <point x="450.81817999999987" y="-12.999999999999972" type="curve" smooth="yes"/>
      <point x="582.24159238598" y="-13.0"/>
      <point x="695.897795352252" y="63.67549464863076"/>
      <point x="749.4545516967773" y="174.7183074951172" type="curve"/>
      <point x="749.4545516967773" y="0" type="line"/>
      <point x="782.1818237304688" y="0" type="line"/>
      <point x="782.1818237304688" y="790.0568237304688" type="line"/>
      <point x="749.4545516967773" y="790.0568237304688" type="line"/>
      <point x="749.4545516967773" y="338.36363983154297" type="line"/>
      <point x="749.4545516967773" y="122.26245243531537"/>
      <point x="592.1272881149097" y="19.72727"/>
      <point x="450.81818" y="19.72727" type="curve" smooth="yes"/>
      <point x="309.50907688509034" y="19.72727000000002"/>
      <point x="152.18181844909915" y="122.26245268800088"/>
      <point x="152.1818201581735" y="338.36364" type="curve"/>
      <point x="152.18182373046875" y="790.0568237304688" type="line"/>
      <point x="119.45455169677734" y="790.0568237304688" type="line"/>
    </contour>
  </outline>
</glyph>
<glyph name="mu" format="2">
  <advance width="857.4545454545454"/>
  <unicode hex="00B5"/>
  <outline>
    <contour>
      <point x="117.81817626953125" y="-185.71428680419922" type="line"/>
      <point x="150.54544830322266" y="-185.71428680419922" type="line"/>
      <point x="150.54544830322266" y="148.0295867919922" type="line"/>
      <point x="200.11062038381652" y="51.27067793480299"/>
      <point x="300.83475904463" y="-15.000000000000014"/>
      <point x="416.91511" y="-15.000000000000028" type="curve" smooth="yes"/>
      <point x="532.99546095537" y="-15.0"/>
      <point x="633.7195996161835" y="51.27067793480299"/>
      <point x="683.2847671508789" y="148.02938079833984" type="curve"/>
      <point x="683.2847671508789" y="139.53340911865234" type="line"/>
      <point x="683.28477" y="54.24409999999996"/>
      <point x="752.52887" y="-14.99999999999999"/>
      <point x="837.81818" y="-15.0" type="curve"/>
      <point x="837.8181762695312" y="17.727272033691406" type="line"/>
      <point x="789.6176003951979" y="17.727270575562574"/>
      <point x="716.0120401330882" y="39.45252270334879"/>
      <point x="716.0120399587073" y="170.58504884120595" type="curve"/>
      <point x="716.0120391845703" y="752.7272720336914" type="line"/>
      <point x="683.2847671508789" y="752.7272720336914" type="line"/>
      <point x="683.2847671508789" y="324.09693145751953" type="line"/>
      <point x="683.2847671508789" y="76.37855291729693"/>
      <point x="518.8638180468377" y="17.72727"/>
      <point x="416.91511" y="17.72727" type="curve" smooth="yes"/>
      <point x="314.9664019531623" y="17.727270000000015"/>
      <point x="150.54545075208924" y="76.37855145977738"/>
      <point x="150.54544985517134" y="324.09693" type="curve"/>
      <point x="150.54544830322266" y="752.7272720336914" type="line"/>
      <point x="117.81817626953125" y="752.7272720336914" type="line"/>
    </contour>
  </outline>
</glyph>
<glyph name="pilcrow" format="2">
  <advance width="792.0"/>
  <unicode hex="00B6"/>
  <outline>
    <contour>
      <point x="412.36363983154297" y="-185.71428680419922" type="line"/>
      <point x="445.0909118652344" y="-185.71428680419922" type="line"/>
      <point x="445.0909118652344" y="1047.2727279663086" type="line"/>
      <point x="576" y="1047.2727279663086" type="line"/>
      <point x="576" y="-185.71428680419922" type="line"/>
      <point x="608.7272720336914" y="-185.71428680419922" type="line"/>
      <point x="608.7272720336914" y="1047.2727279663086" type="line"/>
      <point x="690.5454483032227" y="1047.2727279663086" type="line"/>
      <point x="690.5454483032227" y="1080" type="line"/>
      <point x="412.36363983154297" y="1080" type="line"/>
      <point x="237.75779" y="1080.0"/>
      <point x="96.0" y="938.24221"/>
      <point x="96.0" y="763.63636" type="curve" smooth="yes"/>
      <point x="96.0" y="589.03052"/>
      <point x="237.75779" y="447.27273"/>
      <point x="412.36364" y="447.27273" type="curve"/>
    </contour>
  </outline>
</glyph>
<glyph name="interpunct" format="2">
  <advance width="314.1818181818182"/>
  <unicode hex="00B7"/>
  <outline>
    <contour>
      <point x="212.72727" y="477.95455" type="curve" smooth="yes"/>
      <point x="212.72727" y="508.66109"/>
      <point x="187.79745" y="533.59091"/>
      <point x="157.09091" y="533.59091" type="curve" smooth="yes"/>
      <point x="126.38436" y="533.59091"/>
      <point x="101.45455" y="508.66109"/>
      <point x="101.45455" y="477.95455" type="curve" smooth="yes"/>
      <point x="101.45455" y="447.248"/>
      <point x="126.38436" y="422.31818"/>
      <point x="157.09091" y="422.31818" type="curve" smooth="yes"/>
      <point x="187.79745" y="422.31818"/>
      <point x="212.72727" y="447.248"/>
    </contour>
  </outline>
</glyph>
